<?xml version="1.0" encoding="utf-8"?>
<!-- Generator: Adobe Illustrator 19.0.0, SVG Export Plug-In . SVG Version: 6.00 Build 0)  -->
<svg version="1.1" id="icon-0" xmlns:svgjs="http://svgjs.dev/svgjs"
	 xmlns="http://www.w3.org/2000/svg" xmlns:xlink="http://www.w3.org/1999/xlink" x="0px" y="0px" viewBox="79 207.3 1000 181"
	 style="enable-background:new 79 207.3 1000 181;" xml:space="preserve">
<style type="text/css">
	.st0{fill:#FFFFFF;}
	.st1{fill:#DF6825;}
	.st2{fill:none;}
</style>
<path id="i_x24_-0" class="st0" d="M91.2,322.2h974.4c5.5,0,9.9,1,9.9,2.2l0,0c0,1.2-4.5,2.2-9.9,2.2H91.2c-5.5,0-9.9-1-9.9-2.2l0,0
	C81.2,323.2,85.7,322.2,91.2,322.2z"/>
<path class="st0" d="M114,365.8c-1.2-1.9-2.6-3.3-4.3-4.3c-1.7-1-3.8-2-6.4-3.2c-1.8-0.7-3.1-1.3-4.1-1.8c-1-0.5-1.8-1.2-2.4-2
	c-0.6-0.8-1-1.8-1-3c0-1,0.5-2,1.4-2.7c0.9-0.8,2.6-1.1,5-1.1c1.4,0,2.6,0.1,3.6,0.4c1,0.3,1.9,0.6,2.9,1c0.6,0.3,1,0.4,1.3,0.4
	c0.5,0,1.1-0.4,1.7-1.1c0.6-0.7,1.1-1.6,1.5-2.6c0.4-1,0.6-1.8,0.6-2.4c0-0.8-0.5-1.5-1.6-2.3c-1.1-0.8-2.6-1.4-4.5-1.8
	c-1.9-0.5-4-0.7-6.3-0.7c-2.9,0-5.5,0.5-8,1.5s-4.5,2.5-6.1,4.7c-1.6,2.1-2.3,4.7-2.3,7.9c0,2.6,0.4,4.8,1.3,6.6
	c0.8,1.8,1.9,3.2,3.3,4.3c1.3,1.1,2.9,2.1,4.8,3l3.1,1.3c1.8,0.7,3.1,1.3,4.1,1.8c1,0.5,1.8,1.1,2.5,1.9c0.7,0.8,1,1.7,1,2.7
	c0,1.8-0.6,3-1.9,3.8c-1.3,0.7-2.8,1.1-4.6,1.1c-1.6,0-3.1-0.2-4.4-0.7c-1.3-0.4-2.6-1-4-1.8c-0.9-0.5-1.5-0.7-1.8-0.7
	c-0.5,0-1.1,0.4-1.8,1.1c-0.7,0.7-1.3,1.6-1.8,2.6c-0.5,1-0.8,1.8-0.8,2.5c0,0.9,0.7,1.8,2,2.7c1.3,1,3.2,1.8,5.7,2.4
	c2.5,0.7,5.4,1,8.7,1c2.7,0,5.3-0.5,7.6-1.5c2.3-1,4.3-2.7,5.8-4.9c1.5-2.3,2.3-5.2,2.3-8.8C115.9,370,115.3,367.6,114,365.8z"/>
<path class="st0" d="M150.7,342.2c-3.3-2.1-7.2-3.2-11.5-3.2h-14.6c-1,0-1.7,0.2-2.1,0.6c-0.5,0.4-0.7,1.1-0.7,2.1v43.8
	c0,1.5,1.4,2.2,4.2,2.2h2.3c2.8,0,4.2-0.7,4.2-2.2v-16.1h7.3c1.9,0,4-0.4,6.4-1.2c2.4-0.8,4.6-2.3,6.5-4.5c1-1.1,1.7-2.5,2.2-4.1
	c0.5-1.6,0.7-3.4,0.7-5.4C155.7,348.3,154,344.3,150.7,342.2z M143,358.9c-1.2,0.9-2.6,1.3-4.3,1.3h-6.2v-12.2h6.2
	c1.6,0,3.1,0.5,4.3,1.4c1.2,0.9,1.8,2.5,1.8,4.8C144.8,356.4,144.2,358,143,358.9z"/>
<path class="st0" d="M198,385l-6.1-15.3c-0.6-1.5-1.3-2.9-2.3-4.1c-1-1.2-1.8-2-2.7-2.3v-0.3c2.5-0.9,4.4-2.4,5.9-4.3
	c1.5-1.9,2.2-4.2,2.2-6.8c0-8.7-5.8-13-17.3-13h-13.6c-1,0-1.7,0.2-2.1,0.6c-0.4,0.4-0.7,1.1-0.7,2.1v43.8c0,1.5,1.4,2.2,4.2,2.2
	h2.3c2.8,0,4.2-0.7,4.2-2.2v-17h2.7c1.5,0,2.6,0.1,3.5,0.4c0.9,0.3,1.5,0.7,2,1.3c0.5,0.6,1,1.4,1.5,2.4l5.5,13.5
	c0.4,1,1.7,1.4,4,1.4h2.8c1.4,0,2.4-0.1,3.1-0.3c0.7-0.2,1-0.6,1-1C198.4,386.1,198.3,385.6,198,385z M183.4,356.4
	c-0.5,0.9-1.1,1.6-2,2.2c-0.8,0.5-1.7,0.8-2.7,0.8h-6.6v-11.3h6.1c1.8,0,3.2,0.5,4.3,1.4c1,1,1.6,2.3,1.6,3.9
	C184.1,354.4,183.9,355.4,183.4,356.4z"/>
<path class="st0" d="M237.2,378.5H216l23.2-32.6c0.1-0.1,0.1-0.3,0.1-0.6c0-0.6-0.1-1.4-0.4-2.5c-0.3-1-0.6-1.9-1-2.7
	c-0.4-0.8-0.8-1.2-1.1-1.2H205c-0.7,0-1.3,0.3-1.6,0.8c-0.3,0.5-0.5,1.4-0.5,2.7v2.1c0,1.2,0.2,2.1,0.5,2.7c0.3,0.5,0.9,0.8,1.6,0.8
	h19.3L201,380.7c-0.1,0.3-0.1,0.5-0.1,0.7c0,0.6,0.1,1.4,0.5,2.4c0.3,1,0.7,1.9,1.1,2.6c0.4,0.8,0.8,1.1,1.2,1.1h33.6
	c0.7,0,1.3-0.3,1.6-0.8c0.3-0.5,0.5-1.4,0.5-2.7v-2.2c0-1.2-0.2-2.1-0.5-2.6C238.5,378.8,237.9,378.5,237.2,378.5z"/>
<path class="st0" d="M276.4,379.3c-0.3-0.5-0.9-0.8-1.6-0.8h-17.5v-11.3h15.6c0.7,0,1.3-0.3,1.6-0.8c0.3-0.6,0.5-1.4,0.5-2.7v-2.2
	c0-1.2-0.2-2.1-0.5-2.7c-0.3-0.5-0.9-0.8-1.6-0.8h-15.6v-10.1h17.5c0.7,0,1.3-0.3,1.6-0.8c0.3-0.5,0.5-1.4,0.5-2.7v-2.1
	c0-1.2-0.2-2.1-0.5-2.7c-0.3-0.5-0.8-0.8-1.6-0.8h-25.4c-1,0-1.7,0.2-2.1,0.6c-0.4,0.4-0.7,1.1-0.7,2.1v43.1c0,1,0.2,1.7,0.7,2.1
	c0.5,0.4,1.2,0.7,2.1,0.7h25.5c0.7,0,1.3-0.3,1.6-0.8c0.3-0.5,0.5-1.4,0.5-2.7v-2.2C276.9,380.7,276.7,379.9,276.4,379.3z"/>
<path class="st0" d="M322.5,350c-1.7-3.6-4.2-6.3-7.5-8.2c-3.3-1.9-7.3-2.8-12.1-2.8h-15.5c-1,0-1.7,0.2-2.1,0.6
	c-0.4,0.4-0.7,1.1-0.7,2.1v43.1c0,1,0.2,1.7,0.7,2.1c0.5,0.4,1.2,0.7,2.1,0.7h15.5c4.8,0,8.8-0.9,12.1-2.8c3.3-1.9,5.8-4.6,7.5-8.2
	c0.9-1.8,1.5-3.8,1.9-6c0.4-2.2,0.6-4.6,0.6-7.2C325,358.1,324.2,353.6,322.5,350z M311.2,374.6c-1.9,2.6-4.7,3.9-8.4,3.9h-7.5
	v-30.4h7.5c3.7,0,6.5,1.3,8.4,3.9c1,1.3,1.7,2.9,2.1,4.8c0.5,1.9,0.7,4.1,0.7,6.5C314.1,368.2,313.1,372,311.2,374.6z"/>
<path class="st0" d="M370.3,384.9L355,340.3c-0.4-1-1.7-1.5-4-1.5h-3.6c-2.3,0-3.6,0.5-4,1.5l-15.3,44.6c-0.2,0.6-0.3,1-0.3,1.3
	c0,1,1.4,1.5,4.3,1.5h2.7c1.8,0,2.9-0.5,3.2-1.4l2.8-8.5h16.4l2.8,8.5c0.1,0.5,0.6,0.9,1.2,1.1c0.7,0.2,1.5,0.3,2.6,0.3h3.1
	c1.2,0,2.1-0.1,2.6-0.4c0.5-0.2,0.8-0.6,0.8-1.2C370.5,385.9,370.5,385.5,370.3,384.9z M343.9,368.6l4.1-12.3
	c0.3-0.9,0.6-2.1,0.9-3.6l0.2-0.9h0.3c0.1,0.7,0.3,1.5,0.5,2.3c0.2,0.8,0.4,1.5,0.6,2.2l3.9,12.3H343.9z"/>
<path class="st0" d="M420.1,338.8h-3.6c-2.2,0-3.7,0.6-4.4,1.9l-11.8,20.5l-0.6,1.2l-0.6-1l-11.7-20.8c-0.7-1.3-2.1-1.9-4.3-1.9
	h-3.7c-1.4,0-2.5,0.2-3.2,0.5c-0.7,0.4-1,0.9-1,1.7v44.5c0,1.5,1.4,2.2,4.2,2.2h2c2.8,0,4.2-0.7,4.2-2.2v-28.8l0.3-0.1l10.1,18
	c0.3,0.4,0.7,0.8,1.1,1c0.4,0.2,1,0.3,1.6,0.3h2c1.2,0,2.2-0.4,2.8-1.3l10.1-18l0.3,0.1v28.8c0,1.5,1.4,2.2,4.2,2.2h2
	c2.8,0,4.2-0.7,4.2-2.2v-44.5C424.3,339.6,422.9,338.8,420.1,338.8z"/>
<path class="st0" d="M466.1,339.8c-0.3-0.5-0.9-0.8-1.6-0.8h-32.8c-0.7,0-1.3,0.3-1.6,0.8c-0.3,0.5-0.5,1.4-0.5,2.7v2.1
	c0,1.2,0.2,2.1,0.5,2.7c0.3,0.5,0.9,0.8,1.6,0.8h11v37.5c0,1.5,1.4,2.2,4.2,2.2h2.4c2.8,0,4.2-0.7,4.2-2.2v-37.5h11.1
	c0.7,0,1.3-0.3,1.6-0.8c0.3-0.5,0.5-1.4,0.5-2.7v-2.1C466.6,341.3,466.4,340.4,466.1,339.8z"/>
<path class="st0" d="M527.6,339.3c-0.7-0.3-1.8-0.5-3.2-0.5h-0.8c-2.7,0-4.3,0.7-4.6,2.2l-5.4,22.4l-1.3,5.5
	c-0.3,1.4-0.6,2.5-0.8,3.3s-0.3,1.3-0.3,1.6c-0.9-4.1-1.7-7.6-2.4-10.5l-5.5-23c-0.1-0.5-0.5-0.9-1.1-1.1c-0.6-0.2-1.5-0.4-2.7-0.4
	h-2.7c-1.1,0-2,0.1-2.7,0.4c-0.6,0.2-1,0.6-1.1,1.1l-5.7,23l-0.6,2.1c-0.9,3.4-1.5,6-1.8,7.9l-1.2-5.6c-0.6-2.5-0.9-4-0.9-4.4
	l-5.2-22.4c-0.4-1.4-1.9-2.2-4.6-2.2h-1.8c-1.5,0-2.5,0.2-3.3,0.5c-0.7,0.3-1.1,0.8-1.1,1.3c0,0.4,0,0.8,0.2,1l11,44.6
	c0.1,0.5,0.5,0.8,1.1,1.1c0.7,0.3,1.5,0.4,2.7,0.4h5c1,0,1.9-0.1,2.6-0.4c0.7-0.2,1.1-0.6,1.2-1.1l5.9-24l1.2-4.7l1.1,4.7l5.7,24
	c0.1,0.5,0.5,0.8,1.2,1.1c0.7,0.3,1.6,0.4,2.6,0.4h5.1c1,0,1.9-0.1,2.6-0.4c0.7-0.2,1.1-0.6,1.3-1.1l11.3-44.6c0-0.2,0-0.3,0.1-0.5
	c0-0.2,0-0.3,0-0.5C528.7,340.1,528.3,339.6,527.6,339.3z"/>
<path class="st0" d="M573.4,349.7c-1.7-3.7-4.3-6.5-7.6-8.4c-1.7-1-3.5-1.7-5.5-2.2c-2-0.5-4.2-0.7-6.6-0.7c-4.7,0-8.8,0.9-12.1,2.9
	c-3.3,1.9-5.8,4.7-7.6,8.4c-0.9,1.9-1.5,3.9-1.9,6.2c-0.4,2.3-0.7,4.7-0.7,7.4c0,5.3,0.9,9.9,2.6,13.6c1.7,3.7,4.3,6.5,7.6,8.5
	s7.4,2.9,12.1,2.9c4.8,0,8.8-1,12.1-2.9c3.3-1.9,5.8-4.8,7.6-8.5c0.9-1.8,1.5-3.9,1.9-6.2c0.4-2.3,0.6-4.7,0.6-7.4
	C576,358,575.2,353.4,573.4,349.7z M562.2,375c-1.9,2.7-4.7,4-8.5,4c-3.7,0-6.5-1.3-8.4-4c-1-1.3-1.7-3-2.2-5
	c-0.5-2-0.7-4.2-0.7-6.8c0-5.1,1-9,2.9-11.7c1-1.3,2.1-2.3,3.5-3c1.4-0.7,3-1,4.9-1c3.7,0,6.5,1.3,8.5,4c1,1.3,1.7,3,2.1,4.9
	c0.5,2,0.7,4.2,0.7,6.8C565,368.4,564.1,372.3,562.2,375z"/>
<path class="st0" d="M598.3,338.8h-2.5c-2.8,0-4.1,0.8-4.1,2.3v30.8c0,2.5-0.5,4.4-1.3,5.5c-0.9,1.1-2.4,1.7-4.5,1.7
	c-0.9,0-1.9-0.1-3-0.4c-0.5-0.1-0.8-0.2-0.9-0.2c-0.7,0.1-1.2,0.5-1.6,1.3c-0.4,0.8-0.8,1.8-0.9,2.8c-0.2,1-0.3,1.8-0.3,2.4
	c0,1.3,1,2.1,2.9,2.6c2,0.5,3.8,0.7,5.6,0.7c5,0,8.7-1.3,11.1-3.9c2.4-2.6,3.6-6.1,3.6-10.8v-32.5
	C602.4,339.5,601.1,338.8,598.3,338.8z"/>
<path class="st1" d="M638.7,365.8c-1.2-1.9-2.6-3.3-4.3-4.3c-1.7-1-3.8-2-6.5-3.2c-1.8-0.7-3.1-1.3-4.1-1.8c-1-0.5-1.8-1.2-2.4-2
	c-0.6-0.8-1-1.8-1-3c0-1,0.5-2,1.4-2.7c0.9-0.8,2.6-1.1,5-1.1c1.4,0,2.6,0.1,3.6,0.4c1,0.3,1.9,0.6,2.9,1c0.6,0.3,1,0.4,1.3,0.4
	c0.5,0,1.1-0.4,1.7-1.1c0.6-0.7,1.1-1.6,1.5-2.6c0.4-1,0.6-1.8,0.6-2.4c0-0.8-0.5-1.5-1.6-2.3c-1.1-0.8-2.6-1.4-4.5-1.8
	c-1.9-0.5-4-0.7-6.4-0.7c-2.9,0-5.5,0.5-8,1.5s-4.5,2.5-6.1,4.7c-1.6,2.1-2.4,4.7-2.4,7.9c0,2.6,0.4,4.8,1.3,6.6
	c0.8,1.8,1.9,3.2,3.3,4.3c1.3,1.1,2.9,2.1,4.8,3l3.1,1.3c1.8,0.7,3.1,1.3,4.1,1.8c1,0.5,1.8,1.1,2.5,1.9c0.6,0.8,1,1.7,1,2.7
	c0,1.8-0.6,3-1.9,3.8c-1.3,0.7-2.8,1.1-4.6,1.1c-1.6,0-3.1-0.2-4.4-0.7c-1.3-0.4-2.6-1-4-1.8c-0.9-0.5-1.6-0.7-1.8-0.7
	c-0.5,0-1,0.4-1.8,1.1c-0.7,0.7-1.3,1.6-1.8,2.6c-0.5,1-0.8,1.8-0.8,2.5c0,0.9,0.7,1.8,2,2.7c1.3,1,3.2,1.8,5.7,2.4
	c2.5,0.7,5.4,1,8.7,1c2.7,0,5.3-0.5,7.6-1.5c2.4-1,4.3-2.7,5.8-4.9c1.5-2.3,2.2-5.2,2.2-8.8C640.6,370,640,367.6,638.7,365.8z"/>
<path class="st1" d="M684.1,384.9l-15.3-44.6c-0.4-1-1.7-1.5-3.9-1.5h-3.6c-2.3,0-3.6,0.5-3.9,1.5L642,384.9c-0.2,0.6-0.3,1-0.3,1.3
	c0,1,1.4,1.5,4.3,1.5h2.7c1.9,0,2.9-0.5,3.2-1.4l2.8-8.5h16.4l2.8,8.5c0.2,0.5,0.6,0.9,1.2,1.1c0.7,0.2,1.5,0.3,2.6,0.3h3
	c1.2,0,2.1-0.1,2.6-0.4c0.5-0.2,0.8-0.6,0.8-1.2C684.3,385.9,684.3,385.5,684.1,384.9z M657.7,368.6l4.1-12.3
	c0.3-0.9,0.6-2.1,0.9-3.6l0.2-0.9h0.3c0.1,0.7,0.3,1.5,0.4,2.3c0.2,0.8,0.4,1.5,0.6,2.2l4,12.3H657.7z"/>
<path class="st1" d="M733.9,338.8h-3.6c-2.2,0-3.7,0.6-4.4,1.9l-11.8,20.5l-0.6,1.2l-0.6-1l-11.7-20.8c-0.7-1.3-2.1-1.9-4.3-1.9
	h-3.7c-1.4,0-2.5,0.2-3.2,0.5c-0.7,0.4-1,0.9-1,1.7v44.5c0,1.5,1.4,2.2,4.2,2.2h2c2.8,0,4.2-0.7,4.2-2.2v-28.8l0.3-0.1l10.1,18
	c0.3,0.4,0.7,0.8,1.1,1c0.4,0.2,1,0.3,1.6,0.3h2c1.3,0,2.2-0.4,2.8-1.3l10.1-18l0.3,0.1v28.8c0,1.5,1.4,2.2,4.2,2.2h2
	c2.8,0,4.2-0.7,4.2-2.2v-44.5C738.1,339.6,736.7,338.8,733.9,338.8z"/>
<path class="st1" d="M787.9,349.7c-1.7-3.7-4.3-6.5-7.6-8.4c-1.7-1-3.5-1.7-5.5-2.2c-2-0.5-4.2-0.7-6.6-0.7c-4.7,0-8.8,0.9-12.1,2.9
	c-3.3,1.9-5.8,4.7-7.6,8.4c-0.9,1.9-1.5,3.9-1.9,6.2c-0.4,2.3-0.6,4.7-0.6,7.4c0,5.3,0.9,9.9,2.6,13.6c1.7,3.7,4.3,6.5,7.6,8.5
	c3.3,1.9,7.4,2.9,12.1,2.9c4.8,0,8.8-1,12.1-2.9c3.3-1.9,5.8-4.8,7.6-8.5c0.9-1.8,1.5-3.9,1.9-6.2c0.4-2.3,0.6-4.7,0.6-7.4
	C790.5,358,789.6,353.4,787.9,349.7z M776.6,375c-1.9,2.7-4.7,4-8.4,4c-3.7,0-6.5-1.3-8.4-4c-1-1.3-1.7-3-2.2-5
	c-0.5-2-0.7-4.2-0.7-6.8c0-5.1,1-9,2.9-11.7c1-1.3,2.1-2.3,3.5-3c1.4-0.7,3-1,4.9-1c3.7,0,6.5,1.3,8.4,4c1,1.3,1.7,3,2.1,4.9
	c0.5,2,0.7,4.2,0.7,6.8C779.5,368.4,778.5,372.3,776.6,375z"/>
<path class="st1" d="M834.4,380.2c-0.4-1-0.9-1.9-1.5-2.7c-0.6-0.8-1.3-1.2-2-1.2c-0.2,0-0.5,0.1-0.9,0.3c-0.4,0.2-0.6,0.3-0.7,0.3
	c-1.5,0.7-2.9,1.2-4.5,1.6c-1.5,0.4-3.3,0.6-5.4,0.6c-4,0-6.9-1.3-8.9-4c-1-1.3-1.7-3-2.2-5c-0.5-2-0.7-4.3-0.7-6.9
	c0-5.2,1-9.2,2.9-11.8c1-1.3,2.2-2.3,3.8-2.9c1.5-0.6,3.3-1,5.3-1c2.1,0,3.9,0.2,5.2,0.5c1.4,0.4,2.7,0.8,3.9,1.3
	c0.6,0.3,0.9,0.4,1.1,0.4c0.6,0,1.2-0.4,1.9-1.2c0.7-0.8,1.3-1.7,1.9-2.8c0.5-1,0.8-1.9,0.8-2.6c0-0.9-0.8-1.7-2.3-2.5
	c-1.5-0.7-3.4-1.3-5.7-1.7c-2.3-0.4-4.4-0.6-6.6-0.6c-7.7,0-13.5,2.1-17.4,6.2c-3.9,4.1-5.8,10.3-5.8,18.5c0,8.6,1.9,14.9,5.6,18.9
	c3.7,4.1,9.5,6.1,17.3,6.1c2.1,0,4.3-0.2,6.7-0.7c2.4-0.4,4.5-1.1,6.2-2c0.9-0.4,1.5-0.9,1.9-1.5s0.6-1.1,0.6-1.8
	C835,381.9,834.8,381.2,834.4,380.2z"/>
<path class="st1" d="M878.5,338.8h-2.4c-1.4,0-2.5,0.2-3.2,0.5c-0.7,0.4-1,0.9-1,1.7v17.2h-18.8v-17.2c0-0.8-0.3-1.3-1-1.7
	c-0.7-0.4-1.7-0.5-3.2-0.5h-2.4c-1.4,0-2.5,0.2-3.2,0.5c-0.7,0.4-1,0.9-1,1.7v44.5c0,1.5,1.4,2.2,4.1,2.2h2.4c2.8,0,4.1-0.7,4.1-2.2
	v-18.1h18.8v18.1c0,1.5,1.4,2.2,4.2,2.2h2.4c2.8,0,4.2-0.7,4.2-2.2v-44.5C882.7,339.6,881.3,338.8,878.5,338.8z"/>
<path class="st1" d="M932.5,349.7c-1.7-3.7-4.2-6.5-7.6-8.4c-1.7-1-3.5-1.7-5.5-2.2c-2-0.5-4.2-0.7-6.6-0.7c-4.7,0-8.8,0.9-12.1,2.9
	c-3.3,1.9-5.9,4.7-7.6,8.4c-0.9,1.9-1.5,3.9-1.9,6.2c-0.4,2.3-0.7,4.7-0.7,7.4c0,5.3,0.9,9.9,2.6,13.6c1.7,3.7,4.3,6.5,7.6,8.5
	s7.3,2.9,12.1,2.9c4.8,0,8.8-1,12.1-2.9s5.9-4.8,7.6-8.5c0.9-1.8,1.5-3.9,1.9-6.2c0.4-2.3,0.6-4.7,0.6-7.4
	C935.1,358,934.3,353.4,932.5,349.7z M921.3,375c-1.9,2.7-4.7,4-8.5,4c-3.7,0-6.5-1.3-8.4-4c-1-1.3-1.7-3-2.2-5
	c-0.5-2-0.7-4.2-0.7-6.8c0-5.1,1-9,2.9-11.7c1-1.3,2.1-2.3,3.5-3c1.4-0.7,3-1,4.9-1c3.7,0,6.5,1.3,8.5,4c0.9,1.3,1.7,3,2.1,4.9
	c0.5,2,0.7,4.2,0.7,6.8C924.1,368.4,923.2,372.3,921.3,375z"/>
<path class="st1" d="M981,350c-1.7-3.6-4.2-6.3-7.6-8.2c-3.3-1.9-7.4-2.8-12.1-2.8h-15.5c-1,0-1.7,0.2-2.1,0.6
	c-0.5,0.4-0.7,1.1-0.7,2.1v43.1c0,1,0.2,1.7,0.7,2.1c0.4,0.4,1.1,0.7,2.1,0.7h15.5c4.8,0,8.8-0.9,12.1-2.8c3.3-1.9,5.8-4.6,7.6-8.2
	c1.7-3.6,2.5-8,2.5-13.3C983.6,358.1,982.7,353.6,981,350z M969.8,374.6c-1.9,2.6-4.7,3.9-8.4,3.9h-7.5v-30.4h7.5
	c3.7,0,6.5,1.3,8.4,3.9c1,1.3,1.7,2.9,2.1,4.8c0.5,1.9,0.7,4.1,0.7,6.5C972.6,368.2,971.7,372,969.8,374.6z"/>
<path class="st0" d="M997.6,377.5c-0.7-0.4-1.7-0.6-3.1-0.6h-2.2c-2.8,0-4.2,0.7-4.2,2.2v6.4c0,1.5,1.4,2.2,4.2,2.2h2.2
	c2.8,0,4.1-0.7,4.1-2.2v-6.4C998.6,378.4,998.2,377.8,997.6,377.5z"/>
<path class="st0" d="M1033.9,342.2c-3.3-2.1-7.1-3.2-11.5-3.2h-14.6c-1,0-1.7,0.2-2.1,0.6c-0.5,0.4-0.7,1.1-0.7,2.1v43.8
	c0,1.5,1.4,2.2,4.2,2.2h2.3c2.8,0,4.2-0.7,4.2-2.2v-16.1h7.3c1.9,0,4-0.4,6.4-1.2c2.4-0.8,4.6-2.3,6.5-4.5c1-1.1,1.7-2.5,2.2-4.1
	c0.5-1.6,0.7-3.4,0.7-5.4C1038.9,348.3,1037.3,344.3,1033.9,342.2z M1026.2,358.9c-1.2,0.9-2.6,1.3-4.3,1.3h-6.2v-12.2h6.2
	c1.6,0,3.1,0.5,4.3,1.4c1.2,0.9,1.8,2.5,1.8,4.8C1028,356.4,1027.4,358,1026.2,358.9z"/>
<path class="st0" d="M1072.4,379.3c-0.3-0.5-0.8-0.8-1.6-0.8h-15.5v-37.4c0-0.8-0.3-1.3-1-1.7c-0.7-0.4-1.7-0.5-3.2-0.5h-2.3
	c-1.4,0-2.5,0.2-3.2,0.5c-0.7,0.4-1,0.9-1,1.7v43.8c0,1,0.2,1.7,0.7,2.1c0.5,0.4,1.2,0.7,2.1,0.7h23.4c0.7,0,1.3-0.3,1.6-0.8
	c0.3-0.5,0.5-1.4,0.5-2.7v-2.2C1072.9,380.7,1072.8,379.9,1072.4,379.3z"/>
<g>
	<path class="st0" d="M476.6,229.2c28.2-11.7,58-20.8,88.7-21.9c7.7-0.2,15.5,0.2,22.9,2.4c17,8.3,34.6,15.2,52,22.6
		c12.6,4.2,26,2.7,39,3.4c7.9,0.4,15.9,1,23.7,2.3c6.1,1.1,11.9,3.7,17.2,7c10.3,3,20.1,7.8,29,13.7c1.5,1,3.1,2.3,3.4,4.2
		c0.2,3.3-3.8,4.6-4.4,7.6c-0.6,1.8,2.3,2.1,1.9,3.8c-0.5,2.4-3.2,3.3-5.2,4.1c-12.8,4.3-26.4,5-39.7,6c0.1-7.7-1-15.5-4.3-22.5
		c-4.1-6.9-11.2-12.4-19.3-13.6c-10.5-1.6-22.4,0.7-29.5,9.2c-7.1,8.3-8.1,19.8-7.5,30.2c-42,1.8-84.1,4.5-126.1,6.2
		c0.1-5,0.5-10.2-0.9-15.1c-1.9-6.9-6.1-13.3-12.3-16.9c-7.6-4.5-17-4.8-25.3-2.3c-6.4,2-12,6.4-15.1,12.4
		c-4.2,7.6-3.9,16.5-4.2,24.9c-12,0.1-24-0.7-35.9-1.8c-5.4-2.2-10.7-4.8-15.5-8.1c-2.1-2.2-2.4-5.4-3.4-8.2
		c-0.8-3.4-2.5-7.2-0.5-10.5c5.1-9.3,14.8-14.8,23.3-20.5c-2.1-0.2-4.7-0.5-6.3-1.8l0.1-0.8c2.5-0.4,5.1,0.4,7.5-0.3
		c-1.9-3.4-4.9-6.4-7.5-9.3c-1.9-0.7-4.1-0.6-5.8-1.9c0-0.3,0.1-0.8,0.2-1.1c5.2-1.1,10.5-1.2,15.8-1.6c3.6-0.2,7.3-0.6,10.7,0.6
		c0.3,2.2-3,1.8-3.1,3.6c1.5,1.9,3.3,3.7,5.4,5.1c2.7-0.7,5.2-1.9,7.9-2.4C461.4,235.8,468.9,232.3,476.6,229.2z M551.3,212.4
		c-7.1,0.9-14.3,1.9-21.2,3.8c2.9,7.8,5.9,15.6,9.1,23.3c26.8-0.5,53.7-1.7,80.5-3.1l-0.2-0.7c-9.8-5.7-19.2-12-29.3-17.3
		c-5.7-2.8-11.4-5.8-17.8-6.4C565.3,211.2,558.3,212.1,551.3,212.4z M492,228.6c-5.3,2.4-11.1,4.4-15.6,8.2
		c-1.2,1.8,1.4,2.5,2.6,2.8c8.1,1.4,16.3,1,24.5,1.1c9.2-0.1,18.4-0.2,27.7-0.5c-2.7-7.4-5.8-14.7-8.7-22.1
		C512.1,220.7,501.9,224.5,492,228.6z"/>
	<path class="st0" d="M669.2,250.9c6.5-1.4,13.6-0.2,19.1,3.4c6.5,4,10.9,11.2,11.7,18.8c0.7,6.7-1.4,13.6-5.8,18.7
		c-5.8,7-15.4,10.3-24.3,8.6c-11.1-1.8-20.1-11.7-20.8-22.9C647.9,265.3,657.1,253.1,669.2,250.9z"/>
	<path class="st0" d="M484,260.5c6-1.3,12.4-0.6,17.8,2.3c6.5,3.4,11.5,9.7,13,16.9c1.4,6.5,0.2,13.6-3.6,19.2
		c-4.2,6.5-11.5,10.7-19.1,11.3c-7.7,0.7-15.7-2.3-21-8c-5.8-6.1-8.1-15.2-6-23.3C467.3,269.9,475,262.6,484,260.5z"/>
</g>
<rect x="772.6" y="303.5" class="st0" width="111.5" height="4.5"/>
<rect x="272.7" y="303.5" class="st0" width="111.5" height="4.5"/>
<path class="st2" d="M81.3,207.3v180.9h994.3V207.3H81.3z M1026.2,358.9c-1.2,0.9-2.6,1.3-4.3,1.3h-6.2v-12.2h6.2
	c1.6,0,3.1,0.5,4.3,1.4c1.2,0.9,1.8,2.5,1.8,4.8C1028,356.4,1027.4,358,1026.2,358.9z M969.8,374.6c-1.9,2.6-4.7,3.9-8.4,3.9h-7.5
	v-30.4h7.5c3.7,0,6.5,1.3,8.4,3.9c1,1.3,1.7,2.9,2.1,4.8c0.5,1.9,0.7,4.1,0.7,6.5C972.6,368.2,971.7,372,969.8,374.6z M668.2,368.6
	h-10.4l4.1-12.3c0.3-0.9,0.6-2.1,0.9-3.6l0.2-0.9h0.3c0.1,0.7,0.3,1.5,0.4,2.3c0.2,0.8,0.4,1.5,0.6,2.2L668.2,368.6z M354.4,368.6
	h-10.4l4.1-12.3c0.3-0.9,0.6-2.1,0.9-3.6l0.2-0.9h0.3c0.1,0.7,0.3,1.5,0.5,2.3c0.2,0.8,0.4,1.5,0.6,2.2L354.4,368.6z M311.2,374.6
	c-1.9,2.6-4.7,3.9-8.4,3.9h-7.5v-30.4h7.5c3.7,0,6.5,1.3,8.4,3.9c1,1.3,1.7,2.9,2.1,4.8c0.5,1.9,0.7,4.1,0.7,6.5
	C314.1,368.2,313.1,372,311.2,374.6z M172.2,348.1h6.1c1.8,0,3.2,0.5,4.3,1.4c1,1,1.6,2.3,1.6,3.9c0,1.1-0.3,2.1-0.8,3
	c-0.5,0.9-1.1,1.6-2,2.2c-0.8,0.5-1.7,0.8-2.7,0.8h-6.6V348.1z M143,358.9c-1.2,0.9-2.6,1.3-4.3,1.3h-6.2v-12.2h6.2
	c1.6,0,3.1,0.5,4.3,1.4c1.2,0.9,1.8,2.5,1.8,4.8C144.8,356.4,144.2,358,143,358.9z M545.3,375c-1-1.3-1.7-3-2.2-5
	c-0.5-2-0.7-4.2-0.7-6.8c0-5.1,1-9,2.9-11.7c1-1.3,2.1-2.3,3.5-3c1.4-0.7,3-1,4.9-1c3.7,0,6.5,1.3,8.5,4c1,1.3,1.7,3,2.1,4.9
	c0.5,2,0.7,4.2,0.7,6.8c0,5.1-1,9-2.8,11.7c-1.9,2.7-4.7,4-8.5,4C550.1,379,547.3,377.7,545.3,375z M759.8,375c-1-1.3-1.7-3-2.2-5
	c-0.5-2-0.7-4.2-0.7-6.8c0-5.1,1-9,2.9-11.7c1-1.3,2.1-2.3,3.5-3c1.4-0.7,3-1,4.9-1c3.7,0,6.5,1.3,8.4,4c1,1.3,1.7,3,2.1,4.9
	c0.5,2,0.7,4.2,0.7,6.8c0,5.1-1,9-2.9,11.7c-1.9,2.7-4.7,4-8.4,4C764.5,379,761.8,377.7,759.8,375z M904.5,375c-1-1.3-1.7-3-2.2-5
	c-0.5-2-0.7-4.2-0.7-6.8c0-5.1,1-9,2.9-11.7c1-1.3,2.1-2.3,3.5-3c1.4-0.7,3-1,4.9-1c3.7,0,6.5,1.3,8.5,4c0.9,1.3,1.7,3,2.1,4.9
	c0.5,2,0.7,4.2,0.7,6.8c0,5.1-1,9-2.8,11.7c-1.9,2.7-4.7,4-8.5,4C909.2,379,906.4,377.7,904.5,375z"/>
</svg>
