<svg xmlns="http://www.w3.org/2000/svg" version="1.1" xmlns:xlink="http://www.w3.org/1999/xlink" xmlns:svgjs="http://svgjs.dev/svgjs" width="800" height="1107" viewBox="0 0 800 1107"><g transform="matrix(1,0,0,1,0.4763678944007097,-1.7854838709677097)"><svg viewBox="0 0 112 155" data-background-color="#E06826" preserveAspectRatio="xMidYMid meet" height="1107" width="800" xmlns="http://www.w3.org/2000/svg" xmlns:xlink="http://www.w3.org/1999/xlink"><g id="tight-bounds" transform="matrix(1,0,0,1,-0.06669150521609879,0.25)"><svg viewBox="0 0 112.13338301043218 154.5" height="154.5" width="112.13338301043218"><g><svg viewBox="0 0 112.13338301043218 154.5" height="154.5" width="112.13338301043218"><g><svg viewBox="0 0 112.13338301043218 154.5" height="154.5" width="112.13338301043218"><g id="textblocktransform"><svg viewBox="0 0 112.13338301043218 154.5" height="154.5" width="112.13338301043218" id="textblock"><g><svg viewBox="0 0 112.13338301043218 154.5" height="154.5" width="112.13338301043218"><g transform="matrix(1,0,0,1,0,0)"><svg width="112.13338301043218" viewBox="0.9 -32.95 24.35 33.550000000000004" height="154.5" data-palette-color="#636365"><path d="M15.25-32.95Q20-32.95 24.65-31.2L24.65-31.2 23.05-23.05 21.65-22.45Q19.55-23.75 17.5-24.5 15.45-25.25 14.2-25.25L14.2-25.25Q13.05-25.25 12.38-24.8 11.7-24.35 11.7-23.6L11.7-23.6Q11.7-22.65 12.73-21.98 13.75-21.3 16.15-20.2L16.15-20.2Q18.95-18.95 20.75-17.88 22.55-16.8 23.9-14.93 25.25-13.05 25.25-10.3L25.25-10.3Q25.25-7.25 23.58-4.78 21.9-2.3 18.8-0.85 15.7 0.6 11.6 0.6L11.6 0.6Q6.5 0.6 0.9-1.3L0.9-1.3 2.35-10 3.35-10.6Q5.65-8.85 8.28-7.83 10.9-6.8 12.65-6.8L12.65-6.8Q14.05-6.8 14.68-7.28 15.3-7.75 15.3-8.45L15.3-8.45Q15.3-9.5 14.23-10.23 13.15-10.95 10.75-12L10.75-12Q8-13.2 6.23-14.28 4.45-15.35 3.15-17.23 1.85-19.1 1.85-21.85L1.85-21.85Q1.85-25 3.55-27.53 5.25-30.05 8.3-31.5 11.35-32.95 15.25-32.95L15.25-32.95Z" opacity="1" transform="matrix(1,0,0,1,0,0)" fill="#E06826" class="undefined-text-0" data-fill-palette-color="primary" id="text-0"></path></svg></g></svg></g></svg></g></svg></g><g></g></svg></g><defs></defs></svg><rect width="112.13338301043218" height="154.5" fill="none" stroke="none" visibility="hidden"></rect></g></svg></g></svg>