<?xml version="1.0" encoding="utf-8"?>
<!-- Generator: Adobe Illustrator 19.0.0, SVG Export Plug-In . SVG Version: 6.00 Build 0)  -->
<svg version="1.1" xmlns="http://www.w3.org/2000/svg" xmlns:xlink="http://www.w3.org/1999/xlink" x="0px" y="0px"
	 viewBox="0 0 841.9 240" style="enable-background:new 0 0 841.9 240;" xml:space="preserve">
<style type="text/css">
	.st0{fill:#DF6725;}
	.st1{fill:#FFFFFF;}
	.st2{fill:#DF6825;}
</style>
<g id="Warstwa_3">
</g>
<g id="Warstwa_1">
	<path id="XMLID_30_" class="st0" d="M578.8,93.8c-2-2.6-3.3-6.4-3.3-6.4s1.2-8.3-3.3-11.8c0,0-5-3.8-17.5-6.3
		c-12.5-2.5-25.2-6.3-41.6-7.4c-16.4-1.1-24-2-24-2s-4.8-0.5-10.1-2.8c-5.3-2.3-33.2-17.5-35.6-18.2c-2.4-0.8-12.9-6.1-30.9-6.9
		c-18-0.8-39.7-0.8-44.7-0.4c-5.3,0.4-20.3-0.3-38.2,5.9c0,0-17.4,6.8-21,8.9c-3.6,2.2-13.2,5.7-15.5,6.9
		c-1.5,0.8-28.7,5.3-32.6,5.3c-3.8,0.1-4.4,4.5-5.8,6c-2.2,2.3-8.4,13.6-9.9,17.7c-1.5,4.1-2.3,4.7-2.6,9c-0.3,4.3,0,12.4,0,12.4
		s-1.3,0.6-0.9,2.5c0.4,1.9,3.6,2.7,3.7,2.9c0.1,0.3,27.7,6.7,27.7,6.7l11.9,1.9c0,0-4.7-7.9-1.3-17.2c3.3-9.3,10.5-17.5,22.2-19.8
		c11.7-2.3,18.4,0.9,24.9,4.9c7.5,4.8,9.3,11.4,11.1,22c0,0,0.2,6.7-0.2,10.7l165,0.4c0,0,0-23.4,10.2-30.9c10.2-7.6,25.6-12.2,39,0
		c13.4,12.2,8.7,30.9,8.7,30.9s4.5,2.5,13.4-2.7c0,0-0.2-9.1,2.4-18.5C579.9,97.7,580.9,96.4,578.8,93.8z M315.1,60.9
		c0,0,0-1.3,3.8-5.8c3.8-4.6,17.5-11.5,17.5-11.5s8.5-4.8,26-7.6c17.5-2.8,34.5-1.5,34.5-1.5l6.2,26.5
		C397.6,60.4,315.1,60.9,315.1,60.9z M477.4,64L430,61.8l-26.2-0.8l-0.6-1.3L398,34.4c0,0,26.1,1.8,35.1,4.8c9,3,22.3,9.7,22.3,9.7
		s15,8.3,18.4,10.8c1.8,1.3,3.2,2.5,4,3.3C478.3,63.3,478,64,477.4,64z"/>
	<path id="XMLID_9_" class="st1" d="M406.4,100.4c-0.2,7.5-0.8,12.5-0.8,12.5l-1.8-52c0,0,1.5,12.8,1.8,16.6
		C406.2,83.6,406.7,90.3,406.4,100.4z"/>
	<path id="XMLID_7_" class="st1" d="M529.7,76.4L529.7,76.4c-4.9-0.2-10.1-0.2-14.7-0.2c-3.8,0-5.1,0.1-5.2,0.1l-196-0.1
		c-0.3,0.1-0.7,0.1-1,0.2c-10.2,1.6-13.7,1.8-16,2.4c0,0,0,0,0,0c-1.5,0.4-2.5,1-4.4,2.3c0,0,0,0-0.1,0c-0.4,0.3-0.9,0.6-1.4,0.9
		c-0.1,0-0.2,0.1-0.2,0.2c-1.4,1.1-0.4,3.2,1.5,5.1c1,1,2.2,2,3.6,2.9c4-3,9-4.8,14.4-4.8c2.9,0,5.7,0.5,8.3,1.5h209.2
		c0.2,0,0.3,0.1,0.4,0.4c1.4-0.3,2.9-0.4,4.4-0.4c3.3,0,6.4,0.6,9.2,1.8l1.9-1.7c2.1-2,3-3.5,3.1-4.8
		C546.6,78.1,538.8,76.8,529.7,76.4z M515.6,112.7c0,0.6,0.5,0,1.4-1.3L515.6,112.7z M329.8,95.7c0.1,0.2,0.2,0.3,0.3,0.5
		c1.3,0.4,2.1,0.4,2.1-0.2L329.8,95.7z"/>
	<path id="XMLID_22_" class="st1" d="M333.7,86.8c-5.3-5.8-12.7-9.7-21-10.5c-1.1-0.1-2.2-0.2-3.3-0.2c-4.5,0-8.8,0.9-12.7,2.5
		c0,0,0,0,0,0c-1.5,0.6-3,1.4-4.4,2.3c0,0,0,0-0.1,0c-0.4,0.3-0.9,0.6-1.4,0.9c-0.1,0-0.2,0.1-0.2,0.2c-8.6,6-14.2,15.9-14.2,27.2
		c0,2.5,0.3,4.9,0.8,7.2v0c3.3,14.8,16.5,25.9,32.3,25.9c15.1,0,27.9-10.2,31.8-24.1v0c0,0,0,0,0,0c0.8-2.9,1.3-5.9,1.3-9
		C342.5,100.6,339.2,92.7,333.7,86.8z M310,133.7c-13.4,0-24.2-10.8-24.2-24.2c0-7.9,3.8-15,9.7-19.4c4-3,9-4.8,14.4-4.8
		c2.9,0,5.7,0.5,8.3,1.5c4.7,1.7,8.8,4.9,11.6,8.9c0.1,0.2,0.2,0.3,0.3,0.5c2.5,3.8,4,8.4,4,13.3C334.2,122.9,323.3,133.7,310,133.7
		z"/>
	<path id="XMLID_21_" class="st1" d="M517,111.4c-0.8,1.3-1.4,1.9-1.4,1.3L517,111.4z"/>
	<path id="XMLID_39_" class="st1" d="M532.2,76.3c-0.9,0-1.7,0-2.6,0.1h0c-8.5,0.7-16.1,4.5-21.6,10.4c-5.5,5.9-8.9,13.9-8.9,22.6
		c0,3.3,0.5,6.4,1.4,9.4c4,13.7,16.7,23.8,31.8,23.8c15.7,0,28.8-10.9,32.2-25.6c0,0,0,0,0,0c0.6-2.4,0.9-4.9,0.9-7.5
		C565.3,91.1,550.5,76.3,532.2,76.3z M532.2,135.2c-13.4,0-24.2-10.8-24.2-24.2c0-11.9,8.5-21.7,19.8-23.8c1.4-0.3,2.9-0.4,4.4-0.4
		c3.3,0,6.4,0.6,9.2,1.8c8.8,3.6,15,12.3,15,22.4C556.4,124.4,545.6,135.2,532.2,135.2z"/>
	<path id="XMLID_19_" class="st0" d="M517,111.4c-0.8,1.3-1.4,1.9-1.4,1.3L517,111.4z"/>
	<g id="XMLID_68_">
		<path id="o-0" class="st1" d="M15,156h812c4.6,0,8.3,0.9,8.3,2l0,0c0,1.1-3.7,2-8.3,2H15c-4.6,0-8.3-0.9-8.3-2l0,0
			C6.7,156.8,10.4,156,15,156z"/>
	</g>
	<g id="XMLID_23_">
		<path id="XMLID_109_" class="st1" d="M24.8,213.9L24.8,213.9c-3.5,0-6.6-0.6-9.2-1.7s-4.7-2.7-6.3-4.7l0,0l5.2-5.8
			c1.5,1.7,3.2,2.9,5,3.7c1.8,0.8,3.7,1.2,5.6,1.2l0,0c2.2,0,3.8-0.5,4.9-1.5s1.7-2.3,1.7-4.2l0,0c0-1.5-0.4-2.6-1.3-3.4
			s-2.3-1.3-4.4-1.6l0,0l-4.4-0.7c-3.8-0.6-6.5-2-8.2-4.2c-1.7-2.1-2.5-4.7-2.5-7.9l0,0c0-4,1.3-7.2,3.9-9.4
			c2.7-2.2,6.4-3.3,11.1-3.3l0,0c3.2,0,6.1,0.5,8.5,1.5c2.4,1,4.4,2.4,5.8,4.1l0,0l-5.1,5.7c-1.1-1.2-2.5-2.2-3.9-2.9
			c-1.5-0.7-3.2-1-5.2-1l0,0c-4,0-6.1,1.7-6.1,5l0,0c0,1.5,0.5,2.5,1.4,3.2c0.9,0.7,2.4,1.2,4.4,1.6l0,0l4.4,0.8
			c3.4,0.6,6,1.9,7.9,3.9c1.8,2,2.8,4.6,2.8,7.9l0,0c0,2-0.3,3.8-1,5.4c-0.7,1.7-1.7,3.1-3.1,4.3c-1.4,1.2-3,2.2-5,2.9
			C29.8,213.6,27.4,213.9,24.8,213.9z"/>
		<path id="XMLID_63_" class="st1" d="M76.3,179c-0.5-1.7-1.4-3-2.5-4.2c-1.1-1.2-2.5-2.1-4.1-2.7c-1.6-0.6-3.4-0.9-5.5-0.9H48.1v42
			h9.1v-15.3h7.1c2,0,3.9-0.3,5.5-1c1.6-0.6,3-1.5,4.1-2.7s2-2.6,2.5-4.2c0.6-1.7,0.8-3.5,0.8-5.5S76.9,180.7,76.3,179z M67.7,185.5
			c0,1.8-0.4,3.2-1.2,3.9s-2.3,1.2-4.4,1.2h-4.9v-12.1H62c2.1,0,3.6,0.4,4.4,1.2s1.2,2.1,1.2,3.9V185.5z"/>
		<path id="XMLID_60_" class="st1" d="M105.8,196.4c2.4-0.7,4.2-2.1,5.5-4.2c0.6-1.1,1.1-2.2,1.5-3.5c0.3-1.3,0.5-2.7,0.5-4.2
			c0-2-0.3-3.9-0.8-5.5c-0.6-1.7-1.4-3-2.5-4.2c-1.1-1.2-2.5-2.1-4.1-2.7c-1.6-0.6-3.4-0.9-5.4-0.9H84.2v42h8.9v-15.6h4.2l7,15.6
			h9.9L105.8,196.4z M103.9,185.5c0,1.8-0.4,3.2-1.2,3.9s-2.3,1.2-4.4,1.2h-5.2v-12.1h5.2c2.1,0,3.6,0.4,4.4,1.2s1.2,2.1,1.2,3.9
			V185.5z"/>
		<polygon id="XMLID_104_" class="st1" points="148.8,205.8 148.8,213.2 118.5,213.2 118.5,205.3 138.1,178.6 119.1,178.6 
			119.1,171.2 148.2,171.2 148.2,179.1 128.6,205.8 		"/>
		<polygon id="XMLID_103_" class="st1" points="183.3,213.2 156.5,213.2 156.5,171.2 183.3,171.2 183.3,178.6 165.5,178.6 
			165.5,188.2 182.7,188.2 182.7,195.6 165.5,195.6 165.5,205.8 183.3,205.8 		"/>
		<path id="XMLID_55_" class="st1" d="M217.7,176.6c-2.7-3.6-6.9-5.4-12.6-5.4h-13.5v42h13.5c5.7,0,9.9-1.8,12.6-5.4
			c1.4-1.8,2.4-4,3.1-6.6c0.7-2.6,1-5.6,1-9C221.8,185.4,220.5,180.2,217.7,176.6z M212.3,196c0,3.3-0.6,5.8-1.9,7.5
			c-1.2,1.7-3.2,2.6-5.9,2.6h-4v-27.8h4c2.7,0,4.7,0.9,5.9,2.6s1.9,4.2,1.9,7.4V196z"/>
		<path id="XMLID_52_" class="st1" d="M248.3,171.2h-12.8l-11.3,42h9.1l2.6-10.1h11.5l2.7,10.1h9.6L248.3,171.2z M237.3,195.8
			l4.1-15.9h0.5l4.1,15.9H237.3z"/>
		<polygon id="XMLID_98_" class="st1" points="285.8,213.2 285.8,194.5 286.3,182.8 285.7,182.8 277.9,204.3 270.1,182.8 
			269.6,182.8 270.1,194.5 270.1,213.2 262.3,213.2 262.3,171.2 272.9,171.2 278.1,185.3 278.6,185.3 283.7,171.2 293.6,171.2 
			293.6,213.2 		"/>
		<polygon id="XMLID_97_" class="st1" points="330.6,178.6 318.5,178.6 318.5,213.2 309.5,213.2 309.5,178.6 297.4,178.6 
			297.4,171.2 330.6,171.2 		"/>
		<polygon id="XMLID_96_" class="st1" points="346.7,213.2 335.3,213.2 332.7,171.2 340.5,171.2 341.7,196.4 342,204.3 342.6,204.3 
			346.2,180.4 354.3,180.4 357.9,204.3 358.4,204.3 358.8,196.6 360,171.2 367.5,171.2 364.9,213.2 353.4,213.2 350.4,190 
			349.8,190 		"/>
		<path id="XMLID_46_" class="st1" d="M398.6,176.2c-1.3-1.9-3-3.3-5.1-4.3s-4.5-1.4-7.3-1.4c-5.6,0-9.8,1.9-12.4,5.7
			c-1.3,1.9-2.3,4.2-3,6.9s-1,5.7-1,9.1c0,6.9,1.3,12.2,4,16s6.8,5.7,12.4,5.7c5.6,0,9.8-1.9,12.4-5.7c1.3-1.9,2.3-4.2,3-6.9
			s1-5.7,1-9.1C402.6,185.3,401.2,180,398.6,176.2z M393,195.8c0,3.4-0.5,6.1-1.5,8c-1,1.9-2.7,2.9-5.3,2.9c-2.6,0-4.4-1-5.3-2.9
			c-1-1.9-1.5-4.5-1.5-7.9v-7.4c0-3.4,0.5-6,1.5-7.9c0.5-1,1.2-1.7,2.1-2.1c0.9-0.5,2-0.7,3.2-0.7c2.6,0,4.3,1,5.3,2.9
			c1,1.9,1.5,4.5,1.5,7.9V195.8z"/>
		<path id="XMLID_93_" class="st1" d="M411.9,171.2h23v30.3c0,1.9-0.3,3.6-1,5.2c-0.7,1.5-1.6,2.9-2.8,3.9c-1.2,1.1-2.7,1.9-4.4,2.5
			c-1.7,0.6-3.7,0.9-5.8,0.9l0,0c-4.3,0-7.6-1.1-9.9-3.2c-2.4-2.1-3.8-4.9-4.5-8.4l0,0l8.5-1.7c0.3,1.8,0.9,3.3,1.8,4.4
			c0.9,1.1,2.2,1.7,4,1.7l0,0c1.5,0,2.7-0.5,3.6-1.5c0.9-1,1.3-2.5,1.3-4.5l0,0v-21.9h-13.8L411.9,171.2L411.9,171.2z"/>
		<path id="XMLID_92_" class="st2" d="M457.6,213.9L457.6,213.9c-3.5,0-6.6-0.6-9.2-1.7c-2.6-1.2-4.7-2.7-6.3-4.7l0,0l5.2-5.8
			c1.5,1.7,3.2,2.9,5,3.7c1.8,0.8,3.7,1.2,5.6,1.2l0,0c2.2,0,3.8-0.5,4.9-1.5c1.1-1,1.7-2.3,1.7-4.2l0,0c0-1.5-0.4-2.6-1.3-3.4
			c-0.9-0.7-2.3-1.3-4.4-1.6l0,0l-4.4-0.7c-3.8-0.6-6.5-2-8.2-4.2c-1.7-2.1-2.5-4.7-2.5-7.9l0,0c0-4,1.3-7.2,3.9-9.4
			c2.7-2.2,6.4-3.3,11.1-3.3l0,0c3.2,0,6.1,0.5,8.5,1.5s4.4,2.4,5.8,4.1l0,0l-5.1,5.7c-1.1-1.2-2.5-2.2-3.9-2.9
			c-1.5-0.7-3.2-1-5.2-1l0,0c-4,0-6.1,1.7-6.1,5l0,0c0,1.5,0.5,2.5,1.4,3.2c0.9,0.7,2.4,1.2,4.4,1.6l0,0l4.4,0.8
			c3.4,0.6,6,1.9,7.9,3.9c1.8,2,2.8,4.6,2.8,7.9l0,0c0,2-0.3,3.8-1,5.4c-0.7,1.7-1.7,3.1-3.1,4.3c-1.4,1.2-3,2.2-5,2.9
			C462.6,213.6,460.3,213.9,457.6,213.9z"/>
		<path id="XMLID_41_" class="st2" d="M500.7,171.2H488l-11.3,42h9.1l2.6-10.1h11.5l2.7,10.1h9.6L500.7,171.2z M489.8,195.8
			l4.1-15.9h0.5l4.1,15.9H489.8z"/>
		<polygon id="XMLID_89_" class="st2" points="538.3,213.2 538.3,194.5 538.8,182.8 538.3,182.8 530.5,204.3 522.6,182.8 
			522.1,182.8 522.6,194.5 522.6,213.2 514.8,213.2 514.8,171.2 525.4,171.2 530.5,185.3 531,185.3 536.2,171.2 546.1,171.2 
			546.1,213.2 		"/>
		<path id="XMLID_37_" class="st2" d="M578.9,176.2c-1.3-1.9-3-3.3-5.1-4.3c-2.1-1-4.5-1.4-7.3-1.4c-5.6,0-9.7,1.9-12.4,5.7
			c-1.3,1.9-2.3,4.2-3,6.9c-0.7,2.7-1,5.7-1,9.1c0,6.9,1.3,12.2,4,16c2.7,3.8,6.8,5.7,12.4,5.7c5.6,0,9.8-1.9,12.4-5.7
			c1.3-1.9,2.3-4.2,3-6.9s1-5.7,1-9.1C582.9,185.3,581.6,180,578.9,176.2z M573.3,195.8c0,3.4-0.5,6.1-1.5,8c-1,1.9-2.8,2.9-5.3,2.9
			c-2.6,0-4.3-1-5.3-2.9c-1-1.9-1.5-4.5-1.5-7.9v-7.4c0-3.4,0.5-6,1.5-7.9c0.5-1,1.2-1.7,2.1-2.1c0.9-0.5,2-0.7,3.2-0.7
			c2.6,0,4.3,1,5.3,2.9c1,1.9,1.5,4.5,1.5,7.9V195.8z"/>
		<path id="XMLID_86_" class="st2" d="M603.5,213.9L603.5,213.9c-5.6,0-9.8-1.9-12.5-5.7c-2.7-3.8-4.1-9.1-4.1-16l0,0
			c0-6.9,1.4-12.2,4.1-16c2.7-3.8,6.9-5.7,12.5-5.7l0,0c2.2,0,4.1,0.3,5.7,0.9s3.1,1.4,4.3,2.4s2.2,2.3,3,3.8c0.8,1.5,1.4,3.2,1.8,5
			l0,0l-8.4,2c-0.2-1-0.5-1.9-0.8-2.8c-0.3-0.8-0.7-1.6-1.2-2.2c-0.5-0.6-1.1-1.1-1.9-1.4c-0.7-0.3-1.6-0.5-2.7-0.5l0,0
			c-2.5,0-4.2,1-5.2,2.9s-1.5,4.5-1.5,7.9l0,0v7.3c0,3.4,0.5,6,1.5,7.9c1,1.9,2.7,2.9,5.2,2.9l0,0c2.1,0,3.6-0.6,4.5-1.9
			c1-1.3,1.6-2.9,2.1-4.9l0,0l8.4,2c-0.5,1.8-1,3.5-1.8,5c-0.8,1.5-1.8,2.7-3,3.8c-1.2,1.1-2.6,1.9-4.3,2.5
			C607.6,213.6,605.7,213.9,603.5,213.9z"/>
		<polygon id="XMLID_85_" class="st2" points="643.9,213.2 643.9,195.6 633.4,195.6 633.4,213.2 624.3,213.2 624.3,171.2 
			633.4,171.2 633.4,188.2 643.9,188.2 643.9,171.2 653,171.2 653,213.2 		"/>
		<path id="XMLID_32_" class="st2" d="M687.1,176.2c-1.3-1.9-3-3.3-5.1-4.3c-2.1-1-4.5-1.4-7.3-1.4c-5.6,0-9.8,1.9-12.4,5.7
			c-1.3,1.9-2.3,4.2-3,6.9c-0.7,2.7-1,5.7-1,9.1c0,6.9,1.3,12.2,4,16c2.7,3.8,6.8,5.7,12.4,5.7s9.8-1.9,12.4-5.7
			c1.3-1.9,2.3-4.2,3-6.9s1-5.7,1-9.1C691.1,185.3,689.8,180,687.1,176.2z M681.5,195.8c0,3.4-0.5,6.1-1.5,8c-1,1.9-2.7,2.9-5.3,2.9
			c-2.6,0-4.3-1-5.3-2.9c-1-1.9-1.5-4.5-1.5-7.9v-7.4c0-3.4,0.5-6,1.5-7.9c0.5-1,1.2-1.7,2.1-2.1c0.9-0.5,2-0.7,3.2-0.7
			c2.6,0,4.3,1,5.3,2.9c1,1.9,1.5,4.5,1.5,7.9V195.8z"/>
		<path id="XMLID_29_" class="st2" d="M722.7,176.6c-2.7-3.6-6.9-5.4-12.6-5.4h-13.5v42h13.5c5.7,0,9.9-1.8,12.6-5.4
			c1.4-1.8,2.4-4,3.1-6.6c0.7-2.6,1-5.6,1-9C726.8,185.4,725.4,180.2,722.7,176.6z M717.3,196c0,3.3-0.6,5.8-1.9,7.5
			c-1.2,1.7-3.2,2.6-5.9,2.6h-4v-27.8h4c2.7,0,4.7,0.9,5.9,2.6c1.2,1.7,1.9,4.2,1.9,7.4V196z"/>
		<path id="XMLID_80_" class="st1" d="M746.9,213.9L746.9,213.9c-2.2,0-3.9-0.5-4.9-1.5c-1-1-1.5-2.2-1.5-3.5l0,0v-2.1
			c0-1.4,0.5-2.5,1.5-3.5c1-1,2.6-1.5,4.9-1.5l0,0c2.2,0,3.9,0.5,4.8,1.5c1,1,1.5,2.2,1.5,3.5l0,0v2.1c0,1.4-0.5,2.5-1.5,3.5
			C750.7,213.4,749.1,213.9,746.9,213.9z"/>
		<path id="XMLID_25_" class="st1" d="M797.7,179c-0.6-1.7-1.4-3-2.5-4.2c-1.1-1.2-2.5-2.1-4.1-2.7c-1.6-0.6-3.4-0.9-5.5-0.9h-16.2
			v42h9.1v-15.3h7.1c2,0,3.9-0.3,5.5-1c1.6-0.6,3-1.5,4.1-2.7s2-2.6,2.5-4.2c0.5-1.7,0.8-3.5,0.8-5.5S798.3,180.7,797.7,179z
			 M789.1,185.5c0,1.8-0.4,3.2-1.2,3.9s-2.3,1.2-4.4,1.2h-4.9v-12.1h4.9c2.1,0,3.6,0.4,4.4,1.2c0.8,0.8,1.2,2.1,1.2,3.9V185.5z"/>
		<polygon id="XMLID_77_" class="st1" points="833.6,213.2 806.5,213.2 806.5,171.2 815.6,171.2 815.6,205.8 833.6,205.8 		"/>
	</g>
	<g id="XMLID_13_">
		<rect id="XMLID_71_" x="589.6" y="139.7" class="st1" width="86.1" height="3.9"/>
		<rect id="XMLID_2_" x="166.2" y="139.7" class="st1" width="86.1" height="3.9"/>
	</g>
</g>
</svg>
