<?xml version="1.0" encoding="utf-8"?>
<!-- Generator: Adobe Illustrator 19.0.0, SVG Export Plug-In . SVG Version: 6.00 Build 0)  -->
<svg version="1.1" id="icon-0" xmlns:svgjs="http://svgjs.dev/svgjs"
	 xmlns="http://www.w3.org/2000/svg" xmlns:xlink="http://www.w3.org/1999/xlink" x="0px" y="0px" viewBox="579 109.3 2000 378"
	 style="enable-background:new 579 109.3 2000 378;" xml:space="preserve">
<style type="text/css">
	.st0{fill:#FFFFFF;}
	.st1{fill:#DF6825;}
</style>
<g>
	<path id="o-0" class="st0" d="M602.2,351.5h1953.6c11,0,19.9,2.1,19.9,4.7l0,0c0,2.6-8.9,4.7-19.9,4.7H602.2
		c-11,0-19.9-2.1-19.9-4.7l0,0C582.3,353.6,591.2,351.5,602.2,351.5z"/>
</g>
<g>
	<path class="st0" d="M625.9,490.9L625.9,490.9c-8.5,0-15.9-1.4-22.1-4.2s-11.3-6.6-15.2-11.4l0,0l12.6-13.9c3.7,4.1,7.7,7,12.1,9
		c4.4,1.9,8.8,2.9,13.4,2.9l0,0c5.2,0,9.2-1.2,11.9-3.5s4.1-5.6,4.1-10l0,0c0-3.6-1-6.3-3.1-8.1c-2.1-1.8-5.6-3.1-10.5-3.9l0,0
		l-10.6-1.7c-9.1-1.5-15.6-4.9-19.7-10.1c-4.1-5.1-6.1-11.4-6.1-18.9l0,0c0-9.7,3.2-17.3,9.5-22.7c6.4-5.3,15.3-8,26.8-8l0,0
		c7.8,0,14.6,1.2,20.4,3.6c5.8,2.4,10.5,5.7,14,9.8l0,0l-12.3,13.7c-2.7-3-5.9-5.3-9.5-7c-3.7-1.7-7.8-2.5-12.4-2.5l0,0
		c-9.7,0-14.6,4-14.6,12l0,0c0,3.5,1.1,6.1,3.3,7.8c2.2,1.7,5.7,3,10.6,3.9l0,0l10.6,1.9c8.2,1.4,14.5,4.5,18.9,9.3
		c4.4,4.7,6.7,11.1,6.7,19.1l0,0c0,4.7-0.8,9.1-2.5,13.1c-1.6,4-4.1,7.5-7.4,10.4c-3.3,3-7.3,5.2-12.1,6.9
		C637.8,490.1,632.2,490.9,625.9,490.9z"/>
	<path class="st0" d="M749.8,407c-1.3-4-3.3-7.3-6-10.1c-2.6-2.8-5.9-5-9.8-6.5c-3.9-1.5-8.3-2.2-13.2-2.2h-39v101h21.8v-36.7h17.2
		c4.9,0,9.3-0.8,13.2-2.3s7.1-3.6,9.8-6.4s4.7-6.2,6-10.1c1.4-4,2-8.4,2-13.3S751.2,411,749.8,407z M729,422.5c0,4.4-1,7.6-3,9.5
		s-5.5,2.9-10.6,2.9h-11.7v-29.2h11.7c5.1,0,8.6,1,10.6,2.9s3,5.1,3,9.5V422.5z"/>
	<path class="st0" d="M820.8,448.8c5.7-1.6,10.1-5,13.2-10.1c1.5-2.6,2.7-5.4,3.5-8.4c0.8-3.1,1.2-6.4,1.2-10c0-4.9-0.7-9.4-2-13.3
		c-1.4-4-3.4-7.3-6-10.1c-2.7-2.8-5.9-5-9.8-6.5c-3.9-1.5-8.2-2.2-13.1-2.2h-39.1v101h21.4v-37.5h10l16.9,37.5h23.7L820.8,448.8z
		 M816.1,422.5c0,4.4-1,7.6-3,9.5s-5.5,2.9-10.6,2.9h-12.4v-29.2h12.4c5.1,0,8.6,1,10.6,2.9s3,5.1,3,9.5V422.5z"/>
	<polygon class="st0" points="924.1,471.4 924.1,489.2 851.3,489.2 851.3,470.2 898.4,406 852.8,406 852.8,388.2 922.7,388.2 
		922.7,407.2 875.6,471.4 	"/>
	<polygon class="st0" points="1007.3,489.2 942.8,489.2 942.8,388.2 1007.3,388.2 1007.3,406 964.5,406 964.5,429.2 1005.8,429.2 
		1005.8,446.9 964.5,446.9 964.5,471.4 1007.3,471.4 	"/>
	<path class="st0" d="M1090,401.2c-6.6-8.7-16.6-13-30.2-13h-32.6v101h32.6c13.6,0,23.7-4.3,30.2-13c3.3-4.3,5.7-9.6,7.4-15.9
		c1.6-6.2,2.5-13.4,2.5-21.6C1099.9,422.4,1096.6,409.9,1090,401.2z M1077,447.8c0,7.9-1.5,13.9-4.5,18.1c-3,4.1-7.7,6.2-14.2,6.2
		h-9.7v-66.8h9.7c6.5,0,11.2,2.1,14.2,6.2s4.5,10.1,4.5,17.9V447.8z"/>
	<path class="st0" d="M1163.5,388.2h-30.7l-27.3,101h22l6.2-24.3h27.6l6.4,24.3h23.2L1163.5,388.2z M1137.2,447.4l9.8-38.2h1.1
		l9.8,38.2H1137.2z"/>
	<polygon class="st0" points="1253.9,489.2 1253.9,444.2 1255,416 1253.7,416 1234.9,467.9 1216.1,416 1214.8,416 1216,444.2 
		1216,489.2 1197.2,489.2 1197.2,388.2 1222.8,388.2 1235.2,422.2 1236.4,422.2 1248.8,388.2 1272.7,388.2 1272.7,489.2 	"/>
	<polygon class="st0" points="1361.7,406 1332.6,406 1332.6,489.2 1310.9,489.2 1310.9,406 1281.8,406 1281.8,388.2 1361.7,388.2 	
		"/>
	<polygon class="st0" points="1400.4,489.2 1372.9,489.2 1366.7,388.2 1385.4,388.2 1388.3,448.7 1389.1,467.8 1390.4,467.8 
		1399.1,410.2 1418.6,410.2 1427.3,467.8 1428.6,467.8 1429.5,449.3 1432.4,388.2 1450.3,388.2 1444.1,489.2 1416.6,489.2 
		1409.2,433.5 1407.8,433.5 	"/>
	<path class="st0" d="M1525.2,400.2c-3.2-4.6-7.3-8-12.3-10.3s-10.8-3.4-17.6-3.4c-13.5,0-23.5,4.6-29.9,13.8
		c-3.2,4.6-5.6,10.1-7.2,16.5c-1.6,6.4-2.4,13.7-2.4,22c0,16.5,3.2,29.3,9.6,38.5c6.4,9.2,16.4,13.7,29.9,13.7s23.5-4.6,29.8-13.7
		c3.2-4.6,5.6-10.1,7.2-16.5c1.6-6.4,2.4-13.8,2.4-22C1534.8,422.2,1531.6,409.4,1525.2,400.2z M1511.7,447.4
		c0,8.2-1.2,14.6-3.6,19.2c-2.3,4.6-6.6,6.9-12.8,6.9s-10.5-2.3-12.8-6.9c-2.4-4.6-3.5-10.9-3.5-19v-17.7c0-8.1,1.2-14.5,3.5-19
		c1.2-2.3,2.8-4,5-5.1c2.1-1.1,4.8-1.7,7.8-1.7c6.2,0,10.4,2.3,12.8,6.9c2.4,4.6,3.6,10.9,3.6,19V447.4z"/>
	<path class="st0" d="M1557.3,388.2h55.3V461c0,4.5-0.8,8.7-2.4,12.4c-1.6,3.7-3.9,6.9-6.8,9.5c-3,2.6-6.5,4.6-10.6,6
		c-4.1,1.4-8.8,2.1-13.9,2.1l0,0c-10.3,0-18.3-2.6-23.9-7.8c-5.7-5.1-9.2-11.9-10.8-20.3l0,0l20.5-4.2c0.8,4.3,2.2,7.9,4.4,10.6
		s5.4,4.1,9.7,4.1l0,0c3.7,0,6.5-1.2,8.6-3.6c2.1-2.4,3.1-6,3.1-10.9l0,0v-52.8h-33.3v-17.9H1557.3z"/>
	<path class="st1" d="M1667.3,490.9L1667.3,490.9c-8.5,0-15.9-1.4-22.1-4.2c-6.3-2.8-11.3-6.6-15.2-11.4l0,0l12.6-13.9
		c3.7,4.1,7.7,7,12.1,9c4.4,1.9,8.8,2.9,13.4,2.9l0,0c5.2,0,9.2-1.2,11.9-3.5s4.1-5.6,4.1-10l0,0c0-3.6-1-6.3-3.1-8.1
		c-2.1-1.8-5.6-3.1-10.5-3.9l0,0l-10.6-1.7c-9.1-1.5-15.6-4.9-19.7-10.1c-4.1-5.1-6.1-11.4-6.1-18.9l0,0c0-9.7,3.2-17.3,9.5-22.7
		c6.4-5.3,15.3-8,26.8-8l0,0c7.8,0,14.6,1.2,20.4,3.6s10.5,5.7,14,9.8l0,0l-12.3,13.7c-2.7-3-5.9-5.3-9.5-7
		c-3.7-1.7-7.8-2.5-12.4-2.5l0,0c-9.7,0-14.6,4-14.6,12l0,0c0,3.5,1.1,6.1,3.3,7.8c2.2,1.7,5.7,3,10.6,3.9l0,0l10.6,1.9
		c8.2,1.4,14.5,4.5,18.9,9.3c4.4,4.7,6.7,11.1,6.7,19.1l0,0c0,4.7-0.8,9.1-2.5,13.1c-1.6,4-4.1,7.5-7.4,10.4
		c-3.3,3-7.3,5.2-12.1,6.9C1679.2,490.1,1673.6,490.9,1667.3,490.9z"/>
	<path class="st1" d="M1771,388.2h-30.7l-27.3,101h22l6.2-24.3h27.6l6.4,24.3h23.2L1771,388.2z M1744.7,447.4l9.8-38.2h1.2l9.8,38.2
		H1744.7z"/>
	<polygon class="st1" points="1861.4,489.2 1861.4,444.2 1862.6,416 1861.3,416 1842.5,467.9 1823.7,416 1822.4,416 1823.5,444.2 
		1823.5,489.2 1804.7,489.2 1804.7,388.2 1830.3,388.2 1842.7,422.2 1843.9,422.2 1856.3,388.2 1880.2,388.2 1880.2,489.2 	"/>
	<path class="st1" d="M1959.1,400.2c-3.2-4.6-7.3-8-12.3-10.3s-10.8-3.4-17.6-3.4c-13.5,0-23.4,4.6-29.9,13.8
		c-3.2,4.6-5.6,10.1-7.2,16.5c-1.6,6.4-2.4,13.7-2.4,22c0,16.5,3.2,29.3,9.6,38.5c6.4,9.2,16.4,13.7,29.9,13.7s23.5-4.6,29.9-13.7
		c3.2-4.6,5.6-10.1,7.2-16.5c1.6-6.4,2.4-13.8,2.4-22C1968.7,422.2,1965.5,409.4,1959.1,400.2z M1945.6,447.4
		c0,8.2-1.2,14.6-3.5,19.2c-2.4,4.6-6.7,6.9-12.8,6.9c-6.2,0-10.4-2.3-12.8-6.9c-2.4-4.6-3.6-10.9-3.6-19v-17.7
		c0-8.1,1.2-14.5,3.6-19c1.2-2.3,2.8-4,5-5.1c2.1-1.1,4.7-1.7,7.8-1.7c6.2,0,10.4,2.3,12.8,6.9c2.3,4.6,3.5,10.9,3.5,19V447.4z"/>
	<path class="st1" d="M2018.3,490.9L2018.3,490.9c-13.5,0-23.5-4.6-30-13.7s-9.8-21.9-9.8-38.5l0,0c0-16.6,3.3-29.4,9.8-38.6
		c6.5-9.1,16.5-13.7,30-13.7l0,0c5.2,0,9.8,0.7,13.8,2.1s7.4,3.3,10.3,5.8c2.9,2.5,5.3,5.5,7.2,9.1s3.3,7.6,4.4,12l0,0l-20.3,4.9
		c-0.6-2.4-1.3-4.6-2-6.7c-0.8-2-1.8-3.8-3-5.2c-1.2-1.4-2.7-2.6-4.5-3.4s-3.9-1.2-6.5-1.2l0,0c-5.9,0-10,2.3-12.5,6.9
		s-3.7,10.9-3.7,19l0,0v17.6c0,8.1,1.2,14.4,3.7,19c2.4,4.6,6.6,6.9,12.5,6.9l0,0c5,0,8.7-1.5,10.9-4.6c2.3-3.1,3.9-7,5-11.9l0,0
		l20.3,4.9c-1.1,4.4-2.5,8.4-4.4,12s-4.3,6.6-7.2,9.2s-6.3,4.5-10.3,5.9C2028.1,490.2,2023.5,490.9,2018.3,490.9z"/>
	<polygon class="st1" points="2115.5,489.2 2115.5,446.9 2090.1,446.9 2090.1,489.2 2068.2,489.2 2068.2,388.2 2090.1,388.2 
		2090.1,429.2 2115.5,429.2 2115.5,388.2 2137.4,388.2 2137.4,489.2 	"/>
	<path class="st1" d="M2219.5,400.2c-3.2-4.6-7.3-8-12.3-10.3s-10.8-3.4-17.6-3.4c-13.5,0-23.5,4.6-29.9,13.8
		c-3.2,4.6-5.6,10.1-7.2,16.5c-1.6,6.4-2.4,13.7-2.4,22c0,16.5,3.2,29.3,9.6,38.5c6.4,9.2,16.4,13.7,29.9,13.7s23.5-4.6,29.9-13.7
		c3.2-4.6,5.6-10.1,7.2-16.5s2.4-13.8,2.4-22C2229.1,422.2,2225.9,409.4,2219.5,400.2z M2205.9,447.4c0,8.2-1.2,14.6-3.5,19.2
		c-2.4,4.6-6.6,6.9-12.8,6.9s-10.4-2.3-12.8-6.9c-2.4-4.6-3.6-10.9-3.6-19v-17.7c0-8.1,1.2-14.5,3.6-19c1.2-2.3,2.8-4,5-5.1
		c2.1-1.1,4.7-1.7,7.8-1.7c6.2,0,10.4,2.3,12.8,6.9c2.4,4.6,3.5,10.9,3.5,19V447.4z"/>
	<path class="st1" d="M2305,401.2c-6.6-8.7-16.6-13-30.2-13h-32.6v101h32.5c13.6,0,23.7-4.3,30.2-13c3.3-4.3,5.7-9.6,7.4-15.9
		c1.6-6.2,2.5-13.4,2.5-21.6C2314.8,422.4,2311.6,409.9,2305,401.2z M2292,447.8c0,7.9-1.5,13.9-4.5,18.1c-3,4.1-7.7,6.2-14.2,6.2
		h-9.7v-66.8h9.7c6.5,0,11.2,2.1,14.2,6.2s4.5,10.1,4.5,17.9V447.8z"/>
	<path class="st0" d="M2363.2,490.9L2363.2,490.9c-5.4,0-9.3-1.2-11.7-3.6s-3.5-5.2-3.5-8.4l0,0v-5.1c0-3.3,1.2-6.1,3.5-8.4
		c2.4-2.4,6.3-3.6,11.7-3.6l0,0c5.4,0,9.3,1.2,11.6,3.6c2.4,2.4,3.6,5.2,3.6,8.4l0,0v5.1c0,3.3-1.2,6.1-3.6,8.4
		C2372.4,489.7,2368.6,490.9,2363.2,490.9z"/>
	<path class="st0" d="M2485.5,407c-1.4-4-3.4-7.3-6-10.1c-2.7-2.8-5.9-5-9.8-6.5c-3.9-1.5-8.3-2.2-13.2-2.2h-39v101h21.8v-36.7h17.2
		c4.9,0,9.3-0.8,13.2-2.3s7.1-3.6,9.8-6.4s4.7-6.2,6-10.1c1.3-4,2-8.4,2-13.3S2486.9,411,2485.5,407z M2464.7,422.5
		c0,4.4-1,7.6-3,9.5s-5.5,2.9-10.6,2.9h-11.7v-29.2h11.7c5.1,0,8.7,1,10.6,2.9c2,1.9,3,5.1,3,9.5V422.5z"/>
	<polygon class="st0" points="2571.9,489.2 2506.6,489.2 2506.6,388.2 2528.5,388.2 2528.5,471.4 2571.9,471.4 	"/>
</g>
<path class="st0" d="M1365.4,156.4c59.2-24.6,121.7-43.6,186.1-46c16.2-0.4,32.6,0.5,48.2,5c35.6,17.4,72.7,31.9,109.2,47.4
	c26.4,8.7,54.6,5.6,81.9,7.2c16.6,0.8,33.3,2.1,49.8,4.9c12.9,2.3,25,7.8,36,14.7c21.6,6.4,42.2,16.3,60.9,28.8
	c3.2,2.1,6.5,4.8,7.1,8.8c0.5,7-7.9,9.7-9.3,16c-1.3,3.8,4.9,4.4,4,8.1c-1.1,5-6.8,6.8-10.9,8.6c-26.8,9.1-55.3,10.4-83.3,12.6
	c0.1-16.1-2-32.6-9.1-47.2c-8.7-14.6-23.6-26-40.6-28.5c-21.9-3.4-47,1.6-61.9,19.2c-15,17.3-17,41.6-15.7,63.5
	c-88.2,3.7-176.5,9.4-264.7,13.1c0.3-10.6,1-21.5-2-31.7c-3.9-14.4-12.8-27.9-25.9-35.5c-15.9-9.5-35.8-10-53.2-4.8
	c-13.5,4.1-25.3,13.5-31.7,26c-8.9,15.9-8.2,34.7-8.9,52.3c-25.2,0.3-50.3-1.5-75.3-3.7c-11.4-4.6-22.5-10.1-32.6-17.1
	c-4.3-4.6-4.9-11.4-7.1-17.1c-1.6-7.2-5.3-15.1-1-22.1c10.8-19.6,31-31,48.9-43.1c-4.4-0.4-9.8-1-13.1-3.8l0.2-1.7
	c5.2-0.8,10.7,0.9,15.8-0.7c-3.9-7.2-10.2-13.5-15.8-19.6c-4-1.5-8.6-1.3-12.2-3.9c0.1-0.6,0.3-1.7,0.4-2.3
	c10.9-2.3,22.1-2.6,33.2-3.3c7.5-0.4,15.3-1.3,22.5,1.3c0.6,4.7-6.3,3.7-6.5,7.5c3.2,4.1,7,7.8,11.3,10.7c5.6-1.5,10.9-4,16.7-5
	C1333.4,170.2,1349.3,162.8,1365.4,156.4z M1522.1,121.2c-14.9,1.9-30,4-44.6,7.9c6,16.4,12.3,32.8,19.1,48.9
	c56.3-1.1,112.7-3.6,168.9-6.6l-0.4-1.4c-20.5-12-40.4-25.2-61.4-36.3c-11.9-5.9-24-12.3-37.4-13.5
	C1551.6,118.7,1536.8,120.4,1522.1,121.2z M1397.7,155.1c-11.2,5.1-23.3,9.2-32.8,17.2c-2.5,3.8,2.9,5.2,5.5,5.8
	c17,3,34.3,2.1,51.5,2.4c19.3-0.2,38.7-0.4,58-1.1c-5.6-15.6-12.2-30.9-18.2-46.3C1439.8,138.6,1418.6,146.5,1397.7,155.1z"/>
<path class="st1" d="M1769.7,201.9c13.6-3,28.4-0.5,40.1,7.1c13.7,8.3,23,23.4,24.5,39.4c1.5,14-3,28.5-12.1,39.3
	c-12.1,14.6-32.3,21.7-50.9,18.1c-23.2-3.8-42.3-24.5-43.7-48C1724.9,232.1,1744.3,206.6,1769.7,201.9z"/>
<path class="st1" d="M1381,222.1c12.5-2.8,26.1-1.2,37.4,4.9c13.7,7.1,24.1,20.4,27.2,35.6c3,13.7,0.3,28.6-7.5,40.3
	c-8.8,13.6-24.1,22.5-40.2,23.8c-16.2,1.6-33-4.8-44.1-16.8c-12.2-12.8-17-31.9-12.6-48.9C1345.9,241.8,1362,226.5,1381,222.1z"/>
<g>
	<rect x="1984.7" y="312.5" class="st0" width="207.2" height="9.4"/>
	<rect x="966.1" y="312.5" class="st0" width="207.2" height="9.4"/>
</g>
</svg>
