<?xml version="1.0" encoding="utf-8"?>
<!-- Generator: Adobe Illustrator 19.0.0, SVG Export Plug-In . SVG Version: 6.00 Build 0)  -->
<svg version="1.1" id="icon-0" xmlns:svgjs="http://svgjs.dev/svgjs"
	 xmlns="http://www.w3.org/2000/svg" xmlns:xlink="http://www.w3.org/1999/xlink" x="0px" y="0px" viewBox="579 109.3 2000 378"
	 style="enable-background:new 579 109.3 2000 378;" xml:space="preserve">
<style type="text/css">
	.st0{fill:#FFFFFF;}
	.st1{fill:#DF6825;}
	.st2{fill:none;}
</style>
<g>
	<path id="o-0" class="st0" d="M601,350.4h1953.6c11,0,19.9,2.1,19.9,4.7l0,0c0,2.6-8.9,4.7-19.9,4.7H601c-11,0-19.9-2.1-19.9-4.7
		l0,0C581.1,352.5,590,350.4,601,350.4z"/>
</g>
<g>
	<path class="st0" d="M624.7,489.8L624.7,489.8c-8.5,0-15.9-1.4-22.1-4.2s-11.3-6.6-15.2-11.4l0,0l12.6-13.9c3.7,4.1,7.7,7,12.1,9
		c4.4,1.9,8.8,2.9,13.4,2.9l0,0c5.2,0,9.2-1.2,11.9-3.5c2.7-2.3,4.1-5.6,4.1-10l0,0c0-3.6-1-6.3-3.1-8.1c-2.1-1.8-5.6-3.1-10.5-3.9
		l0,0l-10.6-1.7c-9.1-1.5-15.6-4.9-19.7-10.1c-4.1-5.1-6.1-11.4-6.1-18.9l0,0c0-9.7,3.2-17.3,9.5-22.7c6.4-5.3,15.3-8,26.8-8l0,0
		c7.8,0,14.6,1.2,20.4,3.6c5.8,2.4,10.5,5.7,14,9.8l0,0l-12.3,13.7c-2.7-3-5.9-5.3-9.5-7c-3.7-1.7-7.8-2.5-12.4-2.5l0,0
		c-9.7,0-14.6,4-14.6,12l0,0c0,3.5,1.1,6.1,3.3,7.8c2.2,1.7,5.7,3,10.6,3.9l0,0l10.6,1.9c8.2,1.4,14.5,4.5,18.9,9.3
		c4.4,4.7,6.7,11.1,6.7,19.1l0,0c0,4.7-0.8,9.1-2.5,13.1c-1.6,4-4.1,7.5-7.4,10.4c-3.3,3-7.3,5.2-12.1,6.9
		C636.6,489,631,489.8,624.7,489.8z"/>
	<path class="st0" d="M748.6,405.9c-1.3-4-3.3-7.3-6-10.1c-2.6-2.8-5.9-5-9.8-6.5c-3.9-1.5-8.3-2.2-13.2-2.2h-39v101h21.8v-36.7
		h17.2c4.9,0,9.3-0.8,13.2-2.3c3.9-1.5,7.1-3.6,9.8-6.4c2.7-2.8,4.7-6.2,6-10.1c1.4-4,2-8.4,2-13.3S750,409.9,748.6,405.9z
		 M727.8,421.4c0,4.4-1,7.6-3,9.5c-2,1.9-5.5,2.9-10.6,2.9h-11.7v-29.2h11.7c5.1,0,8.6,1,10.6,2.9c2,1.9,3,5.1,3,9.5V421.4z"/>
	<path class="st0" d="M819.6,447.7c5.7-1.6,10.1-5,13.2-10.1c1.5-2.6,2.7-5.4,3.5-8.4c0.8-3.1,1.2-6.4,1.2-10c0-4.9-0.7-9.4-2-13.3
		c-1.4-4-3.4-7.3-6-10.1c-2.7-2.8-5.9-5-9.8-6.5c-3.9-1.5-8.2-2.2-13.1-2.2h-39.1v101h21.4v-37.5h10l16.9,37.5h23.7L819.6,447.7z
		 M814.9,421.4c0,4.4-1,7.6-3,9.5c-2,1.9-5.5,2.9-10.6,2.9h-12.4v-29.2h12.4c5.1,0,8.6,1,10.6,2.9c2,1.9,3,5.1,3,9.5V421.4z"/>
	<polygon class="st0" points="922.9,470.3 922.9,488.1 850.1,488.1 850.1,469.1 897.2,404.9 851.6,404.9 851.6,387.1 921.5,387.1 
		921.5,406.1 874.4,470.3 	"/>
	<polygon class="st0" points="1006.1,488.1 941.6,488.1 941.6,387.1 1006.1,387.1 1006.1,404.9 963.3,404.9 963.3,428.1 
		1004.6,428.1 1004.6,445.8 963.3,445.8 963.3,470.3 1006.1,470.3 	"/>
	<path class="st0" d="M1088.8,400.1c-6.6-8.7-16.6-13-30.2-13H1026v101h32.6c13.6,0,23.7-4.3,30.2-13c3.3-4.3,5.7-9.6,7.4-15.9
		c1.6-6.2,2.5-13.4,2.5-21.6C1098.7,421.3,1095.4,408.8,1088.8,400.1z M1075.8,446.7c0,7.9-1.5,13.9-4.5,18.1
		c-3,4.1-7.7,6.2-14.2,6.2h-9.7v-66.8h9.7c6.5,0,11.2,2.1,14.2,6.2s4.5,10.1,4.5,17.9V446.7z"/>
	<path class="st0" d="M1162.3,387.1h-30.7l-27.3,101h22l6.2-24.3h27.6l6.4,24.3h23.2L1162.3,387.1z M1136,446.3l9.8-38.2h1.1
		l9.8,38.2H1136z"/>
	<polygon class="st0" points="1252.7,488.1 1252.7,443.1 1253.8,414.9 1252.5,414.9 1233.7,466.8 1214.9,414.9 1213.6,414.9 
		1214.8,443.1 1214.8,488.1 1196,488.1 1196,387.1 1221.6,387.1 1234,421.1 1235.2,421.1 1247.6,387.1 1271.5,387.1 1271.5,488.1 	
		"/>
	<polygon class="st0" points="1360.5,404.9 1331.4,404.9 1331.4,488.1 1309.7,488.1 1309.7,404.9 1280.6,404.9 1280.6,387.1 
		1360.5,387.1 	"/>
	<polygon class="st0" points="1399.2,488.1 1371.7,488.1 1365.5,387.1 1384.2,387.1 1387.1,447.6 1387.9,466.7 1389.2,466.7 
		1397.9,409.1 1417.4,409.1 1426.1,466.7 1427.4,466.7 1428.3,448.2 1431.2,387.1 1449.1,387.1 1442.9,488.1 1415.4,488.1 
		1408,432.4 1406.6,432.4 	"/>
	<path class="st0" d="M1524,399.1c-3.2-4.6-7.3-8-12.3-10.3c-5-2.3-10.8-3.4-17.6-3.4c-13.5,0-23.5,4.6-29.9,13.8
		c-3.2,4.6-5.6,10.1-7.2,16.5c-1.6,6.4-2.4,13.7-2.4,22c0,16.5,3.2,29.3,9.6,38.5c6.4,9.2,16.4,13.7,29.9,13.7s23.5-4.6,29.8-13.7
		c3.2-4.6,5.6-10.1,7.2-16.5c1.6-6.4,2.4-13.8,2.4-22C1533.6,421.1,1530.4,408.3,1524,399.1z M1510.5,446.3c0,8.2-1.2,14.6-3.6,19.2
		c-2.3,4.6-6.6,6.9-12.8,6.9c-6.2,0-10.5-2.3-12.8-6.9c-2.4-4.6-3.5-10.9-3.5-19v-17.7c0-8.1,1.2-14.5,3.5-19c1.2-2.3,2.8-4,5-5.1
		c2.1-1.1,4.8-1.7,7.8-1.7c6.2,0,10.4,2.3,12.8,6.9c2.4,4.6,3.6,10.9,3.6,19V446.3z"/>
	<path class="st0" d="M1556.1,387.1h55.3v72.8c0,4.5-0.8,8.7-2.4,12.4c-1.6,3.7-3.9,6.9-6.8,9.5c-3,2.6-6.5,4.6-10.6,6
		c-4.1,1.4-8.8,2.1-13.9,2.1l0,0c-10.3,0-18.3-2.6-23.9-7.8c-5.7-5.1-9.2-11.9-10.8-20.3l0,0l20.5-4.2c0.8,4.3,2.2,7.9,4.4,10.6
		c2.2,2.7,5.4,4.1,9.7,4.1l0,0c3.7,0,6.5-1.2,8.6-3.6c2.1-2.4,3.1-6,3.1-10.9l0,0v-52.8h-33.3V387.1z"/>
	<path class="st1" d="M1666.1,489.8L1666.1,489.8c-8.5,0-15.9-1.4-22.1-4.2c-6.3-2.8-11.3-6.6-15.2-11.4l0,0l12.6-13.9
		c3.7,4.1,7.7,7,12.1,9c4.4,1.9,8.8,2.9,13.4,2.9l0,0c5.2,0,9.2-1.2,11.9-3.5c2.7-2.3,4.1-5.6,4.1-10l0,0c0-3.6-1-6.3-3.1-8.1
		c-2.1-1.8-5.6-3.1-10.5-3.9l0,0l-10.6-1.7c-9.1-1.5-15.6-4.9-19.7-10.1c-4.1-5.1-6.1-11.4-6.1-18.9l0,0c0-9.7,3.2-17.3,9.5-22.7
		c6.4-5.3,15.3-8,26.8-8l0,0c7.8,0,14.6,1.2,20.4,3.6c5.8,2.4,10.5,5.7,14,9.8l0,0l-12.3,13.7c-2.7-3-5.9-5.3-9.5-7
		c-3.7-1.7-7.8-2.5-12.4-2.5l0,0c-9.7,0-14.6,4-14.6,12l0,0c0,3.5,1.1,6.1,3.3,7.8c2.2,1.7,5.7,3,10.6,3.9l0,0l10.6,1.9
		c8.2,1.4,14.5,4.5,18.9,9.3c4.4,4.7,6.7,11.1,6.7,19.1l0,0c0,4.7-0.8,9.1-2.5,13.1c-1.6,4-4.1,7.5-7.4,10.4
		c-3.3,3-7.3,5.2-12.1,6.9C1678,489,1672.4,489.8,1666.1,489.8z"/>
	<path class="st1" d="M1769.8,387.1h-30.7l-27.3,101h22l6.2-24.3h27.6l6.4,24.3h23.2L1769.8,387.1z M1743.5,446.3l9.8-38.2h1.2
		l9.8,38.2H1743.5z"/>
	<polygon class="st1" points="1860.2,488.1 1860.2,443.1 1861.4,414.9 1860.1,414.9 1841.3,466.8 1822.5,414.9 1821.2,414.9 
		1822.3,443.1 1822.3,488.1 1803.5,488.1 1803.5,387.1 1829.1,387.1 1841.5,421.1 1842.7,421.1 1855.1,387.1 1879,387.1 1879,488.1 
			"/>
	<path class="st1" d="M1957.9,399.1c-3.2-4.6-7.3-8-12.3-10.3c-5-2.3-10.8-3.4-17.6-3.4c-13.5,0-23.4,4.6-29.9,13.8
		c-3.2,4.6-5.6,10.1-7.2,16.5c-1.6,6.4-2.4,13.7-2.4,22c0,16.5,3.2,29.3,9.6,38.5c6.4,9.2,16.4,13.7,29.9,13.7s23.5-4.6,29.9-13.7
		c3.2-4.6,5.6-10.1,7.2-16.5s2.4-13.8,2.4-22C1967.5,421.1,1964.3,408.3,1957.9,399.1z M1944.4,446.3c0,8.2-1.2,14.6-3.5,19.2
		c-2.4,4.6-6.7,6.9-12.8,6.9c-6.2,0-10.4-2.3-12.8-6.9c-2.4-4.6-3.6-10.9-3.6-19v-17.7c0-8.1,1.2-14.5,3.6-19c1.2-2.3,2.8-4,5-5.1
		c2.1-1.1,4.7-1.7,7.8-1.7c6.2,0,10.4,2.3,12.8,6.9c2.3,4.6,3.5,10.9,3.5,19V446.3z"/>
	<path class="st1" d="M2017.1,489.8L2017.1,489.8c-13.5,0-23.5-4.6-30-13.7c-6.5-9.1-9.8-21.9-9.8-38.5l0,0
		c0-16.6,3.3-29.4,9.8-38.6c6.5-9.1,16.5-13.7,30-13.7l0,0c5.2,0,9.8,0.7,13.8,2.1c4,1.4,7.4,3.3,10.3,5.8s5.3,5.5,7.2,9.1
		c1.9,3.6,3.3,7.6,4.4,12l0,0l-20.3,4.9c-0.6-2.4-1.3-4.6-2-6.7c-0.8-2-1.8-3.8-3-5.2c-1.2-1.4-2.7-2.6-4.5-3.4
		c-1.8-0.8-3.9-1.2-6.5-1.2l0,0c-5.9,0-10,2.3-12.5,6.9c-2.5,4.6-3.7,10.9-3.7,19l0,0v17.6c0,8.1,1.2,14.4,3.7,19
		c2.4,4.6,6.6,6.9,12.5,6.9l0,0c5,0,8.7-1.5,10.9-4.6c2.3-3.1,3.9-7,5-11.9l0,0l20.3,4.9c-1.1,4.4-2.5,8.4-4.4,12
		c-1.9,3.6-4.3,6.6-7.2,9.2c-2.9,2.6-6.3,4.5-10.3,5.9C2026.9,489.1,2022.3,489.8,2017.1,489.8z"/>
	<polygon class="st1" points="2114.3,488.1 2114.3,445.8 2088.9,445.8 2088.9,488.1 2067,488.1 2067,387.1 2088.9,387.1 
		2088.9,428.1 2114.3,428.1 2114.3,387.1 2136.2,387.1 2136.2,488.1 	"/>
	<path class="st1" d="M2218.3,399.1c-3.2-4.6-7.3-8-12.3-10.3c-5-2.3-10.8-3.4-17.6-3.4c-13.5,0-23.5,4.6-29.9,13.8
		c-3.2,4.6-5.6,10.1-7.2,16.5c-1.6,6.4-2.4,13.7-2.4,22c0,16.5,3.2,29.3,9.6,38.5c6.4,9.2,16.4,13.7,29.9,13.7s23.5-4.6,29.9-13.7
		c3.2-4.6,5.6-10.1,7.2-16.5s2.4-13.8,2.4-22C2227.9,421.1,2224.7,408.3,2218.3,399.1z M2204.7,446.3c0,8.2-1.2,14.6-3.5,19.2
		c-2.4,4.6-6.6,6.9-12.8,6.9c-6.2,0-10.4-2.3-12.8-6.9c-2.4-4.6-3.6-10.9-3.6-19v-17.7c0-8.1,1.2-14.5,3.6-19c1.2-2.3,2.8-4,5-5.1
		c2.1-1.1,4.7-1.7,7.8-1.7c6.2,0,10.4,2.3,12.8,6.9c2.4,4.6,3.5,10.9,3.5,19V446.3z"/>
	<path class="st1" d="M2303.8,400.1c-6.6-8.7-16.6-13-30.2-13H2241v101h32.5c13.6,0,23.7-4.3,30.2-13c3.3-4.3,5.7-9.6,7.4-15.9
		c1.6-6.2,2.5-13.4,2.5-21.6C2313.6,421.3,2310.4,408.8,2303.8,400.1z M2290.8,446.7c0,7.9-1.5,13.9-4.5,18.1
		c-3,4.1-7.7,6.2-14.2,6.2h-9.7v-66.8h9.7c6.5,0,11.2,2.1,14.2,6.2s4.5,10.1,4.5,17.9V446.7z"/>
	<path class="st0" d="M2362,489.8L2362,489.8c-5.4,0-9.3-1.2-11.7-3.6c-2.4-2.4-3.5-5.2-3.5-8.4l0,0v-5.1c0-3.3,1.2-6.1,3.5-8.4
		c2.4-2.4,6.3-3.6,11.7-3.6l0,0c5.4,0,9.3,1.2,11.6,3.6c2.4,2.4,3.6,5.2,3.6,8.4l0,0v5.1c0,3.3-1.2,6.1-3.6,8.4
		C2371.2,488.6,2367.4,489.8,2362,489.8z"/>
	<path class="st0" d="M2484.3,405.9c-1.4-4-3.4-7.3-6-10.1c-2.7-2.8-5.9-5-9.8-6.5c-3.9-1.5-8.3-2.2-13.2-2.2h-39v101h21.8v-36.7
		h17.2c4.9,0,9.3-0.8,13.2-2.3c3.9-1.5,7.1-3.6,9.8-6.4c2.7-2.8,4.7-6.2,6-10.1c1.3-4,2-8.4,2-13.3S2485.7,409.9,2484.3,405.9z
		 M2463.5,421.4c0,4.4-1,7.6-3,9.5c-2,1.9-5.5,2.9-10.6,2.9h-11.7v-29.2h11.7c5.1,0,8.7,1,10.6,2.9c2,1.9,3,5.1,3,9.5V421.4z"/>
	<polygon class="st0" points="2570.7,488.1 2505.4,488.1 2505.4,387.1 2527.3,387.1 2527.3,470.3 2570.7,470.3 	"/>
</g>
<g transform="matrix(1,0,0,1,117.85091683667069,0)">
	<g>
		<path class="st0" d="M1246.3,155.3c59.2-24.6,121.7-43.6,186.1-46c16.2-0.4,32.6,0.5,48.2,5c35.6,17.4,72.7,31.9,109.2,47.4
			c26.4,8.7,54.6,5.6,81.9,7.2c16.6,0.8,33.3,2.1,49.8,4.9c12.9,2.3,25,7.8,36,14.7c21.6,6.4,42.2,16.3,60.9,28.8
			c3.2,2.1,6.5,4.8,7.1,8.8c0.5,7-7.9,9.7-9.3,16c-1.3,3.8,4.9,4.4,4,8.1c-1.1,5-6.8,6.8-10.9,8.6c-26.8,9.1-55.3,10.4-83.3,12.6
			c0.1-16.1-2-32.6-9.1-47.2c-8.7-14.6-23.6-26-40.6-28.5c-21.9-3.4-47,1.6-61.9,19.2c-15,17.3-17,41.6-15.7,63.5
			c-88.2,3.7-176.5,9.4-264.7,13.1c0.3-10.6,1-21.5-2-31.7c-3.9-14.4-12.8-27.9-25.9-35.5c-15.9-9.5-35.8-10-53.2-4.8
			c-13.5,4.1-25.3,13.5-31.7,26c-8.9,15.9-8.2,34.7-8.9,52.3c-25.2,0.3-50.3-1.5-75.3-3.7c-11.4-4.6-22.5-10.1-32.6-17.1
			c-4.3-4.6-4.9-11.4-7.1-17.1c-1.6-7.2-5.3-15.1-1-22.1c10.8-19.6,31-31,48.9-43.1c-4.4-0.4-9.8-1-13.1-3.8l0.2-1.7
			c5.2-0.8,10.7,0.9,15.8-0.7c-3.9-7.2-10.2-13.5-15.8-19.6c-4-1.5-8.6-1.3-12.2-3.9c0.1-0.6,0.3-1.7,0.4-2.3
			c10.9-2.3,22.1-2.6,33.2-3.3c7.5-0.4,15.3-1.3,22.5,1.3c0.6,4.7-6.3,3.7-6.5,7.5c3.2,4.1,7,7.8,11.3,10.7c5.6-1.5,10.9-4,16.7-5
			C1214.3,169.1,1230.2,161.7,1246.3,155.3z M1403,120.1c-14.9,1.9-30,4-44.6,7.9c6,16.4,12.3,32.8,19.1,48.9
			c56.3-1.1,112.7-3.6,168.9-6.6l-0.4-1.4c-20.5-12-40.4-25.2-61.4-36.3c-11.9-5.9-24-12.3-37.4-13.5
			C1432.5,117.6,1417.7,119.3,1403,120.1z M1278.6,154c-11.2,5.1-23.3,9.2-32.8,17.2c-2.5,3.8,2.9,5.2,5.5,5.8
			c17,3,34.3,2.1,51.5,2.4c19.3-0.2,38.7-0.4,58-1.1c-5.6-15.6-12.2-30.9-18.2-46.3C1320.7,137.5,1299.5,145.4,1278.6,154z"/>
		<path class="st0" d="M1650.6,200.8c13.6-3,28.4-0.5,40.1,7.1c13.7,8.3,23,23.4,24.5,39.4c1.5,14-3,28.5-12.1,39.3
			c-12.1,14.6-32.3,21.7-50.9,18.1c-23.2-3.8-42.3-24.5-43.7-48C1605.8,231,1625.2,205.5,1650.6,200.8z"/>
		<path class="st0" d="M1261.9,221c12.5-2.8,26.1-1.2,37.4,4.9c13.7,7.1,24.1,20.4,27.2,35.6c3,13.7,0.3,28.6-7.5,40.3
			c-8.8,13.6-24.1,22.5-40.2,23.8c-16.2,1.6-33-4.8-44.1-16.8c-12.2-12.8-17-31.9-12.6-48.9C1226.8,240.7,1242.9,225.4,1261.9,221z"
			/>
	</g>
</g>
<g>
	<rect x="1983.5" y="311.4" class="st0" width="207.2" height="9.4"/>
	<rect x="964.9" y="311.4" class="st0" width="207.2" height="9.4"/>
</g>
<rect x="581.1" y="109.3" class="st2" width="1993.4" height="379.7"/>
</svg>
