<svg xmlns="http://www.w3.org/2000/svg" version="1.1" xmlns:xlink="http://www.w3.org/1999/xlink" xmlns:svgjs="http://svgjs.dev/svgjs" width="1000" height="53" viewBox="0 0 1000 53"><g transform="matrix(1,0,0,1,-0.6060606060606801,-0.5979022657013111)"><svg viewBox="0 0 396 21" data-background-color="#ffffff" preserveAspectRatio="xMidYMid meet" height="53" width="1000" xmlns="http://www.w3.org/2000/svg" xmlns:xlink="http://www.w3.org/1999/xlink"><g id="tight-bounds" transform="matrix(1,0,0,1,0.24000000000003752,0.23690467131561377)"><svg viewBox="0 0 395.5199999999999 20.526190657368765" height="20.526190657368765" width="395.5199999999999"><g><svg viewBox="0 0 469.70506823215237 24.37615236464797" height="20.526190657368765" width="395.5199999999999"><g><rect width="1.8318888136943285" height="24.37615236464797" x="67.5576589637609" y="0" fill="#e06826" opacity="1" stroke-width="0" stroke="transparent" fill-opacity="1" class="rect-i$-0" data-fill-palette-color="primary" rx="1%" id="i$-0" data-palette-color="#e06826"></rect></g><g transform="matrix(1,0,0,1,74.18506823215243,2.031346030387331)"><svg viewBox="0 0 395.5199999999999 20.31346030387331" height="20.31346030387331" width="395.5199999999999"><g id="textblocktransform"><svg viewBox="0 0 395.5199999999999 20.31346030387331" height="20.31346030387331" width="395.5199999999999" id="textblock"><g><svg viewBox="0 0 395.5199999999999 20.31346030387331" height="20.31346030387331" width="395.5199999999999"><g transform="matrix(1,0,0,1,0,0)"><svg width="395.5199999999999" viewBox="1.45 -35.45 700.89 36" height="20.31346030387331" data-palette-color="#e06826"><path d="M3.8-12.2L3.8-12.2Q4.75-11.45 7.08-10.15 9.4-8.85 11.53-8.85 13.65-8.85 13.65-10.5L13.65-10.5Q13.65-11.25 13.05-11.83 12.45-12.4 10.85-13.15 9.25-13.9 8.45-14.33 7.65-14.75 6.33-15.73 5-16.7 4.3-17.75L4.3-17.75Q2.3-20.6 2.3-25 2.3-29.4 5.58-32.43 8.85-35.45 14.15-35.45L14.15-35.45Q17.75-35.45 20.8-34.68 23.85-33.9 23.95-32.65L23.95-32.65Q23.95-32.5 23.95-32.35L23.95-32.35Q23.95-30.6 22.85-27.93 21.75-25.25 21.3-24.95L21.3-24.95Q18.1-26.6 15.58-26.6 13.05-26.6 13.05-24.8L13.05-24.8Q13.05-23.7 14.9-22.85L14.9-22.85Q15.3-22.65 16.05-22.3 16.8-21.95 17.78-21.48 18.75-21 19.88-20.28 21-19.55 22.3-18.35L22.3-18.35Q24.95-15.85 24.95-11.75L24.95-11.75Q24.95-6.4 22-3 19.05 0.4 12.9 0.5L12.9 0.5Q9.9 0.5 7.48 0 5.05-0.5 3.25-1.95 1.45-3.4 1.45-5.45 1.45-7.5 2.2-9.53 2.95-11.55 3.8-12.2ZM33.4 0.1L33.4 0.1Q28.85 0.1 28.85-0.9L28.85-0.9 28.85-33.3Q28.85-35 30.4-35L30.4-35 39.2-35Q46.6-35 49.87-31.95 53.15-28.9 53.15-23.1L53.15-23.1Q53.15-18.3 50.05-14.3L50.05-14.3Q48.5-12.3 45.5-11.1 42.5-9.9 38.5-9.9L38.5-9.9 38.5-0.95Q38.5-0.35 36.62-0.13 34.75 0.1 33.4 0.1ZM39.55-26.3L38.5-26.3 38.5-18.4 39.15-18.4Q40.9-18.4 42.1-19.5 43.3-20.6 43.3-22.6 43.3-24.6 42.47-25.45 41.65-26.3 39.55-26.3L39.55-26.3ZM67.09-12.05L67.09-0.7Q67.09 0.1 62.34 0.1L62.34 0.1Q57.55 0.1 57.55-0.65L57.55-0.65 57.55-33.25Q57.55-35 59.4-35L59.4-35 68.95-35Q82.09-35 82.09-24.75L82.09-24.75Q82.09-21.65 80.9-19.13 79.7-16.6 77.5-15.1L77.5-15.1 83.8-4.6Q83.4-3.4 81.2-1.85L81.2-1.85Q78.2 0.3 76.25 0.3 74.3 0.3 73.34-1.1L73.34-1.1 68.65-12.05 67.09-12.05ZM68.15-26.15L67.09-26.15 67.09-18.65 67.34-18.65Q72.09-18.65 72.09-22.6L72.09-22.6Q72.09-24.4 71.17-25.28 70.25-26.15 68.15-26.15L68.15-26.15ZM98.29-25.9L88.34-25.9Q87.49-25.9 87.14-28.2L87.14-28.2Q86.99-29.15 86.99-30.3 86.99-31.45 87.24-32.7L87.24-32.7Q87.69-35 88.74-35L88.74-35 107.24-35Q110.29-35 111.19-29.45L111.19-29.45Q111.39-28.25 111.39-27.7L111.39-27.7 99.69-9.95 108.84-9.95Q108.89-9.95 108.94-9.95L108.94-9.95Q110.04-9.95 110.49-7.55L110.49-7.55Q110.69-6.4 110.69-5.15 110.69-3.9 110.39-2.5L110.39-2.5Q109.84 0 108.69 0L108.69 0 89.24 0Q88.79 0 87.62-3.03 86.44-6.05 86.44-6.8 86.44-7.55 86.59-7.75L86.59-7.75 98.29-25.9ZM124.99-21.1L131.44-21.1Q132.39-21.1 132.39-17.6L132.39-17.6Q132.39-16.55 132.17-15.13 131.94-13.7 131.34-13.7L131.34-13.7 124.99-13.7 124.99-8.7 134.19-8.7Q135.04-8.7 135.34-6.5L135.34-6.5Q135.49-5.55 135.49-4.48 135.49-3.4 135.19-1.7 134.89 0 134.19 0L134.19 0 117.09 0Q115.19 0 115.19-1.55L115.19-1.55 115.19-33.7Q115.19-35 116.34-35L116.34-35 134.24-35Q135.29-35 135.29-30.58 135.29-26.15 134.24-26.15L134.24-26.15 124.99-26.15 124.99-21.1ZM139.84-2.3L139.84-2.3 139.84-32.3Q139.84-33.55 140.46-34.27 141.09-35 142.09-35L142.09-35 150.44-35Q158.39-35 162.51-31 166.64-27 166.64-18.4L166.64-18.4Q166.64 0 150.94 0L150.94 0 142.39 0Q139.84 0 139.84-2.3ZM149.94-25.5L149.44-25.5 149.44-10.55Q149.44-9.5 149.59-9.22 149.74-8.95 150.49-8.95L150.49-8.95Q153.24-8.95 154.66-11 156.09-13.05 156.09-17.82 156.09-22.6 154.61-24.05 153.14-25.5 149.94-25.5L149.94-25.5ZM194.14 0.1L194.14 0.1Q189.79 0.1 189.44-1.3L189.44-1.3 187.79-7.75 179.84-7.75 178.39-1.55Q178.09 0 173.59 0L173.59 0Q171.19 0 170.04-0.28 168.89-0.55 168.89-0.7L168.89-0.7 177.74-34.55Q177.74-34.95 184.59-34.95 191.44-34.95 191.44-34.55L191.44-34.55 200.09-0.65Q200.09-0.3 197.79-0.1 195.49 0.1 194.14 0.1ZM183.79-24.45L181.09-14.1 186.34-14.1 184.09-24.45 183.79-24.45ZM238.38 0.05L238.38 0.05Q233.93 0.05 233.93-0.95L233.93-0.95 232.88-21 226.78-0.7Q226.58-0.1 223.38-0.1 220.18-0.1 220.08-0.65L220.08-0.65 213.78-21.2 213.08-1.25Q213.03-0.5 211.18-0.23 209.33 0.05 208.11 0.05 206.88 0.05 205.73-0.1L205.73-0.1Q203.33-0.45 203.38-1.35L203.38-1.35 204.53-33.85Q204.53-35.05 210.63-35.05L210.63-35.05Q212.43-35.05 215.03-34.77 217.63-34.5 217.93-33.7L217.93-33.7 223.53-17.95 228.43-33.75Q228.88-35.05 235.33-35.05L235.33-35.05Q237.18-35.05 239.76-34.77 242.33-34.5 242.33-33.8L242.33-33.8 243.78-1Q243.78-0.45 241.83-0.2 239.88 0.05 238.38 0.05ZM263.78-25.9L263.78-0.8Q263.78 0.2 258.83 0.2 253.88 0.2 253.88-0.8L253.88-0.8 253.88-25.9 247.88-25.9Q247.03-25.9 246.68-28.2L246.68-28.2Q246.53-29.3 246.53-30.45 246.53-31.6 246.68-32.7L246.68-32.7Q247.03-35 247.88-35L247.88-35 269.63-35Q270.48-35 270.83-32.7L270.83-32.7Q270.98-31.6 270.98-30.45 270.98-29.3 270.83-28.2L270.83-28.2Q270.48-25.9 269.63-25.9L269.63-25.9 263.78-25.9ZM277.53-1.25L272.38-34.5Q272.23-35.05 277.43-35.05L277.43-35.05Q283.18-35.05 283.33-34.1L283.33-34.1 285.78-13.05 291.08-34.35Q291.33-35.1 294.98-35.1 298.63-35.1 298.88-34.4L298.88-34.4 304.08-12.95 306.98-34.2Q307.08-34.75 309.28-34.95 311.48-35.15 312.83-35.15L312.83-35.15Q318.08-35.15 317.93-34.45L317.93-34.45 311.88-1.3Q311.68-0.55 309.03-0.2 306.38 0.15 304.73 0.15L304.73 0.15Q298.53 0.15 298.23-1.25L298.23-1.25 294.83-15 291.13-1.3Q290.93-0.4 287.63 0L287.63 0Q285.93 0.15 284.23 0.15L284.23 0.15 281.03 0Q277.73-0.35 277.53-1.25L277.53-1.25ZM335.35 0.5Q328.33 0.5 323.9-4.1 319.48-8.7 319.48-17.53 319.48-26.35 323.95-30.9 328.43-35.45 335.5-35.45 342.58-35.45 346.93-30.98 351.28-26.5 351.28-17.43 351.28-8.35 346.83-3.93 342.38 0.5 335.35 0.5ZM335.38-25.85Q332.98-25.85 331.35-23.65 329.73-21.45 329.73-17.48 329.73-13.5 331.28-11.38 332.83-9.25 335.35-9.25 337.88-9.25 339.45-11.4 341.03-13.55 341.03-17.55 341.03-21.55 339.4-23.7 337.78-25.85 335.38-25.85ZM353.22-4.5L353.22-4.5Q353.22-5.95 354.07-7.88 354.92-9.8 355.92-10.5L355.92-10.5Q357.82-9.1 359.77-9.1L359.77-9.1 361.32-9.35Q364.02-10.15 364.12-13.65L364.12-13.65 364.12-26.4 360.12-26.4Q359.27-26.4 358.92-28.55L358.92-28.55Q358.77-29.6 358.77-30.7 358.77-31.8 358.92-32.85L358.92-32.85Q359.27-35 360.12-35L360.12-35 372.02-35Q373.02-35 373.52-34.43 374.02-33.85 374.02-33.05L374.02-33.05 374.02-9.45Q374.02-4.55 370.75-2 367.47 0.55 362.9 0.55 358.32 0.55 355.77-0.8 353.22-2.15 353.22-4.5ZM379.67-12.2L379.67-12.2Q380.62-11.45 382.95-10.15 385.27-8.85 387.4-8.85 389.52-8.85 389.52-10.5L389.52-10.5Q389.52-11.25 388.92-11.83 388.32-12.4 386.72-13.15 385.12-13.9 384.32-14.33 383.52-14.75 382.2-15.73 380.87-16.7 380.17-17.75L380.17-17.75Q378.17-20.6 378.17-25 378.17-29.4 381.45-32.43 384.72-35.45 390.02-35.45L390.02-35.45Q393.62-35.45 396.67-34.68 399.72-33.9 399.82-32.65L399.82-32.65Q399.82-32.5 399.82-32.35L399.82-32.35Q399.82-30.6 398.72-27.93 397.62-25.25 397.17-24.95L397.17-24.95Q393.97-26.6 391.45-26.6 388.92-26.6 388.92-24.8L388.92-24.8Q388.92-23.7 390.77-22.85L390.77-22.85Q391.17-22.65 391.92-22.3 392.67-21.95 393.65-21.48 394.62-21 395.75-20.28 396.87-19.55 398.17-18.35L398.17-18.35Q400.82-15.85 400.82-11.75L400.82-11.75Q400.82-6.4 397.87-3 394.92 0.4 388.77 0.5L388.77 0.5Q385.77 0.5 383.35 0 380.92-0.5 379.12-1.95 377.32-3.4 377.32-5.45 377.32-7.5 378.07-9.53 378.82-11.55 379.67-12.2ZM428.42 0.1L428.42 0.1Q424.07 0.1 423.72-1.3L423.72-1.3 422.07-7.75 414.12-7.75 412.67-1.55Q412.37 0 407.87 0L407.87 0Q405.47 0 404.32-0.28 403.17-0.55 403.17-0.7L403.17-0.7 412.02-34.55Q412.02-34.95 418.87-34.95 425.72-34.95 425.72-34.55L425.72-34.55 434.37-0.65Q434.37-0.3 432.07-0.1 429.77 0.1 428.42 0.1ZM418.07-24.45L415.37-14.1 420.62-14.1 418.37-24.45 418.07-24.45ZM472.67 0.05L472.67 0.05Q468.22 0.05 468.22-0.95L468.22-0.95 467.17-21 461.07-0.7Q460.87-0.1 457.67-0.1 454.47-0.1 454.37-0.65L454.37-0.65 448.07-21.2 447.37-1.25Q447.32-0.5 445.47-0.23 443.62 0.05 442.39 0.05 441.17 0.05 440.02-0.1L440.02-0.1Q437.62-0.45 437.67-1.35L437.67-1.35 438.82-33.85Q438.82-35.05 444.92-35.05L444.92-35.05Q446.72-35.05 449.32-34.77 451.92-34.5 452.22-33.7L452.22-33.7 457.82-17.95 462.72-33.75Q463.17-35.05 469.62-35.05L469.62-35.05Q471.47-35.05 474.04-34.77 476.62-34.5 476.62-33.8L476.62-33.8 478.07-1Q478.07-0.45 476.12-0.2 474.17 0.05 472.67 0.05ZM497.89 0.5Q490.86 0.5 486.44-4.1 482.01-8.7 482.01-17.53 482.01-26.35 486.49-30.9 490.96-35.45 498.04-35.45 505.11-35.45 509.46-30.98 513.81-26.5 513.81-17.43 513.81-8.35 509.36-3.93 504.91 0.5 497.89 0.5ZM497.91-25.85Q495.51-25.85 493.89-23.65 492.26-21.45 492.26-17.48 492.26-13.5 493.81-11.38 495.36-9.25 497.89-9.25 500.41-9.25 501.99-11.4 503.56-13.55 503.56-17.55 503.56-21.55 501.94-23.7 500.31-25.85 497.91-25.85ZM532.11-35.45Q535.76-35.45 538.54-34.43 541.31-33.4 541.31-31.65 541.31-29.9 539.99-27.33 538.66-24.75 537.76-24.75L537.76-24.75Q537.51-24.75 537.19-25.03 536.86-25.3 535.69-25.63 534.51-25.95 533.66-25.95L533.66-25.95Q530.76-25.95 528.99-23.9 527.21-21.85 527.21-17.63 527.21-13.4 529.04-11.35 530.86-9.3 533.66-9.3L533.66-9.3Q534.81-9.3 536.24-9.63 537.66-9.95 538.26-10.55L538.26-10.55Q538.36-10.65 538.66-10.65 538.96-10.65 539.79-9.53 540.61-8.4 541.31-6.58 542.01-4.75 542.01-3.75L542.01-3.75Q542.01-1.8 539.01-0.65 536.01 0.5 531.91 0.5L531.91 0.5Q525.31 0.5 521.06-4.15 516.81-8.8 516.81-17.28 516.81-25.75 521.19-30.6 525.56-35.45 532.11-35.45L532.11-35.45ZM573.06-33.9L573.06-0.85Q573.06 0 568.01 0 562.96 0 562.96-0.85L562.96-0.85 562.96-12.35 555.96-12.35 555.96-0.85Q555.96 0 550.91 0 545.86 0 545.86-0.85L545.86-0.85 545.86-34Q545.86-35.05 550.91-35.05 555.96-35.05 555.96-34L555.96-34 555.96-22.25 562.96-22.25 562.96-33.9Q562.96-34.6 565.46-34.9L565.46-34.9Q566.76-35 568.01-35L568.01-35 570.56-34.9Q573.06-34.6 573.06-33.9L573.06-33.9ZM592.93 0.5Q585.9 0.5 581.48-4.1 577.05-8.7 577.05-17.53 577.05-26.35 581.53-30.9 586-35.45 593.08-35.45 600.15-35.45 604.5-30.98 608.85-26.5 608.85-17.43 608.85-8.35 604.4-3.93 599.95 0.5 592.93 0.5ZM592.95-25.85Q590.55-25.85 588.93-23.65 587.3-21.45 587.3-17.48 587.3-13.5 588.85-11.38 590.4-9.25 592.93-9.25 595.45-9.25 597.03-11.4 598.6-13.55 598.6-17.55 598.6-21.55 596.98-23.7 595.35-25.85 592.95-25.85ZM612.85-2.3L612.85-2.3 612.85-32.3Q612.85-33.55 613.48-34.27 614.1-35 615.1-35L615.1-35 623.45-35Q631.4-35 635.53-31 639.65-27 639.65-18.4L639.65-18.4Q639.65 0 623.95 0L623.95 0 615.4 0Q612.85 0 612.85-2.3ZM622.95-25.5L622.45-25.5 622.45-10.55Q622.45-9.5 622.6-9.22 622.75-8.95 623.5-8.95L623.5-8.95Q626.25-8.95 627.68-11 629.1-13.05 629.1-17.82 629.1-22.6 627.63-24.05 626.15-25.5 622.95-25.5L622.95-25.5ZM651.6-9L651.6 0.15Q651.6 0.5 646.87 0.5 642.15 0.5 642.15 0.2L642.15 0.2 642.15-8.8Q642.15-9.25 646.87-9.25 651.6-9.25 651.6-9L651.6-9ZM659.45 0.1L659.45 0.1Q654.9 0.1 654.9-0.9L654.9-0.9 654.9-33.3Q654.9-35 656.45-35L656.45-35 665.25-35Q672.65-35 675.92-31.95 679.2-28.9 679.2-23.1L679.2-23.1Q679.2-18.3 676.1-14.3L676.1-14.3Q674.55-12.3 671.55-11.1 668.55-9.9 664.55-9.9L664.55-9.9 664.55-0.95Q664.55-0.35 662.67-0.13 660.8 0.1 659.45 0.1ZM665.6-26.3L664.55-26.3 664.55-18.4 665.2-18.4Q666.95-18.4 668.15-19.5 669.35-20.6 669.35-22.6 669.35-24.6 668.52-25.45 667.7-26.3 665.6-26.3L665.6-26.3ZM683.09-2.95L683.09-2.95 683.09-34.05Q683.09-35.1 688.17-35.1 693.24-35.1 693.24-34.05L693.24-34.05 693.24-9.55 700.94-9.55Q701.84-9.55 702.19-7.2L702.19-7.2Q702.34-6.05 702.34-4.85 702.34-3.65 702.19-2.4L702.19-2.4Q701.79 0 700.89 0L700.89 0 685.49 0Q684.39 0 683.74-0.9 683.09-1.8 683.09-2.95Z" opacity="1" transform="matrix(1,0,0,1,0,0)" fill="#e06826" class="undefined-text-0" data-fill-palette-color="primary" id="text-0"></path></svg></g></svg></g></svg></g></svg></g><g transform="matrix(1,0,0,1,0,1.6606253798416404)"><svg viewBox="0 0 62.76213850906371 21.05490160496469" height="21.05490160496469" width="62.76213850906371"><g><svg version="1.0" xmlns="http://www.w3.org/2000/svg" xmlns:xlink="http://www.w3.org/1999/xlink" x="0" y="0" viewBox="0 0 99.99958679774086 33.547" enable-background="new 0 0 99.999 33.547" xml:space="preserve" width="62.76213850906371" height="21.05490160496469" class="icon-icon-0" data-fill-palette-color="accent" id="icon-0"><path d="M99.212 10.535L79.778 8.898 75.278 0H40.965l-7.417 9.819L2.454 11.456 0 24.445h7.105c0.487-4.882 4.606-8.694 9.617-8.694 5.01 0 9.129 3.812 9.616 8.694h44.283c0.487-4.882 4.606-8.694 9.616-8.694 4.988 0 9.093 3.778 9.61 8.628l8.75-1.264C98.599 23.116 101.29 13.016 99.212 10.535zM55.768 10.765H35.21l6.722-8.898h13.836V10.765zM57.635 10.765V1.866h12.988l4.501 8.898H57.635z" fill="#ffffff" data-fill-palette-color="accent"></path><path d="M16.723 17.285c-4.491 0-8.132 3.64-8.132 8.131s3.641 8.131 8.132 8.131c4.49 0 8.131-3.64 8.131-8.131S21.213 17.285 16.723 17.285zM16.723 30.787c-2.966 0-5.37-2.404-5.37-5.37s2.404-5.37 5.37-5.37c2.965 0 5.369 2.404 5.369 5.37S19.688 30.787 16.723 30.787z" fill="#ffffff" data-fill-palette-color="accent"></path><path d="M80.238 17.285c-4.49 0-8.131 3.64-8.131 8.131s3.641 8.131 8.131 8.131c4.491 0 8.132-3.64 8.132-8.131S84.729 17.285 80.238 17.285zM80.238 30.787c-2.965 0-5.369-2.404-5.369-5.37s2.404-5.37 5.369-5.37c2.966 0 5.37 2.404 5.37 5.37S83.204 30.787 80.238 30.787z" fill="#ffffff" data-fill-palette-color="accent"></path></svg></g></svg></g></svg></g><defs></defs></svg><rect width="395.5199999999999" height="20.526190657368765" fill="none" stroke="none" visibility="hidden"></rect></g></svg></g></svg>