<svg xmlns="http://www.w3.org/2000/svg" version="1.1" xmlns:xlink="http://www.w3.org/1999/xlink" xmlns:svgjs="http://svgjs.dev/svgjs" width="1000" height="750" viewBox="0 0 1000 750"><rect width="1000" height="750" fill="#e65728"></rect><g transform="matrix(0.834,0,0,0.834,82.49454545454546,296.5365182038578)"><svg viewBox="0 0 396 75" data-background-color="" preserveAspectRatio="xMidYMid meet" height="189" width="1000" xmlns="http://www.w3.org/2000/svg" xmlns:xlink="http://www.w3.org/1999/xlink"><g id="tight-bounds" transform="matrix(1,0,0,1,0.2400000000000091,-0.16630122003553538)"><svg viewBox="0 0 395.52 75.33260454071636" height="75.33260454071636" width="395.52"><g><svg viewBox="0 0 397.4975999999999 75.70926756341993" height="75.33260454071636" width="395.52"><g><rect width="397.4975999999999" height="1.8781057528248306" x="0" y="48.08870361241541" fill="#ffffff" opacity="1" stroke-width="0" stroke="transparent" fill-opacity="1" class="rect-o-0" data-fill-palette-color="secondary" rx="1%" id="o-0" data-palette-color="#ffffff"></rect></g><g transform="matrix(1,0,0,1,0.9887999999999693,54.88331657158796)"><svg viewBox="0 0 395.52 20.82595099183197" height="20.82595099183197" width="395.52"><g id="textblocktransform"><svg viewBox="0 0 395.52 20.82595099183197" height="20.82595099183197" width="395.52" id="textblock"><g><svg viewBox="0 0 395.52 20.82595099183197" height="20.82595099183197" width="395.52"><g transform="matrix(1,0,0,1,0,0)"><svg width="395.52" viewBox="1.5499999523162842 -35.5 685.5400390625 36.099998474121094" height="20.82595099183197" data-palette-color="#ffffff"><path d="M14.45 0.6L14.45 0.6Q10.05 0.6 6.8-0.85 3.55-2.3 1.55-4.8L1.55-4.8 5.9-9.6Q7.8-7.5 10.08-6.5 12.35-5.5 14.7-5.5L14.7-5.5Q17.4-5.5 18.8-6.7 20.2-7.9 20.2-10.15L20.2-10.15Q20.2-12 19.13-12.95 18.05-13.9 15.5-14.3L15.5-14.3 11.85-14.9Q7.15-15.7 5.05-18.38 2.95-21.05 2.95-24.9L2.95-24.9Q2.95-29.95 6.25-32.73 9.55-35.5 15.5-35.5L15.5-35.5Q19.55-35.5 22.55-34.25 25.55-33 27.4-30.85L27.4-30.85 23.15-26.1Q21.75-27.65 19.85-28.53 17.95-29.4 15.55-29.4L15.55-29.4Q10.5-29.4 10.5-25.25L10.5-25.25Q10.5-23.45 11.63-22.55 12.75-21.65 15.3-21.2L15.3-21.2 18.95-20.55Q23.2-19.8 25.5-17.35 27.8-14.9 27.8-10.75L27.8-10.75Q27.8-8.3 26.95-6.23 26.1-4.15 24.4-2.63 22.7-1.1 20.23-0.25 17.75 0.6 14.45 0.6ZM41.35 0L33.8 0 33.8-34.9 47.3-34.9Q49.85-34.9 51.85-34.13 53.85-33.35 55.22-31.9 56.6-30.45 57.3-28.4 58-26.35 58-23.8L58-23.8Q58-21.25 57.3-19.2 56.6-17.15 55.22-15.7 53.85-14.25 51.85-13.48 49.85-12.7 47.3-12.7L47.3-12.7 41.35-12.7 41.35 0ZM41.35-28.85L41.35-18.75 45.4-18.75Q48.05-18.75 49.07-19.75 50.1-20.75 50.1-23.05L50.1-23.05 50.1-24.55Q50.1-26.85 49.07-27.85 48.05-28.85 45.4-28.85L45.4-28.85 41.35-28.85ZM71.2-12.95L71.2 0 63.8 0 63.8-34.9 77.3-34.9Q79.84-34.9 81.84-34.13 83.84-33.35 85.22-31.9 86.59-30.45 87.3-28.4 88-26.35 88-23.8L88-23.8Q88-20.1 86.4-17.45 84.8-14.8 81.84-13.95L81.84-13.95 88.7 0 80.5 0 74.65-12.95 71.2-12.95ZM71.2-18.75L75.5-18.75Q78.15-18.75 79.17-19.75 80.2-20.75 80.2-23.05L80.2-23.05 80.2-24.55Q80.2-26.85 79.17-27.85 78.15-28.85 75.5-28.85L75.5-28.85 71.2-28.85 71.2-18.75ZM117.54-6.15L117.54 0 92.39 0 92.39-6.55 108.64-28.75 92.89-28.75 92.89-34.9 117.04-34.9 117.04-28.35 100.79-6.15 117.54-6.15ZM146.29 0L123.99 0 123.99-34.9 146.29-34.9 146.29-28.75 131.49-28.75 131.49-20.75 145.79-20.75 145.79-14.6 131.49-14.6 131.49-6.15 146.29-6.15 146.29 0ZM153.19 0L153.19-34.9 164.44-34.9Q171.49-34.9 174.89-30.4 178.29-25.9 178.29-17.45L178.29-17.45Q178.29-9 174.89-4.5 171.49 0 164.44 0L164.44 0 153.19 0ZM160.59-5.9L163.94-5.9Q167.29-5.9 168.84-8.05 170.39-10.2 170.39-14.3L170.39-14.3 170.39-20.65Q170.39-24.7 168.84-26.85 167.29-29 163.94-29L163.94-29 160.59-29 160.59-5.9ZM209.74 0L201.74 0 199.54-8.4 189.99-8.4 187.84 0 180.24 0 189.69-34.9 200.29-34.9 209.74 0ZM198.39-14.45L194.99-27.65 194.59-27.65 191.19-14.45 198.39-14.45ZM231.53 0L231.53-15.55 231.93-25.3 231.48-25.3 224.98-7.35 218.48-25.3 218.03-25.3 218.43-15.55 218.43 0 211.93 0 211.93-34.9 220.78-34.9 225.08-23.15 225.48-23.15 229.78-34.9 238.03-34.9 238.03 0 231.53 0ZM268.78-28.75L258.73-28.75 258.73 0 251.23 0 251.23-28.75 241.18-28.75 241.18-34.9 268.78-34.9 268.78-28.75ZM282.18 0L272.68 0 270.53-34.9 276.98-34.9 277.98-14 278.28-7.4 278.73-7.4 281.73-27.3 288.48-27.3 291.48-7.4 291.93-7.4 292.23-13.8 293.23-34.9 299.43-34.9 297.28 0 287.78 0 285.23-19.25 284.73-19.25 282.18 0ZM314.98 0.6L314.98 0.6Q307.98 0.6 304.65-4.15 301.33-8.9 301.33-17.45L301.33-17.45Q301.33-26 304.65-30.75 307.98-35.5 314.98-35.5L314.98-35.5Q321.98-35.5 325.3-30.75 328.63-26 328.63-17.45L328.63-17.45Q328.63-8.9 325.3-4.15 321.98 0.6 314.98 0.6ZM314.98-5.45L314.98-5.45Q318.18-5.45 319.4-7.83 320.63-10.2 320.63-14.45L320.63-14.45 320.63-20.5Q320.63-24.7 319.4-27.08 318.18-29.45 314.98-29.45L314.98-29.45Q311.78-29.45 310.55-27.08 309.33-24.7 309.33-20.5L309.33-20.5 309.33-14.4Q309.33-10.2 310.55-7.83 311.78-5.45 314.98-5.45ZM336.42-34.9L355.52-34.9 355.52-9.75Q355.52-7.4 354.7-5.48 353.87-3.55 352.35-2.2 350.82-0.85 348.67-0.13 346.52 0.6 343.87 0.6L343.87 0.6Q338.52 0.6 335.6-2.08 332.67-4.75 331.87-9.1L331.87-9.1 338.97-10.55Q339.37-8.3 340.5-6.9 341.62-5.5 343.87-5.5L343.87-5.5Q345.77-5.5 346.85-6.73 347.92-7.95 347.92-10.5L347.92-10.5 347.92-28.75 336.42-28.75 336.42-34.9ZM374.42 0.6L374.42 0.6Q370.02 0.6 366.77-0.85 363.52-2.3 361.52-4.8L361.52-4.8 365.87-9.6Q367.77-7.5 370.05-6.5 372.32-5.5 374.67-5.5L374.67-5.5Q377.37-5.5 378.77-6.7 380.17-7.9 380.17-10.15L380.17-10.15Q380.17-12 379.1-12.95 378.02-13.9 375.47-14.3L375.47-14.3 371.82-14.9Q367.12-15.7 365.02-18.38 362.92-21.05 362.92-24.9L362.92-24.9Q362.92-29.95 366.22-32.73 369.52-35.5 375.47-35.5L375.47-35.5Q379.52-35.5 382.52-34.25 385.52-33 387.37-30.85L387.37-30.85 383.12-26.1Q381.72-27.65 379.82-28.53 377.92-29.4 375.52-29.4L375.52-29.4Q370.47-29.4 370.47-25.25L370.47-25.25Q370.47-23.45 371.6-22.55 372.72-21.65 375.27-21.2L375.27-21.2 378.92-20.55Q383.17-19.8 385.47-17.35 387.77-14.9 387.77-10.75L387.77-10.75Q387.77-8.3 386.92-6.23 386.07-4.15 384.37-2.63 382.67-1.1 380.2-0.25 377.72 0.6 374.42 0.6ZM419.72 0L411.72 0 409.52-8.4 399.97-8.4 397.82 0 390.22 0 399.67-34.9 410.27-34.9 419.72 0ZM408.37-14.45L404.97-27.65 404.57-27.65 401.17-14.45 408.37-14.45ZM441.52 0L441.52-15.55 441.92-25.3 441.47-25.3 434.97-7.35 428.47-25.3 428.02-25.3 428.42-15.55 428.42 0 421.92 0 421.92-34.9 430.77-34.9 435.07-23.15 435.47-23.15 439.77-34.9 448.02-34.9 448.02 0 441.52 0ZM464.96 0.6L464.96 0.6Q457.96 0.6 454.64-4.15 451.31-8.9 451.31-17.45L451.31-17.45Q451.31-26 454.64-30.75 457.96-35.5 464.96-35.5L464.96-35.5Q471.96-35.5 475.29-30.75 478.61-26 478.61-17.45L478.61-17.45Q478.61-8.9 475.29-4.15 471.96 0.6 464.96 0.6ZM464.96-5.45L464.96-5.45Q468.16-5.45 469.39-7.83 470.61-10.2 470.61-14.45L470.61-14.45 470.61-20.5Q470.61-24.7 469.39-27.08 468.16-29.45 464.96-29.45L464.96-29.45Q461.76-29.45 460.54-27.08 459.31-24.7 459.31-20.5L459.31-20.5 459.31-14.4Q459.31-10.2 460.54-7.83 461.76-5.45 464.96-5.45ZM495.76 0.6L495.76 0.6Q488.76 0.6 485.39-4.13 482.01-8.85 482.01-17.45L482.01-17.45Q482.01-26.05 485.39-30.78 488.76-35.5 495.76-35.5L495.76-35.5Q498.46-35.5 500.54-34.77 502.61-34.05 504.11-32.75 505.61-31.45 506.59-29.6 507.56-27.75 508.11-25.45L508.11-25.45 501.11-23.75Q500.81-25 500.41-26.05 500.01-27.1 499.39-27.85 498.76-28.6 497.84-29.03 496.91-29.45 495.61-29.45L495.61-29.45Q492.56-29.45 491.29-27.08 490.01-24.7 490.01-20.5L490.01-20.5 490.01-14.4Q490.01-10.2 491.29-7.83 492.56-5.45 495.61-5.45L495.61-5.45Q498.21-5.45 499.39-7.05 500.56-8.65 501.11-11.15L501.11-11.15 508.11-9.45Q507.56-7.15 506.59-5.3 505.61-3.45 504.11-2.13 502.61-0.8 500.54-0.1 498.46 0.6 495.76 0.6ZM529.36 0L529.36-14.6 520.56-14.6 520.56 0 513.01 0 513.01-34.9 520.56-34.9 520.56-20.75 529.36-20.75 529.36-34.9 536.91-34.9 536.91 0 529.36 0ZM554.95 0.6L554.95 0.6Q547.95 0.6 544.63-4.15 541.3-8.9 541.3-17.45L541.3-17.45Q541.3-26 544.63-30.75 547.95-35.5 554.95-35.5L554.95-35.5Q561.95-35.5 565.28-30.75 568.6-26 568.6-17.45L568.6-17.45Q568.6-8.9 565.28-4.15 561.95 0.6 554.95 0.6ZM554.95-5.45L554.95-5.45Q558.15-5.45 559.38-7.83 560.6-10.2 560.6-14.45L560.6-14.45 560.6-20.5Q560.6-24.7 559.38-27.08 558.15-29.45 554.95-29.45L554.95-29.45Q551.75-29.45 550.53-27.08 549.3-24.7 549.3-20.5L549.3-20.5 549.3-14.4Q549.3-10.2 550.53-7.83 551.75-5.45 554.95-5.45ZM573.15 0L573.15-34.9 584.4-34.9Q591.45-34.9 594.85-30.4 598.25-25.9 598.25-17.45L598.25-17.45Q598.25-9 594.85-4.5 591.45 0 584.4 0L584.4 0 573.15 0ZM580.55-5.9L583.9-5.9Q587.25-5.9 588.8-8.05 590.35-10.2 590.35-14.3L590.35-14.3 590.35-20.65Q590.35-24.7 588.8-26.85 587.25-29 583.9-29L583.9-29 580.55-29 580.55-5.9ZM614.95 0.6L614.95 0.6Q612.15 0.6 610.92-0.63 609.7-1.85 609.7-3.55L609.7-3.55 609.7-5.3Q609.7-7 610.92-8.22 612.15-9.45 614.95-9.45L614.95-9.45Q617.75-9.45 618.97-8.22 620.2-7 620.2-5.3L620.2-5.3 620.2-3.55Q620.2-1.85 618.97-0.63 617.75 0.6 614.95 0.6ZM641.3 0L633.75 0 633.75-34.9 647.25-34.9Q649.8-34.9 651.8-34.13 653.8-33.35 655.17-31.9 656.55-30.45 657.25-28.4 657.95-26.35 657.95-23.8L657.95-23.8Q657.95-21.25 657.25-19.2 656.55-17.15 655.17-15.7 653.8-14.25 651.8-13.48 649.8-12.7 647.25-12.7L647.25-12.7 641.3-12.7 641.3 0ZM641.3-28.85L641.3-18.75 645.35-18.75Q648-18.75 649.02-19.75 650.05-20.75 650.05-23.05L650.05-23.05 650.05-24.55Q650.05-26.85 649.02-27.85 648-28.85 645.35-28.85L645.35-28.85 641.3-28.85ZM687.09 0L664.54 0 664.54-34.9 672.09-34.9 672.09-6.15 687.09-6.15 687.09 0Z" opacity="1" transform="matrix(1,0,0,1,0,0)" fill="#ffffff" class="undefined-text-0" data-fill-palette-color="primary" id="text-0"></path></svg></g></svg></g></svg></g></svg></g><g transform="matrix(1,0,0,1,117.85091683667069,0)"><svg viewBox="0 0 161.79576632665854 43.172196406067684" height="43.172196406067684" width="161.79576632665854"><g><svg xmlns="http://www.w3.org/2000/svg" xmlns:xlink="http://www.w3.org/1999/xlink" version="1.1" x="8" y="0" viewBox="0.0004891753196716309 40.999752044677734 100.00140380859375 29.611835479736328" enable-background="new 0 0 100 100" xml:space="preserve" width="145.79576632665854" height="43.172196406067684" class="icon-icon-0" data-fill-palette-color="accent" id="icon-0"><path fill="#ffffff" d="M20.784 47.299c8.095-3.358 16.643-5.959 25.455-6.288 2.21-0.053 4.455 0.066 6.587 0.687 4.875 2.379 9.941 4.362 14.933 6.489 3.612 1.195 7.462 0.763 11.198 0.982 2.277 0.105 4.557 0.283 6.809 0.665 1.764 0.309 3.414 1.072 4.924 2.016 2.961 0.869 5.765 2.236 8.334 3.943 0.431 0.287 0.892 0.652 0.975 1.197 0.068 0.955-1.079 1.326-1.273 2.184-0.179 0.516 0.666 0.605 0.551 1.105-0.153 0.682-0.926 0.934-1.496 1.182-3.66 1.242-7.565 1.426-11.389 1.729 0.018-2.199-0.275-4.463-1.248-6.459-1.188-1.992-3.222-3.555-5.553-3.895-3.001-0.471-6.434 0.213-8.463 2.629-2.047 2.371-2.327 5.688-2.145 8.682-12.065 0.504-24.138 1.285-36.205 1.793 0.04-1.446 0.14-2.934-0.268-4.342-0.533-1.975-1.75-3.82-3.544-4.854-2.171-1.3-4.893-1.369-7.272-0.66-1.84 0.56-3.454 1.845-4.342 3.56-1.219 2.176-1.125 4.748-1.215 7.16-3.443 0.036-6.877-0.201-10.303-0.511-1.555-0.623-3.079-1.375-4.454-2.334-0.592-0.623-0.676-1.562-0.967-2.345-0.217-0.979-0.726-2.071-0.14-3.02 1.474-2.678 4.234-4.24 6.691-5.891-0.597-0.057-1.336-0.143-1.798-0.52l0.031-0.236c0.715-0.109 1.46 0.117 2.158-0.094-0.54-0.984-1.399-1.84-2.167-2.681-0.544-0.204-1.178-0.18-1.669-0.538 0.011-0.079 0.035-0.239 0.048-0.318 1.489-0.32 3.024-0.349 4.54-0.456 1.02-0.059 2.096-0.173 3.077 0.18 0.077 0.638-0.857 0.504-0.888 1.02 0.443 0.555 0.954 1.068 1.546 1.464 0.765-0.199 1.493-0.543 2.278-0.687C16.407 49.178 18.573 48.174 20.784 47.299zM42.212 42.482c-2.044 0.259-4.108 0.546-6.097 1.079 0.827 2.244 1.688 4.487 2.618 6.689 7.7-0.151 15.408-0.489 23.1-0.897l-0.054-0.193c-2.805-1.647-5.523-3.45-8.401-4.97-1.625-0.807-3.285-1.678-5.121-1.847C46.245 42.134 44.223 42.377 42.212 42.482zM25.203 47.114c-1.535 0.693-3.185 1.254-4.487 2.353-0.337 0.516 0.393 0.713 0.75 0.792 2.323 0.406 4.693 0.294 7.04 0.322 2.645-0.033 5.292-0.058 7.937-0.147-0.77-2.131-1.669-4.222-2.491-6.335C30.958 44.854 28.056 45.945 25.203 47.114z" data-fill-palette-color="accent"></path><path fill="#ffffff" d="M76.077 53.523c1.86-0.408 3.891-0.066 5.489 0.975 1.875 1.139 3.139 3.203 3.347 5.383 0.206 1.918-0.412 3.9-1.66 5.375-1.653 2-4.423 2.969-6.967 2.482-3.173-0.518-5.781-3.35-5.976-6.568C69.952 57.641 72.602 54.166 76.077 53.523z" data-fill-palette-color="accent"></path><path fill="#ffffff" d="M22.917 56.285c1.713-0.381 3.566-0.17 5.119 0.666 1.875 0.969 3.29 2.793 3.722 4.863 0.408 1.879 0.046 3.916-1.028 5.516-1.202 1.855-3.298 3.072-5.496 3.25-2.219 0.213-4.509-0.662-6.026-2.297-1.667-1.744-2.322-4.357-1.73-6.691C18.108 58.979 20.31 56.883 22.917 56.285z" data-fill-palette-color="accent"></path></svg></g></svg></g><g><rect width="41.31779683667072" height="1.8781057528248306" y="40.294090653242854" x="279.6466831633292" fill="#ffffff" data-fill-palette-color="secondary"></rect><rect width="41.31779683667072" height="1.8781057528248306" y="40.294090653242854" x="76.53311999999997" fill="#ffffff" data-fill-palette-color="secondary"></rect></g></svg></g><defs></defs></svg><rect width="395.52" height="75.33260454071636" fill="none" stroke="none" visibility="hidden"></rect></g></svg></g></svg>