<?xml version="1.0" encoding="utf-8"?>
<!-- Generator: Adobe Illustrator 19.0.0, SVG Export Plug-In . SVG Version: 6.00 Build 0)  -->
<svg version="1.1" id="icon-0" xmlns:svgjs="http://svgjs.dev/svgjs"
	 xmlns="http://www.w3.org/2000/svg" xmlns:xlink="http://www.w3.org/1999/xlink" x="0px" y="0px" viewBox="579 152.3 2000 292"
	 style="enable-background:new 579 152.3 2000 292;" xml:space="preserve">
<style type="text/css">
	.st0{fill:#FFFFFF;}
	.st1{fill:#DF6825;}
	.st2{display:none;fill:none;}
</style>
<g>
	<path id="i_x24_-0" class="st0" d="M602.1,313.5h1951.4c11,0,19.9,2,19.9,4.5l0,0c0,2.5-8.9,4.5-19.9,4.5H602.1
		c-11,0-19.9-2-19.9-4.5l0,0C582.2,315.6,591.1,313.5,602.1,313.5z"/>
	<path class="st0" d="M620.1,445.7c-6.6,0-12.4-0.7-17.3-2c-5-1.3-8.8-2.9-11.4-4.9c-2.6-1.9-4-3.8-4-5.5l0,0c0-1.4,0.5-3,1.5-5
		c1-2,2.2-3.7,3.6-5.1s2.6-2.1,3.5-2.1l0,0c0.6,0,1.8,0.5,3.7,1.5l0,0c2.8,1.5,5.5,2.6,8,3.5c2.5,0.9,5.4,1.3,8.7,1.3l0,0
		c3.7,0,6.7-0.7,9.3-2.1c2.5-1.4,3.8-3.9,3.8-7.5l0,0c0-2.1-0.7-3.9-2-5.4c-1.3-1.5-3-2.8-5-3.8c-2-1-4.8-2.3-8.3-3.7l0,0l-6.2-2.7
		c-3.8-1.8-7-3.8-9.6-6c-2.7-2.2-4.9-5.1-6.6-8.7c-1.7-3.6-2.6-8-2.6-13.2l0,0c0-6.4,1.6-11.7,4.7-15.9c3.1-4.2,7.2-7.3,12.2-9.3
		c5-2,10.4-3,16.1-3l0,0c4.7,0,8.9,0.5,12.7,1.4c3.8,1,6.8,2.2,9,3.7c2.2,1.5,3.2,3,3.2,4.5l0,0c0,1.3-0.4,2.9-1.2,4.8
		c-0.8,2-1.8,3.7-3,5.1c-1.2,1.5-2.3,2.2-3.3,2.2l0,0c-0.5,0-1.3-0.3-2.5-0.8l0,0c-1.9-0.8-3.9-1.4-5.8-1.9c-2-0.5-4.4-0.7-7.2-0.7
		l0,0c-4.8,0-8.2,0.8-10.1,2.3c-1.9,1.5-2.8,3.4-2.8,5.4l0,0c0,2.4,0.6,4.4,1.9,6c1.3,1.6,2.9,2.9,4.8,4c2,1,4.7,2.3,8.2,3.6l0,0
		c5.3,2.2,9.5,4.3,12.9,6.3c3.4,2,6.2,4.9,8.6,8.6c2.4,3.8,3.7,8.6,3.7,14.4l0,0c0,7.2-1.5,13-4.5,17.6c-3,4.5-6.8,7.8-11.6,9.9
		C630.7,444.7,625.6,445.7,620.1,445.7L620.1,445.7z"/>
	<path class="st0" d="M721.3,353.6c-6.7-4.2-14.3-6.3-23-6.3h-29.3c-1.9,0-3.3,0.4-4.2,1.3c-0.9,0.9-1.4,2.3-1.4,4.2v87.7
		c0,2.9,2.8,4.3,8.4,4.3h4.7c5.6,0,8.4-1.4,8.4-4.3v-32.3h14.7c3.8,0,8-0.8,12.9-2.3c4.8-1.6,9.2-4.6,13-9.1c1.9-2.3,3.4-5,4.3-8.1
		c1-3.2,1.5-6.8,1.5-10.8C731.3,365.8,728,357.8,721.3,353.6z M705.8,387.1c-2.4,1.8-5.2,2.7-8.6,2.7h-12.4v-24.3h12.4
		c3.3,0,6.1,0.9,8.5,2.8c1.2,0.9,2.1,2.2,2.7,3.7c0.6,1.6,0.9,3.5,0.9,5.8C709.4,382.2,708.2,385.3,705.8,387.1z"/>
	<path class="st0" d="M816.1,439.4l-12.3-30.6c-1.1-3-2.7-5.7-4.6-8.1c-1.9-2.4-3.7-4-5.4-4.7v-0.5c5-1.9,8.9-4.7,11.8-8.5
		c1.5-1.9,2.6-4,3.3-6.3c0.7-2.3,1.1-4.7,1.1-7.3c0-17.4-11.5-26-34.6-26h-27.1c-1.9,0-3.3,0.4-4.2,1.3c-0.9,0.9-1.3,2.3-1.3,4.2
		v87.7c0,2.9,2.8,4.3,8.4,4.3h4.7c5.6,0,8.4-1.4,8.4-4.3v-34h5.4c2.9,0,5.3,0.3,7,0.9c1.7,0.6,3.1,1.5,4,2.6c1,1.1,2,2.8,3,4.9
		l11,27.1c0.8,1.9,3.4,2.9,8.1,2.9h5.7c2.8,0,4.8-0.2,6.2-0.7c1.4-0.4,2.1-1.1,2.1-2C816.7,441.5,816.5,440.6,816.1,439.4z
		 M786.7,382c-1,1.8-2.3,3.3-4,4.3c-1.7,1.1-3.4,1.6-5.3,1.6h-13.1v-22.5h12.2c3.6,0,6.4,0.9,8.5,2.8c1.1,1,1.8,2.1,2.4,3.4
		c0.5,1.3,0.8,2.7,0.8,4.3C788.2,378.1,787.7,380.1,786.7,382z"/>
	<path class="st0" d="M827.3,444.5c-0.8,0-1.6-0.8-2.4-2.3c-0.8-1.5-1.6-3.3-2.2-5.3c-0.6-2-0.9-3.6-0.9-4.9l0,0
		c0-0.3,0.1-0.7,0.3-1.3l0,0l46.6-65.4H830c-1.5,0-2.5-0.5-3.2-1.6c-0.7-1.1-1-2.9-1-5.3l0,0v-4.2c0-2.5,0.3-4.2,1-5.3
		c0.6-1.1,1.7-1.6,3.2-1.6l0,0h63.6c0.7,0,1.4,0.8,2.2,2.3c0.8,1.6,1.5,3.4,2.1,5.4c0.5,2.1,0.8,3.7,0.8,5l0,0
		c0,0.6-0.1,0.9-0.2,1.1l0,0L852,426.3h42.5c1.5,0,2.5,0.5,3.2,1.6c0.6,1.1,1,2.9,1,5.3l0,0v4.4c0,2.4-0.3,4.2-1,5.3
		c-0.7,1.1-1.7,1.6-3.2,1.6l0,0H827.3z"/>
	<path class="st0" d="M918.8,444.5c-1.9,0-3.3-0.4-4.2-1.3c-0.9-0.9-1.3-2.3-1.3-4.2l0,0v-86.3c0-1.9,0.4-3.3,1.3-4.2
		c0.9-0.9,2.3-1.3,4.2-1.3l0,0h50.9c1.5,0,2.5,0.5,3.2,1.6c0.7,1.1,1,2.9,1,5.3l0,0v4.2c0,2.5-0.3,4.2-1,5.3
		c-0.6,1.1-1.7,1.6-3.2,1.6l0,0h-35v20.2H966c1.5,0,2.5,0.5,3.2,1.6c0.6,1.1,1,2.9,1,5.3l0,0v4.3c0,2.4-0.3,4.2-1,5.3
		c-0.7,1.1-1.7,1.6-3.2,1.6l0,0h-31.3v22.5h35.1c1.5,0,2.5,0.5,3.2,1.6c0.6,1.1,1,2.9,1,5.3l0,0v4.4c0,2.4-0.3,4.2-1,5.3
		c-0.7,1.1-1.7,1.6-3.2,1.6l0,0H918.8z"/>
	<path class="st0" d="M1065.3,369.3c-3.4-7.2-8.4-12.7-15.1-16.5c-6.6-3.7-14.7-5.6-24.3-5.6h-31.1c-1.9,0-3.3,0.4-4.2,1.3
		c-0.9,0.9-1.3,2.3-1.3,4.2V439c0,1.9,0.4,3.3,1.3,4.2c0.9,0.9,2.3,1.3,4.2,1.3h31.1c9.5,0,17.6-1.9,24.3-5.6
		c6.6-3.8,11.7-9.3,15.1-16.5c1.7-3.6,3-7.6,3.8-12.1c0.8-4.4,1.3-9.3,1.3-14.5C1070.4,385.4,1068.7,376.5,1065.3,369.3z
		 M1042.7,418.5c-3.8,5.2-9.4,7.8-16.8,7.8h-15.1v-60.9h15.1c7.4,0,13,2.6,16.8,7.8c1.9,2.6,3.3,5.8,4.3,9.5
		c0.9,3.8,1.4,8.1,1.4,13.1C1048.4,405.8,1046.5,413.3,1042.7,418.5z"/>
	<path class="st0" d="M1161.1,439.2l-30.7-89.4c-0.7-2-3.4-2.9-7.9-2.9h-7.2c-4.5,0-7.2,1-7.9,2.9l-30.6,89.4
		c-0.4,1.1-0.6,1.9-0.6,2.5c0,2,2.8,3,8.5,3h5.5c3.7,0,5.8-1,6.4-2.9l5.6-17h32.8l5.6,17c0.3,1,1.1,1.8,2.5,2.2
		c1.3,0.4,3.1,0.6,5.3,0.6h6.1c2.4,0,4.1-0.2,5.3-0.7c1.1-0.5,1.7-1.3,1.7-2.3C1161.5,441.1,1161.4,440.3,1161.1,439.2z
		 M1108.2,406.5l8.2-24.7c0.7-1.7,1.3-4.1,1.8-7.2l0.3-1.7h0.5c0.3,1.5,0.5,3,0.9,4.6c0.3,1.6,0.8,3,1.2,4.3l7.9,24.7H1108.2z"/>
	<path class="st0" d="M1179.5,444.8c-5.6,0-8.4-1.5-8.4-4.4l0,0v-89c0-1.5,0.7-2.6,2.1-3.4c1.3-0.7,3.4-1.1,6.3-1.1l0,0h7.4
		c4.4,0,7.3,1.3,8.7,3.8l0,0l23.4,41.5l1.2,2l1.2-2.4l23.5-41.1c1.4-2.5,4.3-3.8,8.7-3.8l0,0h7.3c5.6,0,8.4,1.5,8.4,4.5l0,0v89
		c0,2.9-2.8,4.4-8.4,4.4l0,0h-4.1c-5.6,0-8.4-1.5-8.4-4.4l0,0v-57.7l-0.5-0.2l-20.2,36.1c-1.2,1.8-3,2.7-5.5,2.7l0,0h-4
		c-1.3,0-2.4-0.2-3.3-0.7c-0.9-0.4-1.7-1.1-2.3-2l0,0l-20.2-36.1l-0.5,0.2v57.7c0,2.9-2.8,4.4-8.3,4.4l0,0H1179.5z"/>
	<path class="st0" d="M1314.4,444.8c-5.6,0-8.4-1.5-8.4-4.4l0,0v-75h-22c-1.5,0-2.5-0.5-3.2-1.6c-0.7-1.1-1-2.9-1-5.3l0,0v-4.2
		c0-2.5,0.3-4.2,1-5.3c0.6-1.1,1.7-1.6,3.2-1.6l0,0h65.8c1.5,0,2.5,0.5,3.2,1.6c0.6,1.1,1,2.9,1,5.3l0,0v4.2c0,2.5-0.3,4.2-1,5.3
		c-0.7,1.1-1.7,1.6-3.2,1.6l0,0h-22.1v75c0,2.9-2.8,4.4-8.4,4.4l0,0H1314.4z"/>
	<path class="st0" d="M1384.3,444.8c-2.2,0-4-0.2-5.3-0.7c-1.3-0.5-2.1-1.2-2.3-2.1l0,0l-22-89.2c-0.2-0.6-0.3-1.3-0.3-2.1l0,0
		c0-1.1,0.7-2,2.1-2.7c1.5-0.6,3.6-1,6.5-1l0,0h3.6c5.4,0,8.5,1.5,9.3,4.4l0,0l10.4,44.8c0.1,0.8,0.8,3.7,1.9,8.8l0,0l2.4,11.2
		c0.6-3.8,1.8-9.1,3.6-15.9l0,0l1.1-4.1l11.5-46.2c0.2-1,1-1.8,2.2-2.2c1.3-0.5,3.1-0.7,5.3-0.7l0,0h5.3c2.3,0,4.1,0.2,5.4,0.7
		c1.3,0.5,2,1.2,2.2,2.2l0,0l11,46.2c1.4,5.7,3,12.7,4.8,21l0,0c0.2-0.9,1-4.2,2.2-9.8l0,0l2.5-11.1l10.8-44.8
		c0.8-2.9,3.9-4.4,9.3-4.4l0,0h1.6c2.9,0,5,0.3,6.4,1c1.5,0.7,2.2,1.6,2.2,2.7l0,0c0,0.4,0,0.7-0.1,1.1c0,0.3-0.1,0.7-0.2,1.1l0,0
		l-22.7,89.2c-0.3,0.9-1.1,1.7-2.5,2.1c-1.4,0.5-3.1,0.7-5.2,0.7l0,0h-10.2c-2.1,0-3.8-0.2-5.2-0.7c-1.4-0.5-2.2-1.2-2.4-2.1l0,0
		l-11.4-48.1l-2.2-9.5l-2.4,9.5l-11.8,48.1c-0.3,0.9-1.1,1.7-2.5,2.1c-1.4,0.5-3.1,0.7-5.2,0.7l0,0H1384.3z"/>
	<path class="st0" d="M1567.9,368.7c-3.5-7.4-8.5-13.1-15.2-16.9c-3.3-1.9-7-3.4-11.1-4.3c-4-1-8.5-1.4-13.2-1.4
		c-9.5,0-17.5,1.9-24.2,5.8c-6.7,3.8-11.7,9.5-15.2,16.9c-1.7,3.7-3,7.8-3.9,12.4c-0.9,4.5-1.3,9.4-1.3,14.8
		c0,10.7,1.7,19.7,5.2,27.2c3.5,7.4,8.5,13.1,15.2,17c6.6,3.9,14.7,5.8,24.2,5.8c9.5,0,17.6-1.9,24.3-5.8c6.6-3.9,11.7-9.5,15.2-17
		c1.7-3.7,3-7.8,3.9-12.4c0.9-4.5,1.3-9.5,1.3-14.8C1573,385.2,1571.3,376.1,1567.9,368.7z M1545.3,419.3c-3.8,5.4-9.5,8.1-16.9,8.1
		c-7.3,0-13-2.7-16.8-8.1c-1.9-2.7-3.4-6-4.3-9.9c-1-3.9-1.5-8.5-1.5-13.6c0-10.2,1.9-18,5.7-23.4c1.9-2.7,4.3-4.7,7.1-6
		c2.8-1.3,6.1-2,9.8-2c7.5,0,13.1,2.7,16.9,8c1.9,2.7,3.3,5.9,4.3,9.8c1,3.9,1.4,8.4,1.4,13.6
		C1551.1,406.1,1549.2,413.9,1545.3,419.3z"/>
	<path class="st0" d="M1596.5,445.7c-3.6,0-7.4-0.4-11.3-1.3c-3.9-0.9-5.9-2.6-5.9-5.2l0,0c0-1.2,0.2-2.7,0.6-4.7
		c0.4-2,1-3.8,1.9-5.5c0.9-1.7,1.9-2.6,3.2-2.7l0,0c0.3,0,0.9,0.1,1.8,0.3l0,0c2.2,0.5,4.2,0.8,6,0.8l0,0c4.2,0,7.2-1.1,9-3.4
		c1.8-2.3,2.7-5.9,2.7-11.1l0,0v-61.6c0-3.1,2.8-4.6,8.3-4.6l0,0h4.9c5.5,0,8.3,1.5,8.3,4.6l0,0v65c0,9.3-2.4,16.5-7.2,21.6
		C1614,443.1,1606.5,445.7,1596.5,445.7L1596.5,445.7z"/>
	<path class="st1" d="M1670.9,445.7c-6.6,0-12.4-0.7-17.3-2c-5-1.3-8.8-2.9-11.4-4.9c-2.6-1.9-4-3.8-4-5.5l0,0c0-1.4,0.5-3,1.5-5
		c1-2,2.2-3.7,3.7-5.1c1.4-1.4,2.6-2.1,3.5-2.1l0,0c0.6,0,1.8,0.5,3.7,1.5l0,0c2.8,1.5,5.5,2.6,8,3.5c2.5,0.9,5.5,1.3,8.7,1.3l0,0
		c3.6,0,6.7-0.7,9.3-2.1c2.5-1.4,3.8-3.9,3.8-7.5l0,0c0-2.1-0.7-3.9-2-5.4c-1.3-1.5-3-2.8-5-3.8c-2-1-4.8-2.3-8.3-3.7l0,0l-6.2-2.7
		c-3.7-1.8-7-3.8-9.6-6c-2.7-2.2-4.9-5.1-6.6-8.7c-1.7-3.6-2.6-8-2.6-13.2l0,0c0-6.4,1.6-11.7,4.7-15.9c3.1-4.2,7.2-7.3,12.2-9.3
		c5-2,10.4-3,16.1-3l0,0c4.7,0,8.9,0.5,12.7,1.4c3.8,1,6.8,2.2,8.9,3.7c2.2,1.5,3.3,3,3.3,4.5l0,0c0,1.3-0.4,2.9-1.2,4.8
		c-0.8,2-1.8,3.7-3,5.1c-1.2,1.5-2.3,2.2-3.4,2.2l0,0c-0.5,0-1.3-0.3-2.5-0.8l0,0c-1.9-0.8-3.9-1.4-5.8-1.9c-2-0.5-4.4-0.7-7.2-0.7
		l0,0c-4.8,0-8.2,0.8-10.1,2.3s-2.8,3.4-2.8,5.4l0,0c0,2.4,0.6,4.4,1.9,6c1.3,1.6,2.9,2.9,4.9,4c1.9,1,4.7,2.3,8.2,3.6l0,0
		c5.3,2.2,9.6,4.3,12.9,6.3c3.3,2,6.2,4.9,8.6,8.6c2.4,3.8,3.7,8.6,3.7,14.4l0,0c0,7.2-1.5,13-4.5,17.6c-3,4.5-6.9,7.8-11.6,9.9
		C1681.5,444.7,1676.4,445.7,1670.9,445.7L1670.9,445.7z"/>
	<path class="st1" d="M1789.6,439.2l-30.7-89.4c-0.7-2-3.3-2.9-7.9-2.9h-7.2c-4.5,0-7.2,1-7.9,2.9l-30.7,89.4
		c-0.4,1.1-0.6,1.9-0.6,2.5c0,2,2.9,3,8.5,3h5.5c3.7,0,5.9-1,6.4-2.9l5.6-17h32.8l5.6,17c0.3,1,1.1,1.8,2.5,2.2
		c1.3,0.4,3.1,0.6,5.3,0.6h6.1c2.4,0,4.2-0.2,5.3-0.7c1.1-0.5,1.7-1.3,1.7-2.3C1789.9,441.1,1789.8,440.3,1789.6,439.2z
		 M1736.7,406.5l8.2-24.7c0.7-1.7,1.3-4.1,1.8-7.2l0.3-1.7h0.6c0.3,1.5,0.5,3,0.9,4.6c0.4,1.6,0.8,3,1.2,4.3l7.9,24.7H1736.7z"/>
	<path class="st1" d="M1807.9,444.8c-5.6,0-8.4-1.5-8.4-4.4l0,0v-89c0-1.5,0.7-2.6,2-3.4s3.5-1.1,6.3-1.1l0,0h7.3
		c4.4,0,7.3,1.3,8.7,3.8l0,0l23.4,41.5l1.2,2l1.2-2.4l23.5-41.1c1.4-2.5,4.3-3.8,8.8-3.8l0,0h7.3c5.6,0,8.4,1.5,8.4,4.5l0,0v89
		c0,2.9-2.8,4.4-8.4,4.4l0,0h-4.1c-5.6,0-8.4-1.5-8.4-4.4l0,0v-57.7l-0.5-0.2l-20.2,36.1c-1.2,1.8-3.1,2.7-5.6,2.7l0,0h-4
		c-1.3,0-2.4-0.2-3.3-0.7c-0.9-0.4-1.6-1.1-2.3-2l0,0l-20.2-36.1l-0.5,0.2v57.7c0,2.9-2.8,4.4-8.3,4.4l0,0H1807.9z"/>
	<path class="st1" d="M1997.4,368.7c-3.5-7.4-8.5-13.1-15.2-16.9c-3.3-1.9-7-3.4-11.1-4.3c-4-1-8.5-1.4-13.2-1.4
		c-9.5,0-17.5,1.9-24.2,5.8c-6.6,3.8-11.7,9.5-15.1,16.9c-1.7,3.7-3,7.8-3.9,12.4c-0.9,4.5-1.3,9.4-1.3,14.8
		c0,10.7,1.7,19.7,5.2,27.2c3.5,7.4,8.5,13.1,15.1,17c6.7,3.9,14.7,5.8,24.2,5.8c9.6,0,17.6-1.9,24.3-5.8c6.7-3.9,11.7-9.5,15.2-17
		c3.4-7.4,5.2-16.4,5.2-27.1v-0.1C2002.5,385.2,2000.8,376.1,1997.4,368.7z M1974.8,419.3c-3.8,5.4-9.4,8.1-16.9,8.1
		c-7.3,0-12.9-2.7-16.8-8.1c-1.9-2.7-3.4-6-4.3-9.9c-1-3.9-1.4-8.5-1.4-13.6c0-10.2,1.9-18,5.7-23.4c1.9-2.7,4.3-4.7,7.1-6
		c2.8-1.3,6.1-2,9.8-2c7.5,0,13.1,2.7,16.9,8c1.9,2.7,3.3,5.9,4.3,9.8c1,3.9,1.4,8.4,1.4,13.6
		C1980.6,406.1,1978.6,413.9,1974.8,419.3z"/>
	<path class="st1" d="M2060.8,445.7c-15.6,0-27.2-4.1-34.6-12.2c-7.4-8.1-11.1-20.8-11.1-37.9l0,0c0-33,15.5-49.5,46.5-49.5l0,0
		c4.2,0,8.6,0.4,13.1,1.2c4.5,0.8,8.4,2,11.4,3.5c3,1.5,4.5,3.2,4.5,5l0,0c0,1.3-0.5,3-1.5,5.1c-1,2.1-2.3,4-3.7,5.6
		c-1.4,1.6-2.7,2.4-3.8,2.4l0,0c-0.3,0-1-0.3-2.1-0.8l0,0c-2.5-1-5.1-1.9-7.8-2.6s-6.2-1.1-10.4-1.1l0,0c-8.2,0-14.2,2.6-18.2,7.8
		c-3.9,5.2-5.9,13-5.9,23.5l0,0c0,10.5,2,18.4,6,23.7c4,5.3,9.9,8,17.8,8l0,0c4.1,0,7.7-0.4,10.8-1.2c3.1-0.8,6-1.9,9-3.2l0,0
		c0.1,0,0.6-0.2,1.4-0.6c0.8-0.3,1.4-0.5,1.7-0.5l0,0c1.4,0,2.7,0.8,3.9,2.4c1.3,1.6,2.3,3.4,3,5.4c0.8,2,1.2,3.4,1.2,4.3l0,0
		c0,2.6-1.7,4.7-5.1,6.5c-3.4,1.8-7.5,3.1-12.4,3.9C2069.4,445.3,2065,445.7,2060.8,445.7L2060.8,445.7z"/>
	<path class="st1" d="M2114.9,444.8c-5.5,0-8.3-1.5-8.3-4.4l0,0v-89c0-1.5,0.7-2.6,2-3.4s3.4-1.1,6.3-1.1l0,0h4.9
		c2.9,0,5,0.4,6.3,1.1s2,1.9,2,3.4l0,0v34.3h37.5v-34.3c0-1.5,0.7-2.6,2-3.4c1.4-0.7,3.5-1.1,6.3-1.1l0,0h4.9c5.6,0,8.4,1.5,8.4,4.5
		l0,0v89c0,2.9-2.8,4.4-8.4,4.4l0,0h-4.9c-5.6,0-8.4-1.5-8.4-4.4l0,0v-36.3h-37.5v36.3c0,2.9-2.8,4.4-8.3,4.4l0,0H2114.9z"/>
	<path class="st1" d="M2287,368.7c-3.4-7.4-8.5-13.1-15.2-16.9c-3.3-1.9-7-3.4-11.1-4.3c-4-1-8.5-1.4-13.2-1.4
		c-9.5,0-17.5,1.9-24.2,5.8c-6.7,3.8-11.7,9.5-15.2,16.9c-1.7,3.7-3,7.8-3.9,12.4c-0.9,4.5-1.3,9.4-1.3,14.8
		c0,10.7,1.7,19.7,5.2,27.2s8.5,13.1,15.2,17c6.6,3.9,14.7,5.8,24.2,5.8c9.6,0,17.6-1.9,24.3-5.8c6.7-3.9,11.7-9.5,15.2-17
		c1.7-3.7,3-7.8,3.9-12.4c0.9-4.5,1.3-9.5,1.3-14.8C2292.2,385.2,2290.5,376.1,2287,368.7z M2264.5,419.3c-3.8,5.4-9.5,8.1-16.9,8.1
		c-7.3,0-12.9-2.7-16.8-8.1c-1.9-2.7-3.4-6-4.3-9.9c-1-3.9-1.4-8.5-1.4-13.6c0-10.2,1.9-18,5.7-23.4c1.9-2.7,4.3-4.7,7.1-6
		c2.8-1.3,6.1-2,9.8-2c7.5,0,13.1,2.7,16.9,8c1.9,2.7,3.3,5.9,4.3,9.8c1,3.9,1.4,8.4,1.4,13.6
		C2270.2,406.1,2268.3,413.9,2264.5,419.3z"/>
	<path class="st1" d="M2384.1,369.3c-3.4-7.2-8.5-12.7-15.1-16.5c-6.7-3.7-14.7-5.6-24.3-5.6h-31.1c-2,0-3.4,0.4-4.2,1.3
		c-0.9,0.9-1.4,2.3-1.4,4.2V439c0,1.9,0.4,3.3,1.4,4.2c0.9,0.9,2.3,1.3,4.2,1.3h31.1c9.6,0,17.6-1.9,24.3-5.6
		c6.7-3.8,11.7-9.3,15.1-16.5c1.7-3.6,3-7.6,3.8-12.1c0.9-4.4,1.3-9.3,1.3-14.5C2389.2,385.4,2387.5,376.5,2384.1,369.3z
		 M2361.5,418.5c-3.8,5.2-9.4,7.8-16.8,7.8h-15.1v-60.9h15.1c7.4,0,13,2.6,16.8,7.8c1.9,2.6,3.3,5.8,4.3,9.5
		c0.9,3.8,1.4,8.1,1.4,13.1C2367.2,405.8,2365.3,413.3,2361.5,418.5z"/>
	<path class="st0" d="M2406.5,444.8c-5.6,0-8.4-1.5-8.4-4.4l0,0v-12.8c0-3,2.8-4.5,8.4-4.5l0,0h4.5c2.9,0,5,0.4,6.3,1.1
		c1.3,0.8,2,1.9,2,3.3l0,0v12.8c0,2.9-2.8,4.4-8.3,4.4l0,0H2406.5z"/>
	<path class="st0" d="M2490.1,353.6c-6.7-4.2-14.3-6.3-23-6.3h-29.3c-1.9,0-3.3,0.4-4.2,1.3c-0.9,0.9-1.3,2.3-1.3,4.2v87.7
		c0,2.9,2.8,4.3,8.4,4.3h4.7c5.6,0,8.4-1.4,8.4-4.3v-32.3h14.7c3.8,0,8.1-0.8,12.9-2.3c4.8-1.6,9.2-4.6,13-9.1
		c1.9-2.3,3.4-5,4.3-8.1c1-3.2,1.4-6.8,1.4-10.8C2500.1,365.8,2496.8,357.8,2490.1,353.6z M2474.7,387.1c-2.4,1.8-5.2,2.7-8.6,2.7
		h-12.4v-24.3h12.4c3.3,0,6.1,0.9,8.5,2.8c1.2,0.9,2.1,2.2,2.7,3.7c0.6,1.6,0.9,3.5,0.9,5.8C2478.2,382.2,2477,385.3,2474.7,387.1z"
		/>
	<path class="st0" d="M2517.2,444.5c-1.9,0-3.3-0.4-4.2-1.3c-0.9-0.9-1.3-2.3-1.3-4.2l0,0v-87.6c0-1.5,0.7-2.6,2-3.4
		s3.5-1.1,6.3-1.1l0,0h4.7c2.9,0,5,0.4,6.3,1.1s2,1.9,2,3.4l0,0v74.9h31c1.5,0,2.5,0.5,3.2,1.6c0.7,1.1,1,2.9,1,5.3l0,0v4.4
		c0,2.4-0.3,4.2-1,5.3c-0.6,1.1-1.7,1.6-3.2,1.6l0,0H2517.2z"/>
	<g>
		<path class="st0" d="M1441.9,181.6c37.7-15.6,77.4-27.7,118.4-29.2c10.3-0.2,20.7,0.3,30.6,3.2c22.7,11.1,46.2,20.3,69.5,30.2
			c16.8,5.6,34.7,3.5,52.1,4.6c10.6,0.5,21.2,1.3,31.7,3.1c8.2,1.4,15.9,5,22.9,9.4c13.8,4,26.8,10.4,38.8,18.3c2,1.3,4.1,3,4.5,5.6
			c0.3,4.4-5,6.2-5.9,10.2c-0.8,2.4,3.1,2.8,2.6,5.1c-0.7,3.2-4.3,4.3-7,5.5c-17,5.8-35.2,6.6-53,8c0.1-10.2-1.3-20.8-5.8-30
			c-5.5-9.3-15-16.5-25.8-18.1c-14-2.2-29.9,1-39.4,12.2c-9.5,11-10.8,26.5-10,40.4c-56.1,2.3-112.3,6-168.4,8.3
			c0.2-6.7,0.7-13.6-1.2-20.2c-2.5-9.2-8.1-17.8-16.5-22.6c-10.1-6-22.8-6.4-33.8-3.1c-8.6,2.6-16.1,8.6-20.2,16.6
			c-5.7,10.1-5.2,22.1-5.7,33.3c-16,0.2-32-0.9-47.9-2.4c-7.2-2.9-14.3-6.4-20.7-10.9c-2.8-2.9-3.1-7.3-4.5-10.9
			c-1-4.6-3.4-9.6-0.7-14c6.9-12.5,19.7-19.7,31.1-27.4c-2.8-0.3-6.2-0.7-8.4-2.4l0.1-1.1c3.3-0.5,6.8,0.5,10-0.4
			c-2.5-4.6-6.5-8.6-10.1-12.5c-2.5-0.9-5.5-0.8-7.8-2.5c0.1-0.4,0.2-1.1,0.2-1.5c6.9-1.5,14.1-1.6,21.1-2.1
			c4.7-0.3,9.7-0.8,14.3,0.8c0.4,3-4,2.3-4.1,4.7c2.1,2.6,4.4,5,7.2,6.8c3.6-0.9,6.9-2.5,10.6-3.2
			C1421.5,190.3,1431.6,185.6,1441.9,181.6z M1541.6,159.2c-9.5,1.2-19.1,2.5-28.4,5c3.8,10.4,7.9,20.9,12.2,31.1
			c35.8-0.7,71.7-2.3,107.4-4.2l-0.3-0.9c-13-7.7-25.7-16-39.1-23.1c-7.6-3.8-15.3-7.8-23.8-8.6
			C1560.3,157.6,1550.9,158.7,1541.6,159.2z M1462.4,180.7c-7.1,3.2-14.8,5.8-20.9,10.9c-1.6,2.4,1.8,3.3,3.5,3.7
			c10.8,1.9,21.8,1.4,32.7,1.5c12.3-0.2,24.6-0.3,36.9-0.7c-3.6-9.9-7.8-19.6-11.6-29.5C1489.2,170.2,1475.7,175.3,1462.4,180.7z"/>
		<path class="st0" d="M1699.1,210.5c8.7-1.9,18.1-0.3,25.5,4.5c8.7,5.3,14.6,14.9,15.6,25c1,8.9-1.9,18.1-7.7,25
			c-7.7,9.3-20.6,13.8-32.4,11.5c-14.8-2.4-26.9-15.6-27.8-30.5C1670.6,229.7,1682.9,213.5,1699.1,210.5z"/>
		<path class="st0" d="M1451.8,223.4c8-1.8,16.6-0.8,23.8,3.1c8.7,4.5,15.3,13,17.3,22.6c1.9,8.7,0.2,18.2-4.8,25.7
			c-5.6,8.6-15.3,14.3-25.6,15.1c-10.3,1-21-3.1-28-10.7c-7.8-8.1-10.8-20.3-8-31.1C1429.4,235.9,1439.7,226.2,1451.8,223.4z"/>
	</g>
	<rect x="1850.4" y="276" class="st0" width="339.6" height="9"/>
	<rect x="965.6" y="276" class="st0" width="339.6" height="9"/>
</g>
<rect x="582.2" y="152.3" class="st2" width="1991.2" height="293.4"/>
</svg>
