<svg xmlns="http://www.w3.org/2000/svg" version="1.1" xmlns:xlink="http://www.w3.org/1999/xlink" xmlns:svgjs="http://svgjs.dev/svgjs" width="1000" height="169" viewBox="0 0 1000 169"><g transform="matrix(1,0,0,1,-0.6060606060606233,-0.30292074170633043)"><svg viewBox="0 0 396 67" data-background-color="#ffffff" preserveAspectRatio="xMidYMid meet" height="169" width="1000" xmlns="http://www.w3.org/2000/svg" xmlns:xlink="http://www.w3.org/1999/xlink"><g id="tight-bounds" transform="matrix(1,0,0,1,0.2400000000000091,0.12009283842795071)"><svg viewBox="0 0 395.52 66.7598143231441" height="66.7598143231441" width="395.52"><g><svg viewBox="0 0 395.52 66.7598143231441" height="66.7598143231441" width="395.52"><g><svg viewBox="0 0 395.52 66.7598143231441" height="66.7598143231441" width="395.52"><g id="textblocktransform"><svg viewBox="0 0 395.52 66.7598143231441" height="66.7598143231441" width="395.52" id="textblock"><g><svg viewBox="0 0 395.52 66.7598143231441" height="66.7598143231441" width="395.52"><rect width="395.52" height="66.7598143231441" x="0" y="0" opacity="1" fill="#e06826" data-fill-palette-color="tertiary"></rect><g transform="matrix(1,0,0,1,23.607599999999998,23.607599999999998)"><svg width="348.3048" viewBox="0.9000000357627869 -32.95000076293945 686.9400024414062 38.54999923706055" height="19.544614323144103" data-palette-color="#ffffff"><path d="M15.25-32.95Q20-32.95 24.65-31.2L24.65-31.2 23.05-23.05 21.65-22.45Q19.55-23.75 17.5-24.5 15.45-25.25 14.2-25.25L14.2-25.25Q13.05-25.25 12.38-24.8 11.7-24.35 11.7-23.6L11.7-23.6Q11.7-22.65 12.73-21.98 13.75-21.3 16.15-20.2L16.15-20.2Q18.95-18.95 20.75-17.88 22.55-16.8 23.9-14.93 25.25-13.05 25.25-10.3L25.25-10.3Q25.25-7.25 23.58-4.78 21.9-2.3 18.8-0.85 15.7 0.6 11.6 0.6L11.6 0.6Q6.5 0.6 0.9-1.3L0.9-1.3 2.35-10 3.35-10.6Q5.65-8.85 8.28-7.83 10.9-6.8 12.65-6.8L12.65-6.8Q14.05-6.8 14.68-7.28 15.3-7.75 15.3-8.45L15.3-8.45Q15.3-9.5 14.23-10.23 13.15-10.95 10.75-12L10.75-12Q8-13.2 6.23-14.28 4.45-15.35 3.15-17.23 1.85-19.1 1.85-21.85L1.85-21.85Q1.85-25 3.55-27.53 5.25-30.05 8.3-31.5 11.35-32.95 15.25-32.95L15.25-32.95ZM44.75-32.4Q50.2-32.4 53.12-29.73 56.05-27.05 56.05-22.1L56.05-22.1Q56.05-18.25 54.25-15.33 52.45-12.4 49.15-10.78 45.85-9.15 41.55-9.15L41.55-9.15 39.1-9.15 39.45 0 29.4 0 29.9-9.5 29.4-32.35 44.75-32.4ZM42.95-16.15Q44.3-16.9 44.92-18.07 45.55-19.25 45.55-21.1L45.55-21.1Q45.55-23.3 44.5-24.33 43.45-25.35 41.2-25.45L41.2-25.45 39.4-25.3 39.2-16.35 42.95-16.15ZM80.34-12.75Q83.95-7.15 87.55-2.35L87.55-2.35 87.4-1.25Q82.3 0.3 77.34 0.6L77.34 0.6 76.4-0.2 75.8-1.45Q75.4-2.25 74.2-4.83 73-7.4 72.09-9.65L72.09-9.65 68.75-9.65 69.09 0 59.05 0 59.55-9.5 59.05-32.35 74.4-32.4Q79.84-32.4 82.8-29.83 85.75-27.25 85.75-22.4L85.75-22.4Q85.75-19.55 84.32-17.05 82.9-14.55 80.34-12.75L80.34-12.75ZM75.2-21.4Q75.2-23.4 74.17-24.38 73.15-25.35 70.84-25.45L70.84-25.45 69.05-25.3 68.84-16.95 72.5-16.75Q73.9-17.4 74.55-18.5 75.2-19.6 75.2-21.4L75.2-21.4ZM114.49-32.4L114.49-25.2 100.74-7.4 108.79-7.4 114.94-7.85 115.24-7.4 114.44 0.25 105.54 0 94.04 0 88.99 0.3 88.99-6.85 102.99-24.95 95.14-24.95 89.14-24.45 88.79-24.85 89.49-32.5 96.99-32.35 110.69-32.35 114.49-32.4ZM133.64-7.7L141.94-8 142.49-7.3 141.89 0 119.09 0 119.59-9.5 119.09-32.35 142.29-32.35 142.84-31.65 142.19-24.35 134.24-24.65 129.09-24.65 128.99-20.1 133.94-20.1 139.14-20.25 139.69-19.55 139.09-12.25 133.29-12.4 128.79-12.4 128.74-10.5 128.84-7.7 133.64-7.7ZM160.74-32.55Q167.89-32.55 171.71-28.68 175.54-24.8 175.54-17.5L175.54-17.5Q175.54-8.85 171.09-4.2 166.64 0.45 158.34 0.45L158.34 0.45Q153.14 0.45 146.14 0L146.14 0 146.64-9.5 146.14-32.35 160.74-32.55ZM160.24-7Q162.59-7 163.81-8.88 165.04-10.75 165.04-15.05L165.04-15.05Q165.04-18.7 164.54-20.8 164.04-22.9 162.94-23.83 161.84-24.75 159.89-24.75L159.89-24.75Q157.99-24.75 156.14-24.55L156.14-24.55 155.79-10.5 155.89-7.4Q158.89-7 160.24-7L160.24-7ZM197.39-32.35L206.24 0 196.09 0 195.19-5.35 195.14-5.5 190.24-5.6 186.14-5.4 185.29 0 175.49 0 185.29-32.35 197.39-32.35ZM190.84-12.75L193.64-12.8 191.44-23.4 190.84-23.4 188.04-12.8 190.84-12.75ZM242.83-32.35L245.43 0 236.63 0 236.38-9.8 235.83-17.95 235.23-17.95 230.03-3.05 222.48-3.05 218.18-17.95 217.58-17.95 216.88-10.75 216.38 0 208.03 0 211.18-32.35 222.73-32.35 223.68-27.75 226.53-16 227.13-16 230.28-27.4 231.43-32.35 242.83-32.35ZM272.13-32.35L272.68-31.65 272.13-24.35 265.53-24.65 264.93-24.65 264.68-10.5 265.08 0 255.08 0 255.58-9.5 255.33-24.65 254.68-24.65 248.03-24.35 247.43-25.05 247.98-32.35 272.13-32.35ZM318.68-32.35L309.13 0 298.53 0 295.48-11.7 294.88-11.7 292.08 0 281.43 0 273.83-32.35 283.53-32.35 284.03-27.35 287.18-10.05 287.78-10.05 291.53-24.8 289.83-32.35 299.93-32.35 300.63-26.35 304.03-10.05 304.63-10.05 308.58-26.75 309.48-32.35 318.68-32.35ZM334.23-32.95Q341.28-32.95 345.13-28.78 348.98-24.6 348.98-17L348.98-17Q348.98-8.6 344.75-4 340.53 0.6 332.78 0.6L332.78 0.6Q325.73 0.6 321.88-3.63 318.03-7.85 318.03-15.6L318.03-15.6Q318.03-23.9 322.25-28.43 326.48-32.95 334.23-32.95L334.23-32.95ZM333.32-24.95Q331.38-24.95 330.38-24.28 329.38-23.6 328.95-21.9 328.53-20.2 328.53-16.95L328.53-16.95Q328.53-12.8 328.98-10.65 329.43-8.5 330.5-7.65 331.57-6.8 333.68-6.8L333.68-6.8Q335.63-6.8 336.63-7.48 337.63-8.15 338.05-9.88 338.48-11.6 338.48-14.85L338.48-14.85Q338.48-18.95 338.03-21.1 337.57-23.25 336.5-24.1 335.43-24.95 333.32-24.95L333.32-24.95ZM365.52-32.35L364.97-10.65 365.07-6.2Q365.07-3.05 364.02-0.9 362.97 1.25 360.55 2.8 358.12 4.35 353.82 5.6L353.82 5.6 351.22 0.45 351.22-0.35Q353.77-1.6 354.8-2.95 355.82-4.3 355.82-6.5L355.82-6.5 355.82-9.65 355.47-25.3 351.22-25.15 350.67-25.8 351.07-32.35 365.52-32.35ZM383.67-32.95Q388.42-32.95 393.07-31.2L393.07-31.2 391.47-23.05 390.07-22.45Q387.97-23.75 385.92-24.5 383.87-25.25 382.62-25.25L382.62-25.25Q381.47-25.25 380.8-24.8 380.12-24.35 380.12-23.6L380.12-23.6Q380.12-22.65 381.15-21.98 382.17-21.3 384.57-20.2L384.57-20.2Q387.37-18.95 389.17-17.88 390.97-16.8 392.32-14.93 393.67-13.05 393.67-10.3L393.67-10.3Q393.67-7.25 392-4.78 390.32-2.3 387.22-0.85 384.12 0.6 380.02 0.6L380.02 0.6Q374.92 0.6 369.32-1.3L369.32-1.3 370.77-10 371.77-10.6Q374.07-8.85 376.69-7.83 379.32-6.8 381.07-6.8L381.07-6.8Q382.47-6.8 383.1-7.28 383.72-7.75 383.72-8.45L383.72-8.45Q383.72-9.5 382.65-10.23 381.57-10.95 379.17-12L379.17-12Q376.42-13.2 374.65-14.28 372.87-15.35 371.57-17.23 370.27-19.1 370.27-21.85L370.27-21.85Q370.27-25 371.97-27.53 373.67-30.05 376.72-31.5 379.77-32.95 383.67-32.95L383.67-32.95ZM416.82-32.35L425.67 0 415.52 0 414.62-5.35 414.57-5.5 409.67-5.6 405.57-5.4 404.72 0 394.92 0 404.72-32.35 416.82-32.35ZM410.27-12.75L413.07-12.8 410.87-23.4 410.27-23.4 407.47-12.8 410.27-12.75ZM462.27-32.35L464.87 0 456.06 0 455.81-9.8 455.27-17.95 454.67-17.95 449.47-3.05 441.92-3.05 437.62-17.95 437.02-17.95 436.31-10.75 435.81 0 427.47 0 430.62-32.35 442.17-32.35 443.12-27.75 445.97-16 446.56-16 449.72-27.4 450.87-32.35 462.27-32.35ZM483.51-32.95Q490.56-32.95 494.41-28.78 498.26-24.6 498.26-17L498.26-17Q498.26-8.6 494.04-4 489.81 0.6 482.06 0.6L482.06 0.6Q475.01 0.6 471.16-3.63 467.31-7.85 467.31-15.6L467.31-15.6Q467.31-23.9 471.54-28.43 475.76-32.95 483.51-32.95L483.51-32.95ZM482.61-24.95Q480.66-24.95 479.66-24.28 478.66-23.6 478.24-21.9 477.81-20.2 477.81-16.95L477.81-16.95Q477.81-12.8 478.26-10.65 478.71-8.5 479.79-7.65 480.86-6.8 482.96-6.8L482.96-6.8Q484.91-6.8 485.91-7.48 486.91-8.15 487.34-9.88 487.76-11.6 487.76-14.85L487.76-14.85Q487.76-18.95 487.31-21.1 486.86-23.25 485.79-24.1 484.71-24.95 482.61-24.95L482.61-24.95ZM516.71-32.9Q521.01-32.9 524.81-31.55L524.81-31.55 523.11-23.6 522.46-23.2Q521.16-23.9 519.46-24.33 517.76-24.75 516.31-24.75L516.31-24.75Q513.26-24.75 511.91-22.98 510.56-21.2 510.56-17.05L510.56-17.05Q510.56-12.2 512.11-9.98 513.66-7.75 516.96-7.75L516.96-7.75Q518.36-7.75 520.09-8.03 521.81-8.3 523.11-8.8L523.11-8.8 523.91-8.3 523.11-0.4Q520.11 0.55 516.16 0.55L516.16 0.55Q508.11 0.55 504.04-3.65 499.96-7.85 499.96-15.9L499.96-15.9Q499.96-24 504.34-28.45 508.71-32.9 516.71-32.9L516.71-32.9ZM557.76-32.35L557.21-10.5 557.61 0 547.56 0 548.06-9.5 548.01-12 542.61-12.1 537.96-11.95 537.91-10.5 538.31 0 528.26 0 528.76-9.5 528.26-32.35 538.46-32.35 538.16-20.1 543.21-20 547.81-20.1 547.56-32.35 557.76-32.35ZM577.4-32.95Q584.45-32.95 588.3-28.78 592.15-24.6 592.15-17L592.15-17Q592.15-8.6 587.93-4 583.7 0.6 575.95 0.6L575.95 0.6Q568.9 0.6 565.05-3.63 561.2-7.85 561.2-15.6L561.2-15.6Q561.2-23.9 565.43-28.43 569.65-32.95 577.4-32.95L577.4-32.95ZM576.5-24.95Q574.55-24.95 573.55-24.28 572.55-23.6 572.13-21.9 571.7-20.2 571.7-16.95L571.7-16.95Q571.7-12.8 572.15-10.65 572.6-8.5 573.68-7.65 574.75-6.8 576.85-6.8L576.85-6.8Q578.8-6.8 579.8-7.48 580.8-8.15 581.23-9.88 581.65-11.6 581.65-14.85L581.65-14.85Q581.65-18.95 581.2-21.1 580.75-23.25 579.68-24.1 578.6-24.95 576.5-24.95L576.5-24.95ZM610.05-32.55Q617.2-32.55 621.03-28.68 624.85-24.8 624.85-17.5L624.85-17.5Q624.85-8.85 620.4-4.2 615.95 0.45 607.65 0.45L607.65 0.45Q602.45 0.45 595.45 0L595.45 0 595.95-9.5 595.45-32.35 610.05-32.55ZM609.55-7Q611.9-7 613.13-8.88 614.35-10.75 614.35-15.05L614.35-15.05Q614.35-18.7 613.85-20.8 613.35-22.9 612.25-23.83 611.15-24.75 609.2-24.75L609.2-24.75Q607.3-24.75 605.45-24.55L605.45-24.55 605.1-10.5 605.2-7.4Q608.2-7 609.55-7L609.55-7ZM630.1-9.5Q632.3-9.5 633.52-8.25 634.75-7 634.75-4.75L634.75-4.75Q634.75-2.35 633.4-0.95 632.05 0.45 629.7 0.45L629.7 0.45Q627.4 0.45 626.2-0.78 625-2 625-4.3L625-4.3Q625-6.7 626.37-8.1 627.75-9.5 630.1-9.5L630.1-9.5ZM653.95-32.4Q659.4-32.4 662.32-29.73 665.25-27.05 665.25-22.1L665.25-22.1Q665.25-18.25 663.45-15.33 661.65-12.4 658.35-10.78 655.05-9.15 650.75-9.15L650.75-9.15 648.3-9.15 648.65 0 638.6 0 639.1-9.5 638.6-32.35 653.95-32.4ZM652.15-16.15Q653.5-16.9 654.12-18.07 654.75-19.25 654.75-21.1L654.75-21.1Q654.75-23.3 653.7-24.33 652.65-25.35 650.4-25.45L650.4-25.45 648.6-25.3 648.4-16.35 652.15-16.15ZM687.29-8.2L687.84-7.5 687.24 0 667.99 0 668.49-9.5 667.99-32.35 678.19-32.35 677.64-10.5 677.74-8.2 687.29-8.2Z" opacity="1" transform="matrix(1,0,0,1,0,0)" fill="#ffffff" class="undefined-text-0" data-fill-palette-color="quaternary" id="text-0"></path></svg></g></svg></g></svg></g></svg></g><g></g></svg></g><defs></defs></svg><rect width="395.52" height="66.7598143231441" fill="none" stroke="none" visibility="hidden"></rect></g></svg></g></svg>