<svg xmlns="http://www.w3.org/2000/svg" version="1.1" xmlns:xlink="http://www.w3.org/1999/xlink" xmlns:svgjs="http://svgjs.dev/svgjs" width="1000" height="623" viewBox="0 0 1000 623"><g transform="matrix(1,0,0,1,-0.6060606060606233,0.2522267206477409)"><svg viewBox="0 0 396 247" data-background-color="#ffffff" preserveAspectRatio="xMidYMid meet" height="623" width="1000" xmlns="http://www.w3.org/2000/svg" xmlns:xlink="http://www.w3.org/1999/xlink"><g id="tight-bounds" transform="matrix(1,0,0,1,0.2400000000000091,-0.09999999999999432)"><svg viewBox="0 0 395.52 247.2" height="247.2" width="395.52"><g><svg></svg></g><g><svg viewBox="0 0 395.52 247.2" height="247.2" width="395.52"><g transform="matrix(1,0,0,1,39.55199999999999,107.92614241486068)"><svg viewBox="0 0 316.416 31.347715170278637" height="31.347715170278637" width="316.416"><g><svg viewBox="0 0 316.416 31.347715170278637" height="31.347715170278637" width="316.416"><g><svg viewBox="0 0 316.416 31.347715170278637" height="31.347715170278637" width="316.416"><g><svg viewBox="0 0 316.416 31.347715170278637" height="31.347715170278637" width="316.416"><g id="textblocktransform"><svg viewBox="0 0 316.416 31.347715170278637" height="31.347715170278637" width="316.416" id="textblock"><g><svg viewBox="0 0 316.416 31.347715170278637" height="31.347715170278637" width="316.416"><g transform="matrix(1,0,0,1,0,0)"><svg width="316.416" viewBox="1.4500000476837158 -37.5 500.5999755859375 49.599998474121094" height="31.347715170278637" data-palette-color="#000000"><path d="M8.6 0.5Q6.55 0.5 4.88 0.08 3.2-0.35 1.45-1.25L1.45-1.25 2-6.55Q5.5-4.15 8.15-4.15L8.15-4.15Q9.85-4.15 10.75-4.8 11.65-5.45 11.65-6.6L11.65-6.6Q11.65-7.8 10.83-8.58 10-9.35 7.6-10.5L7.6-10.5Q4.4-12.05 2.98-13.68 1.55-15.3 1.55-18.15L1.55-18.15Q1.55-21.4 3.85-23.4 6.15-25.4 10.05-25.4L10.05-25.4Q13.55-25.4 16.6-23.55L16.6-23.55 16.05-18.4Q14.6-19.65 13.28-20.3 11.95-20.95 10.45-20.95L10.45-20.95Q9-20.95 8.13-20.33 7.25-19.7 7.25-18.55L7.25-18.55Q7.25-17.4 8.18-16.68 9.1-15.95 11.9-14.5L11.9-14.5Q14.7-13.05 16.03-11.33 17.35-9.6 17.35-6.85L17.35-6.85Q17.35-3.45 14.98-1.48 12.6 0.5 8.6 0.5L8.6 0.5ZM32.45-25.4Q35.5-25.4 37.67-23.65 39.85-21.9 40.97-18.95 42.1-16 42.1-12.45L42.1-12.45Q42.1-8.9 40.97-5.95 39.85-3 37.67-1.25 35.5 0.5 32.45 0.5L32.45 0.5Q30.55 0.5 29.22 0.08 27.9-0.35 26.7-1.3L26.7-1.3 26.7 12.1 20.7 12.1 20.7-25 25.5-25 26.15-22.7Q27.5-24 29-24.7 30.5-25.4 32.45-25.4L32.45-25.4ZM31.3-4.4Q33.5-4.4 34.75-6.63 36-8.85 36-12.45L36-12.45Q36-16.05 34.75-18.28 33.5-20.5 31.3-20.5L31.3-20.5Q28.85-20.5 27.62-18.32 26.4-16.15 26.4-12.45L26.4-12.45Q26.4-8.75 27.62-6.58 28.85-4.4 31.3-4.4L31.3-4.4ZM45.34 0L45.34-25 50.59-25 50.99-22.35Q52.39-23.9 53.62-24.65 54.84-25.4 56.49-25.4L56.49-25.4Q57.2-25.4 57.8-25.25L57.8-25.25 57.34-19.2Q56.59-19.45 55.74-19.45L55.74-19.45Q54.55-19.45 53.59-18.9 52.64-18.35 51.34-17.05L51.34-17.05 51.34 0 45.34 0ZM76.74-25L66.94-5.05 76.44-5.05 76.44 0 58.34 0 68.14-19.95 58.99-19.95 58.99-25 76.74-25ZM90.04 0.5Q86.24 0.5 83.59-1.25 80.94-3 79.62-5.95 78.29-8.9 78.29-12.5L78.29-12.5Q78.29-16.2 79.54-19.13 80.79-22.05 83.24-23.73 85.69-25.4 89.09-25.4L89.09-25.4Q93.34-25.4 95.79-22.4 98.24-19.4 98.24-14.35L98.24-14.35Q98.24-12.9 97.94-11.15L97.94-11.15 84.49-11.15Q84.79-7.75 86.49-6.08 88.19-4.4 90.69-4.4L90.69-4.4Q94.09-4.4 97.14-6.4L97.14-6.4 97.29-1.15Q94.24 0.5 90.04 0.5L90.04 0.5ZM84.54-15.35L92.19-15.35Q92.19-20.5 88.69-20.5L88.69-20.5Q85.24-20.5 84.54-15.35L84.54-15.35ZM115.64-37.5L121.64-37.5 121.64 0 115.99 0 115.89-1.6Q114.69-0.55 113.31-0.03 111.94 0.5 110.14 0.5L110.14 0.5Q107.04 0.5 104.79-1.25 102.54-3 101.39-5.95 100.24-8.9 100.24-12.45L100.24-12.45Q100.24-16 101.39-18.95 102.54-21.9 104.79-23.65 107.04-25.4 110.14-25.4L110.14-25.4Q113.39-25.4 115.64-23.45L115.64-23.45 115.64-37.5ZM111.04-4.4Q113.49-4.4 114.71-6.58 115.94-8.75 115.94-12.45L115.94-12.45Q115.94-16.15 114.71-18.32 113.49-20.5 111.04-20.5L111.04-20.5Q108.84-20.5 107.59-18.3 106.34-16.1 106.34-12.45L106.34-12.45Q106.34-8.8 107.59-6.6 108.84-4.4 111.04-4.4L111.04-4.4ZM131.39 0.5Q128.59 0.5 126.66-1.33 124.74-3.15 124.74-6.45L124.74-6.45Q124.74-9.9 126.81-11.98 128.89-14.05 131.61-14.95 134.34-15.85 136.59-15.95L136.59-15.95Q136.59-18.15 135.79-19.1 134.99-20.05 133.04-20.05L133.04-20.05Q131.54-20.05 130.14-19.58 128.74-19.1 126.99-18.15L126.99-18.15 126.59-23.2Q130.59-25.4 134.64-25.4L134.64-25.4Q138.39-25.4 140.51-23.18 142.64-20.95 142.64-16.15L142.64-16.15 142.64-8.6Q142.64-6.75 142.79-5.9 142.94-5.05 143.26-4.83 143.59-4.6 144.29-4.6L144.29-4.6 145.09-4.6 144.69 0.5 142.04 0.5Q140.64 0.5 139.36-0.3 138.09-1.1 137.49-2.4L137.49-2.4Q136.14-0.95 134.74-0.23 133.34 0.5 131.39 0.5L131.39 0.5ZM133.44-4.25Q135.14-4.25 136.64-6.05L136.64-6.05 136.64-11.75Q134.24-11.45 132.64-10.33 131.04-9.2 131.04-7.05L131.04-7.05Q131.04-5.6 131.69-4.93 132.34-4.25 133.44-4.25L133.44-4.25ZM172.08-25.4Q176.08-25.4 178.18-22.93 180.28-20.45 180.28-16.25L180.28-16.25 180.28 0 174.28 0 174.28-15.45Q174.28-17.9 173.48-19.2 172.68-20.5 170.83-20.5L170.83-20.5Q168.98-20.5 168.01-19.43 167.03-18.35 167.03-16.25L167.03-16.25 167.03 0 161.03 0 161.03-15.45Q161.03-20.5 157.63-20.5L157.63-20.5Q155.28-20.5 153.78-18.35L153.78-18.35 153.78 0 147.78 0 147.78-25 152.88-25 153.13-23Q155.43-25.4 158.98-25.4L158.98-25.4Q161.03-25.4 162.63-24.55 164.23-23.7 165.13-22.15L165.13-22.15Q166.33-23.7 168.11-24.55 169.88-25.4 172.08-25.4L172.08-25.4ZM191.88 0.5Q189.03 0.5 187.51-1.15 185.98-2.8 185.98-6.05L185.98-6.05 185.98-19.9 183.18-19.9 183.73-25 185.98-25 185.98-30.5 191.98-31.15 191.98-25 196.33-25 196.33-19.9 191.98-19.9 191.98-7.6Q191.98-6.05 192.61-5.33 193.23-4.6 194.58-4.6L194.58-4.6 196.38-4.6 195.83 0.5 191.88 0.5ZM204.43 0L197.43-25 203.48-25 207.13-8 210.58-24.5 215.58-24.5 219.18-8 222.63-25 228.68-25 221.73 0 216.58 0 213.08-16.1 209.58 0 204.43 0ZM240.78 0.5Q237.38 0.5 234.88-1.25 232.38-3 231.05-5.95 229.73-8.9 229.73-12.45L229.73-12.45Q229.73-16 231.05-18.95 232.38-21.9 234.88-23.65 237.38-25.4 240.78-25.4L240.78-25.4Q244.18-25.4 246.7-23.65 249.23-21.9 250.55-18.95 251.88-16 251.88-12.45L251.88-12.45Q251.88-8.9 250.55-5.95 249.23-3 246.7-1.25 244.18 0.5 240.78 0.5L240.78 0.5ZM240.78-4.4Q243.13-4.4 244.45-6.6 245.78-8.8 245.78-12.45L245.78-12.45Q245.78-16.1 244.45-18.3 243.13-20.5 240.78-20.5L240.78-20.5Q238.48-20.5 237.15-18.28 235.83-16.05 235.83-12.45L235.83-12.45Q235.83-8.85 237.15-6.63 238.48-4.4 240.78-4.4L240.78-4.4ZM255.27-28.8L255.27-35 261.27-35 261.27-28.8 255.27-28.8ZM253.42 12.1L252.92 7Q254.17 7 254.72 6.3 255.27 5.6 255.27 3.9L255.27 3.9 255.27-25 261.27-25 261.27 5.55Q261.27 8.85 259.77 10.48 258.27 12.1 254.97 12.1L254.97 12.1 253.42 12.1ZM272.07 0.5Q270.02 0.5 268.35 0.08 266.67-0.35 264.92-1.25L264.92-1.25 265.47-6.55Q268.97-4.15 271.62-4.15L271.62-4.15Q273.32-4.15 274.22-4.8 275.12-5.45 275.12-6.6L275.12-6.6Q275.12-7.8 274.3-8.58 273.47-9.35 271.07-10.5L271.07-10.5Q267.87-12.05 266.45-13.68 265.02-15.3 265.02-18.15L265.02-18.15Q265.02-21.4 267.32-23.4 269.62-25.4 273.52-25.4L273.52-25.4Q277.02-25.4 280.07-23.55L280.07-23.55 279.52-18.4Q278.07-19.65 276.75-20.3 275.42-20.95 273.92-20.95L273.92-20.95Q272.47-20.95 271.6-20.33 270.72-19.7 270.72-18.55L270.72-18.55Q270.72-17.4 271.65-16.68 272.57-15.95 275.37-14.5L275.37-14.5Q278.17-13.05 279.5-11.33 280.82-9.6 280.82-6.85L280.82-6.85Q280.82-3.45 278.45-1.48 276.07 0.5 272.07 0.5L272.07 0.5ZM289.17 0.5Q286.37 0.5 284.44-1.33 282.52-3.15 282.52-6.45L282.52-6.45Q282.52-9.9 284.59-11.98 286.67-14.05 289.39-14.95 292.12-15.85 294.37-15.95L294.37-15.95Q294.37-18.15 293.57-19.1 292.77-20.05 290.82-20.05L290.82-20.05Q289.32-20.05 287.92-19.58 286.52-19.1 284.77-18.15L284.77-18.15 284.37-23.2Q288.37-25.4 292.42-25.4L292.42-25.4Q296.17-25.4 298.29-23.18 300.42-20.95 300.42-16.15L300.42-16.15 300.42-8.6Q300.42-6.75 300.57-5.9 300.72-5.05 301.04-4.83 301.37-4.6 302.07-4.6L302.07-4.6 302.87-4.6 302.47 0.5 299.82 0.5Q298.42 0.5 297.14-0.3 295.87-1.1 295.27-2.4L295.27-2.4Q293.92-0.95 292.52-0.23 291.12 0.5 289.17 0.5L289.17 0.5ZM291.22-4.25Q292.92-4.25 294.42-6.05L294.42-6.05 294.42-11.75Q292.02-11.45 290.42-10.33 288.82-9.2 288.82-7.05L288.82-7.05Q288.82-5.6 289.47-4.93 290.12-4.25 291.22-4.25L291.22-4.25ZM329.87-25.4Q333.87-25.4 335.96-22.93 338.06-20.45 338.06-16.25L338.06-16.25 338.06 0 332.06 0 332.06-15.45Q332.06-17.9 331.26-19.2 330.46-20.5 328.62-20.5L328.62-20.5Q326.76-20.5 325.79-19.43 324.81-18.35 324.81-16.25L324.81-16.25 324.81 0 318.81 0 318.81-15.45Q318.81-20.5 315.42-20.5L315.42-20.5Q313.06-20.5 311.56-18.35L311.56-18.35 311.56 0 305.56 0 305.56-25 310.67-25 310.92-23Q313.21-25.4 316.76-25.4L316.76-25.4Q318.81-25.4 320.42-24.55 322.01-23.7 322.92-22.15L322.92-22.15Q324.12-23.7 325.89-24.55 327.67-25.4 329.87-25.4L329.87-25.4ZM352.66 0.5Q349.26 0.5 346.76-1.25 344.26-3 342.94-5.95 341.61-8.9 341.61-12.45L341.61-12.45Q341.61-16 342.94-18.95 344.26-21.9 346.76-23.65 349.26-25.4 352.66-25.4L352.66-25.4Q356.06-25.4 358.59-23.65 361.11-21.9 362.44-18.95 363.76-16 363.76-12.45L363.76-12.45Q363.76-8.9 362.44-5.95 361.11-3 358.59-1.25 356.06 0.5 352.66 0.5L352.66 0.5ZM352.66-4.4Q355.01-4.4 356.34-6.6 357.66-8.8 357.66-12.45L357.66-12.45Q357.66-16.1 356.34-18.3 355.01-20.5 352.66-20.5L352.66-20.5Q350.36-20.5 349.04-18.28 347.71-16.05 347.71-12.45L347.71-12.45Q347.71-8.85 349.04-6.63 350.36-4.4 352.66-4.4L352.66-4.4ZM377.96 0.5Q374.21 0.5 371.54-1.23 368.86-2.95 367.51-5.9 366.16-8.85 366.16-12.45L366.16-12.45Q366.16-16.1 367.51-19.03 368.86-21.95 371.56-23.68 374.26-25.4 378.16-25.4L378.16-25.4Q381.01-25.4 382.96-24.55L382.96-24.55 382.51-19.65Q380.71-20.5 378.86-20.5L378.86-20.5Q375.76-20.5 374.01-18.3 372.26-16.1 372.26-12.45L372.26-12.45Q372.26-8.9 373.99-6.65 375.71-4.4 378.81-4.4L378.81-4.4Q380.86-4.4 382.66-5.3L382.66-5.3 383.06-0.5Q382.11-0.05 380.76 0.23 379.41 0.5 377.96 0.5L377.96 0.5ZM397.96-25.4Q401.71-25.4 403.68-22.93 405.66-20.45 405.66-16.25L405.66-16.25 405.66 0 399.66 0 399.66-15.45Q399.66-20.5 396.26-20.5L396.26-20.5Q393.91-20.5 392.41-18.35L392.41-18.35 392.41 0 386.41 0 386.41-37.5 392.41-37.5 392.41-23.55Q394.66-25.4 397.96-25.4L397.96-25.4ZM420.21 0.5Q416.81 0.5 414.31-1.25 411.81-3 410.48-5.95 409.16-8.9 409.16-12.45L409.16-12.45Q409.16-16 410.48-18.95 411.81-21.9 414.31-23.65 416.81-25.4 420.21-25.4L420.21-25.4Q423.61-25.4 426.13-23.65 428.66-21.9 429.98-18.95 431.31-16 431.31-12.45L431.31-12.45Q431.31-8.9 429.98-5.95 428.66-3 426.13-1.25 423.61 0.5 420.21 0.5L420.21 0.5ZM420.21-4.4Q422.56-4.4 423.88-6.6 425.21-8.8 425.21-12.45L425.21-12.45Q425.21-16.1 423.88-18.3 422.56-20.5 420.21-20.5L420.21-20.5Q417.91-20.5 416.58-18.28 415.26-16.05 415.26-12.45L415.26-12.45Q415.26-8.85 416.58-6.63 417.91-4.4 420.21-4.4L420.21-4.4ZM448.65-37.5L454.65-37.5 454.65 0 449 0 448.9-1.6Q447.7-0.55 446.33-0.03 444.95 0.5 443.15 0.5L443.15 0.5Q440.05 0.5 437.8-1.25 435.55-3 434.4-5.95 433.25-8.9 433.25-12.45L433.25-12.45Q433.25-16 434.4-18.95 435.55-21.9 437.8-23.65 440.05-25.4 443.15-25.4L443.15-25.4Q446.4-25.4 448.65-23.45L448.65-23.45 448.65-37.5ZM444.05-4.4Q446.5-4.4 447.73-6.58 448.95-8.75 448.95-12.45L448.95-12.45Q448.95-16.15 447.73-18.32 446.5-20.5 444.05-20.5L444.05-20.5Q441.85-20.5 440.6-18.3 439.35-16.1 439.35-12.45L439.35-12.45Q439.35-8.8 440.6-6.6 441.85-4.4 444.05-4.4L444.05-4.4ZM458.95 0L458.95-6.8 465.05-6.8 465.05 0 458.95 0ZM480.85-25.4Q483.9-25.4 486.07-23.65 488.25-21.9 489.37-18.95 490.5-16 490.5-12.45L490.5-12.45Q490.5-8.9 489.37-5.95 488.25-3 486.07-1.25 483.9 0.5 480.85 0.5L480.85 0.5Q478.95 0.5 477.62 0.08 476.3-0.35 475.1-1.3L475.1-1.3 475.1 12.1 469.1 12.1 469.1-25 473.9-25 474.55-22.7Q475.9-24 477.4-24.7 478.9-25.4 480.85-25.4L480.85-25.4ZM479.7-4.4Q481.9-4.4 483.15-6.63 484.4-8.85 484.4-12.45L484.4-12.45Q484.4-16.05 483.15-18.28 481.9-20.5 479.7-20.5L479.7-20.5Q477.25-20.5 476.02-18.32 474.8-16.15 474.8-12.45L474.8-12.45Q474.8-8.75 476.02-6.58 477.25-4.4 479.7-4.4L479.7-4.4ZM499.3 0.5Q496.55 0.5 495.17-1.25 493.8-3 493.8-6.05L493.8-6.05 493.8-37.5 499.8-37.5 499.8-8.1Q499.8-6 500.22-5.3 500.64-4.6 502.05-4.6L502.05-4.6 501.55 0.5 499.3 0.5Z" opacity="1" transform="matrix(1,0,0,1,0,0)" fill="#E06826" class="undefined-text-0" data-fill-palette-color="primary" id="text-0"></path></svg></g></svg></g></svg></g></svg></g></svg></g></svg></g></svg></g><g mask="url(#8e9fd8f4-2edb-4a25-b239-94de8abca2fe)"><g transform="matrix(3.9586984294054437, 0, 0, 3.9586984294054437, 1, 51.0151386468614)"><svg xmlns="http://www.w3.org/2000/svg" xmlns:xlink="http://www.w3.org/1999/xlink" version="1.1" x="0" y="0" viewBox="0.29627254605293274 33.946922302246094 99.40641021728516 36.67107391357422" enable-background="new 0 33.947 100 36.669" xml:space="preserve" width="99.40641021728516" height="36.67107391357422" class="icon-none" data-fill-palette-color="accent" id="none"><g fill="#ffffff" data-fill-palette-color="accent"><path d="M15.524 55.357c-4.213 0-7.629 3.418-7.629 7.631s3.416 7.63 7.629 7.63c4.215 0 7.63-3.417 7.63-7.63S19.738 55.357 15.524 55.357zM15.524 66.189c-1.778 0-3.219-1.441-3.219-3.22s1.441-3.221 3.219-3.221c1.777 0 3.219 1.442 3.219 3.221C18.742 64.748 17.301 66.189 15.524 66.189z" fill="#ffffff" data-fill-palette-color="accent"></path><path d="M82.53 55.355c-4.215 0-7.632 3.417-7.632 7.629 0 4.214 3.417 7.631 7.632 7.631 4.212 0 7.63-3.417 7.63-7.631C90.16 58.772 86.742 55.355 82.53 55.355zM82.53 66.189c-1.778 0-3.222-1.441-3.222-3.22s1.443-3.221 3.222-3.221 3.223 1.442 3.223 3.221S84.309 66.189 82.53 66.189z" fill="#ffffff" data-fill-palette-color="accent"></path><path d="M78.23 44.515c0 0-18.764-8.75-24.754-10.018-5.987-1.268-26.597-0.115-28.554 1.151l-11.515 5.64L2.125 46.815 0.298 57.465c0 0-0.05 6.318 0.388 7.773h5.527l0.071-2.25c0-5.103 4.138-9.24 9.243-9.24 5.103 0 9.238 4.138 9.238 9.24l0.158 2.25h48.359l0.007-2.83c0-5.103 3.856-8.87 8.959-8.87s9.523 3.768 9.523 8.87l0.19 2.616c0 0 5.845 0.33 7.688-0.361 0 0 0.69-9.787-2.878-13.357C93.603 48.308 87.213 46.44 78.23 44.515zM25.956 45.896c0 0 2.363-5.01 4.943-6.924 1.911-1.627 12.446-1.583 12.446-1.583l0.389 9.715L25.956 45.896zM71.613 48.198l-24.698-0.978-0.577-9.846c9.154-0.344 19.576 4.549 25.563 8.06C77.89 48.946 71.613 48.198 71.613 48.198z" fill="#ffffff" data-fill-palette-color="accent"></path></g></svg></g></g></svg></g><defs><mask id="8e9fd8f4-2edb-4a25-b239-94de8abca2fe"><rect width="640" height="400" fill="white"></rect><rect width="348.05760000000004" height="46.14860158335604" fill="black" y="100.52569920832198" x="23.731199999999973" id="transform-me"></rect></mask></defs></svg><rect width="395.52" height="247.2" fill="none" stroke="none" visibility="hidden"></rect></g></svg></g></svg>