<?xml version="1.0" encoding="utf-8"?>
<!-- Generator: Adobe Illustrator 19.0.0, SVG Export Plug-In . SVG Version: 6.00 Build 0)  -->
<svg version="1.1" xmlns="http://www.w3.org/2000/svg" xmlns:xlink="http://www.w3.org/1999/xlink" x="0px" y="0px"
	 viewBox="0 0 841.9 595.3" style="enable-background:new 0 0 841.9 595.3;" xml:space="preserve">
<style type="text/css">
	.st0{fill:#DF6725;stroke:#FFFFFF;stroke-miterlimit:10;}
	.st1{fill:#DF6725;}
	.st2{fill:none;stroke:#FFFFFF;stroke-width:0.5;stroke-miterlimit:10;}
	.st3{fill:#FFFFFF;}
</style>
<g id="Warstwa_2">
	<g id="XMLID_11_">
		<path id="XMLID_13_" class="st0" d="M114.4,371.3c-0.3-0.3-0.6-0.6-1.1-0.9c-0.5-0.3-1.1-0.6-1.8-0.9c-0.7-0.3-1.4-0.5-2.2-0.7
			c-0.8-0.2-1.6-0.3-2.5-0.3c-1.9,0-3.3,0.3-4.1,1c-0.9,0.7-1.3,1.6-1.3,2.9c0,0.7,0.1,1.2,0.4,1.7c0.3,0.4,0.7,0.8,1.3,1.1
			c0.6,0.3,1.3,0.6,2.2,0.9c0.9,0.3,1.9,0.5,3,0.8c1.4,0.3,2.7,0.7,3.9,1.1c1.1,0.4,2.1,0.9,2.9,1.5c0.8,0.6,1.4,1.4,1.8,2.2
			c0.4,0.9,0.7,2,0.7,3.2c0,1.4-0.3,2.7-0.8,3.7c-0.5,1-1.3,1.9-2.2,2.5c-0.9,0.6-2,1.1-3.3,1.4c-1.2,0.3-2.6,0.5-4,0.5
			c-2.1,0-4.2-0.3-6.2-1c-2-0.6-3.8-1.6-5.4-2.8l2-3.8c0.3,0.3,0.8,0.7,1.5,1.1c0.6,0.4,1.4,0.8,2.3,1.2c0.9,0.4,1.8,0.7,2.8,0.9
			c1,0.3,2,0.4,3.1,0.4c1.7,0,3.1-0.3,4-0.9s1.4-1.5,1.4-2.7c0-0.7-0.2-1.3-0.5-1.8c-0.4-0.5-0.9-0.9-1.5-1.2
			c-0.7-0.4-1.5-0.7-2.4-1c-1-0.3-2-0.6-3.2-0.9c-1.4-0.4-2.6-0.8-3.7-1.2c-1-0.4-1.9-0.9-2.6-1.5c-0.7-0.6-1.2-1.3-1.6-2
			c-0.4-0.8-0.5-1.7-0.5-2.8c0-1.4,0.3-2.6,0.8-3.7s1.2-2,2.2-2.7c0.9-0.7,2-1.3,3.2-1.6c1.2-0.4,2.6-0.6,4-0.6
			c1.9,0,3.7,0.3,5.3,0.9c1.6,0.6,3,1.4,4.2,2.3L114.4,371.3z"/>
		<path id="XMLID_16_" class="st0" d="M123.9,392.8v-28.1h11.8c1.3,0,2.4,0.3,3.5,0.8c1.1,0.5,2,1.2,2.8,2.1
			c0.8,0.9,1.4,1.8,1.8,2.9c0.4,1.1,0.7,2.2,0.7,3.3c0,1.2-0.2,2.3-0.6,3.4c-0.4,1.1-1,2.1-1.7,2.9c-0.7,0.9-1.6,1.5-2.7,2.1
			c-1,0.5-2.2,0.8-3.5,0.8h-7.6v9.8H123.9z M128.4,379.1h7.3c0.6,0,1.2-0.1,1.7-0.4c0.5-0.3,1-0.6,1.3-1.1c0.4-0.5,0.7-1,0.9-1.7
			c0.2-0.6,0.3-1.3,0.3-2.1c0-0.8-0.1-1.5-0.4-2.1c-0.2-0.6-0.6-1.2-1-1.6c-0.4-0.5-0.9-0.8-1.4-1.1c-0.5-0.3-1.1-0.4-1.7-0.4h-7.1
			V379.1z"/>
		<path id="XMLID_19_" class="st0" d="M150.6,392.8v-28.1h12.2c1.3,0,2.4,0.3,3.5,0.8c1.1,0.5,2,1.2,2.8,2.1
			c0.8,0.9,1.4,1.8,1.8,2.9s0.7,2.2,0.7,3.3c0,1-0.1,1.9-0.4,2.7c-0.3,0.9-0.6,1.7-1.1,2.4c-0.5,0.7-1.1,1.4-1.7,1.9
			c-0.7,0.5-1.4,0.9-2.3,1.2l6.6,10.7h-5l-6.1-9.8H155v9.8H150.6z M155,379.1h7.8c0.6,0,1.2-0.1,1.7-0.4c0.5-0.3,1-0.7,1.3-1.1
			c0.4-0.5,0.7-1,0.9-1.7c0.2-0.6,0.3-1.3,0.3-2s-0.1-1.4-0.4-2c-0.3-0.6-0.6-1.2-1-1.7c-0.4-0.5-0.9-0.9-1.4-1.1
			c-0.5-0.3-1.1-0.4-1.7-0.4H155V379.1z"/>
		<path id="XMLID_22_" class="st0" d="M176.8,389.4l17.1-20.8h-16.7v-3.9H199v3.4l-16.7,20.8h16.7v3.9h-22.3V389.4z"/>
		<path id="XMLID_24_" class="st0" d="M224.9,388.9v3.9h-19.3v-28.1h18.9v3.9H210v8h12.6v3.7H210v8.6H224.9z"/>
		<path id="XMLID_26_" class="st0" d="M231.4,392.8v-28.1h10c2.3,0,4.3,0.4,6,1.1s3.1,1.7,4.3,3c1.1,1.3,2,2.8,2.6,4.5
			c0.6,1.7,0.9,3.5,0.9,5.4c0,2.1-0.3,4.1-1,5.8c-0.6,1.7-1.6,3.2-2.8,4.4c-1.2,1.2-2.6,2.2-4.3,2.9c-1.7,0.7-3.6,1-5.7,1H231.4z
			 M250.6,378.7c0-1.5-0.2-2.8-0.6-4.1c-0.4-1.2-1-2.3-1.8-3.2c-0.8-0.9-1.8-1.6-2.9-2.1c-1.1-0.5-2.4-0.8-3.9-0.8h-5.5v20.3h5.5
			c1.5,0,2.8-0.3,3.9-0.8c1.1-0.5,2.1-1.2,2.9-2.1c0.8-0.9,1.4-2,1.8-3.2C250.4,381.5,250.6,380.1,250.6,378.7z"/>
		<path id="XMLID_29_" class="st0" d="M269,364.7h3.9l11.1,28.1h-4.7l-3-7.6h-10.9l-2.9,7.6h-4.7L269,364.7z M275.5,381.9l-4.5-12.1
			l-4.7,12.1H275.5z"/>
		<path id="XMLID_32_" class="st0" d="M313.1,392.8v-20.2l-8.4,15.3h-2.5l-8.4-15.3v20.2h-4.4v-28.1h4.8l9.3,17.2l9.3-17.2h4.8v28.1
			H313.1z"/>
		<path id="XMLID_34_" class="st1" d="M346.6,369.5h-9v23.3h-5.4v-23.3h-9v-4.8h23.4V369.5z"/>
		<path id="XMLID_36_" class="st1" d="M361.7,364.7h5l3.2,9.3l3.2-9.3h5.1l-4.8,12.8l3.6,9l8-21.9h5.9l-11.4,28.1h-4.6l-4.9-11.8
			l-4.9,11.8h-4.6l-11.4-28.1h5.9l8,21.9l3.5-9L361.7,364.7z"/>
		<path id="XMLID_38_" class="st1" d="M406.6,393c-2.1,0-3.9-0.4-5.6-1.2c-1.7-0.8-3.1-1.9-4.3-3.2c-1.2-1.3-2.1-2.9-2.8-4.6
			c-0.7-1.7-1-3.5-1-5.3c0-1.9,0.3-3.7,1-5.4c0.7-1.7,1.7-3.2,2.9-4.6c1.2-1.3,2.7-2.4,4.4-3.1c1.7-0.8,3.5-1.2,5.5-1.2
			c2,0,3.9,0.4,5.6,1.2s3.1,1.9,4.3,3.3c1.2,1.3,2.1,2.9,2.8,4.6c0.7,1.7,1,3.5,1,5.2c0,1.9-0.3,3.7-1,5.4c-0.7,1.7-1.6,3.2-2.9,4.5
			c-1.2,1.3-2.7,2.4-4.4,3.1C410.4,392.6,408.6,393,406.6,393z M398.4,378.7c0,1.2,0.2,2.4,0.6,3.5c0.4,1.1,0.9,2.1,1.6,3
			s1.6,1.6,2.6,2.1c1,0.5,2.2,0.8,3.5,0.8c1.3,0,2.5-0.3,3.5-0.8c1-0.5,1.9-1.3,2.6-2.2c0.7-0.9,1.2-1.9,1.6-3
			c0.4-1.1,0.5-2.3,0.5-3.4c0-1.2-0.2-2.4-0.6-3.5c-0.4-1.1-0.9-2.1-1.6-3c-0.7-0.9-1.6-1.6-2.6-2.1c-1-0.5-2.2-0.8-3.4-0.8
			c-1.3,0-2.5,0.3-3.5,0.8c-1,0.5-1.9,1.3-2.6,2.1c-0.7,0.9-1.2,1.9-1.6,3S398.4,377.6,398.4,378.7z"/>
		<path id="XMLID_41_" class="st1" d="M423.6,387c0.4,0.3,1,0.6,1.9,0.9c0.9,0.3,1.9,0.5,3,0.5c1.1,0,2-0.2,2.7-0.6s1.2-1,1.5-1.8
			s0.6-1.8,0.7-3c0.1-1.2,0.2-2.6,0.2-4.1v-14.3h5.5V379c0,2.1-0.1,4.1-0.3,5.8s-0.7,3.3-1.4,4.5s-1.8,2.2-3.1,2.9
			c-1.4,0.7-3.2,1-5.5,1c-2.4,0-4.4-0.6-6.1-1.7L423.6,387z"/>
		<path id="XMLID_43_" class="st0" d="M463.3,370.6c-0.3-0.4-0.7-0.7-1.3-1.1c-0.5-0.3-1.1-0.7-1.8-0.9s-1.4-0.5-2.2-0.7
			c-0.8-0.2-1.6-0.3-2.4-0.3c-2.2,0-3.8,0.4-4.8,1.2c-1,0.8-1.5,1.9-1.5,3.4c0,0.8,0.1,1.4,0.4,1.9c0.3,0.5,0.7,0.9,1.4,1.3
			s1.4,0.7,2.3,0.9c0.9,0.3,2,0.5,3.3,0.8c1.5,0.3,2.8,0.7,3.9,1.1c1.2,0.4,2.2,0.9,3,1.5c0.8,0.6,1.5,1.3,1.9,2.2
			c0.4,0.9,0.7,1.9,0.7,3.2c0,1.3-0.3,2.5-0.8,3.5s-1.2,1.8-2.2,2.5c-0.9,0.6-2,1.1-3.2,1.4c-1.2,0.3-2.6,0.5-4,0.5
			c-2.2,0-4.2-0.3-6.2-1c-1.9-0.7-3.7-1.7-5.3-3l1.7-3c0.4,0.4,1,0.9,1.6,1.3c0.7,0.4,1.4,0.9,2.3,1.2c0.9,0.4,1.8,0.6,2.8,0.9
			c1,0.2,2,0.3,3.1,0.3c2,0,3.6-0.4,4.7-1.1c1.1-0.7,1.7-1.8,1.7-3.2c0-0.8-0.2-1.5-0.5-2c-0.4-0.5-0.9-1-1.6-1.4
			c-0.7-0.4-1.5-0.7-2.6-1s-2.2-0.6-3.5-0.9c-1.4-0.3-2.7-0.7-3.8-1.1s-2-0.9-2.7-1.4s-1.3-1.2-1.6-2c-0.4-0.8-0.6-1.7-0.6-2.9
			c0-1.3,0.3-2.5,0.8-3.6c0.5-1,1.2-1.9,2.1-2.6s2-1.2,3.2-1.6c1.2-0.4,2.6-0.5,4-0.5c1.9,0,3.6,0.3,5.1,0.9
			c1.5,0.6,2.9,1.4,4.1,2.3L463.3,370.6z"/>
		<path id="XMLID_45_" class="st0" d="M481,364.7h3l11.5,28.1h-3.8l-3.3-8.2h-11.8l-3.3,8.2h-3.8L481,364.7z M487.5,381.8l-5.1-13
			l-5.2,13H487.5z"/>
		<path id="XMLID_48_" class="st0" d="M525.5,392.8V371l-9.3,16.7h-2l-9.4-16.7v21.7h-3.6v-28.1h3.8l10.2,18.3l10.2-18.3h3.7v28.1
			H525.5z"/>
		<path id="XMLID_50_" class="st0" d="M549.2,393c-2,0-3.8-0.4-5.4-1.2s-3-1.9-4.2-3.2s-2.1-2.9-2.7-4.6c-0.6-1.7-1-3.5-1-5.3
			c0-1.9,0.3-3.7,1-5.4c0.7-1.7,1.6-3.2,2.8-4.6c1.2-1.3,2.6-2.4,4.2-3.1c1.6-0.8,3.4-1.2,5.3-1.2c2,0,3.8,0.4,5.4,1.2
			c1.6,0.8,3,1.9,4.2,3.3c1.2,1.3,2.1,2.9,2.7,4.6s1,3.4,1,5.2c0,1.9-0.3,3.7-1,5.4c-0.7,1.7-1.6,3.2-2.8,4.5
			c-1.2,1.3-2.6,2.4-4.2,3.1C552.9,392.6,551.1,393,549.2,393z M539.6,378.7c0,1.4,0.2,2.8,0.7,4.1c0.5,1.3,1.1,2.5,2,3.5
			c0.8,1,1.9,1.8,3,2.5s2.5,0.9,4,0.9c1.5,0,2.9-0.3,4-1c1.2-0.6,2.2-1.5,3-2.5c0.8-1,1.5-2.2,1.9-3.5c0.4-1.3,0.7-2.7,0.7-4
			c0-1.4-0.2-2.8-0.7-4.1s-1.1-2.5-2-3.5c-0.9-1-1.9-1.8-3-2.4s-2.5-0.9-3.9-0.9c-1.5,0-2.9,0.3-4,1c-1.2,0.6-2.2,1.5-3,2.5
			c-0.8,1-1.5,2.2-1.9,3.5C539.8,376,539.6,377.4,539.6,378.7z"/>
		<path id="XMLID_53_" class="st0" d="M567.7,378.5c0-1.7,0.3-3.4,0.9-5c0.6-1.7,1.5-3.2,2.6-4.5s2.6-2.4,4.2-3.2
			c1.7-0.8,3.6-1.2,5.7-1.2c2.5,0,4.7,0.6,6.5,1.7c1.8,1.1,3.1,2.6,4,4.4l-2.8,1.8c-0.4-0.9-0.9-1.7-1.5-2.3
			c-0.6-0.6-1.2-1.1-1.9-1.5c-0.7-0.4-1.4-0.6-2.2-0.8c-0.7-0.2-1.5-0.2-2.2-0.2c-1.6,0-2.9,0.3-4.1,1c-1.2,0.6-2.2,1.5-3,2.5
			c-0.8,1-1.4,2.2-1.8,3.5s-0.6,2.6-0.6,3.9c0,1.5,0.2,2.9,0.7,4.2c0.5,1.3,1.2,2.5,2,3.5c0.9,1,1.9,1.8,3.1,2.5
			c1.2,0.6,2.5,0.9,3.9,0.9c0.7,0,1.5-0.1,2.3-0.3c0.8-0.2,1.5-0.5,2.2-0.9s1.4-0.9,2-1.5c0.6-0.6,1.1-1.4,1.5-2.2l3,1.6
			c-0.4,1.1-1.1,2-1.9,2.8s-1.7,1.5-2.7,2c-1,0.6-2.1,1-3.2,1.3s-2.2,0.4-3.3,0.4c-1.9,0-3.7-0.4-5.3-1.3c-1.6-0.8-3-1.9-4.2-3.3
			c-1.2-1.4-2.1-2.9-2.7-4.6C568,382.1,567.7,380.3,567.7,378.5z"/>
		<path id="XMLID_55_" class="st0" d="M621.1,364.7v28.1h-3.6V380h-15.5v12.8h-3.6v-28.1h3.6v12.2h15.5v-12.2H621.1z"/>
		<path id="XMLID_57_" class="st0" d="M641.2,393c-2,0-3.8-0.4-5.4-1.2s-3-1.9-4.2-3.2s-2.1-2.9-2.7-4.6c-0.6-1.7-1-3.5-1-5.3
			c0-1.9,0.3-3.7,1-5.4c0.7-1.7,1.6-3.2,2.8-4.6c1.2-1.3,2.6-2.4,4.2-3.1c1.6-0.8,3.4-1.2,5.3-1.2c2,0,3.8,0.4,5.4,1.2
			c1.6,0.8,3,1.9,4.2,3.3c1.2,1.3,2.1,2.9,2.7,4.6s1,3.4,1,5.2c0,1.9-0.3,3.7-1,5.4c-0.7,1.7-1.6,3.2-2.8,4.5
			c-1.2,1.3-2.6,2.4-4.2,3.1C644.9,392.6,643.1,393,641.2,393z M631.6,378.7c0,1.4,0.2,2.8,0.7,4.1c0.5,1.3,1.1,2.5,2,3.5
			c0.8,1,1.9,1.8,3,2.5s2.5,0.9,4,0.9c1.5,0,2.9-0.3,4-1c1.2-0.6,2.2-1.5,3-2.5c0.8-1,1.5-2.2,1.9-3.5c0.4-1.3,0.7-2.7,0.7-4
			c0-1.4-0.2-2.8-0.7-4.1s-1.1-2.5-2-3.5c-0.9-1-1.9-1.8-3-2.4s-2.5-0.9-3.9-0.9c-1.5,0-2.9,0.3-4,1c-1.2,0.6-2.2,1.5-3,2.5
			c-0.8,1-1.5,2.2-1.9,3.5C631.8,376,631.6,377.4,631.6,378.7z"/>
		<path id="XMLID_60_" class="st0" d="M661.5,392.8v-28.1h9.7c2.2,0,4.2,0.4,5.9,1.1s3.1,1.7,4.3,3c1.1,1.3,2,2.8,2.6,4.5
			c0.6,1.7,0.9,3.5,0.9,5.4c0,2.1-0.3,4.1-1,5.8c-0.6,1.7-1.5,3.2-2.7,4.4c-1.2,1.2-2.6,2.2-4.3,2.9c-1.7,0.7-3.5,1-5.6,1H661.5z
			 M681.2,378.7c0-1.6-0.2-3-0.7-4.4c-0.4-1.3-1.1-2.5-1.9-3.4c-0.9-1-1.9-1.7-3.1-2.2c-1.2-0.5-2.7-0.8-4.2-0.8H665v21.8h6.2
			c1.6,0,3-0.3,4.3-0.8c1.3-0.6,2.3-1.3,3.1-2.3c0.8-1,1.5-2.1,1.9-3.5S681.2,380.2,681.2,378.7z"/>
		<path id="XMLID_63_" class="st0" d="M690.5,392.8v-4.4h2.9v4.4H690.5z"/>
		<path id="XMLID_66_" class="st0" d="M701.4,392.8v-28.1h11.7c1.2,0,2.4,0.3,3.4,0.8c1,0.5,1.9,1.2,2.7,2.1
			c0.8,0.9,1.3,1.8,1.8,2.9c0.4,1.1,0.6,2.2,0.6,3.3c0,1.2-0.2,2.3-0.6,3.4c-0.4,1.1-1,2-1.7,2.9s-1.6,1.5-2.6,2
			c-1,0.5-2.1,0.8-3.4,0.8h-8.4v10.1H701.4z M704.9,379.5h8.2c0.7,0,1.4-0.2,2-0.5c0.6-0.3,1.1-0.7,1.5-1.3c0.4-0.5,0.8-1.2,1-1.9
			c0.2-0.7,0.4-1.5,0.4-2.3c0-0.8-0.1-1.6-0.4-2.3s-0.6-1.3-1.1-1.9c-0.5-0.5-1-0.9-1.6-1.2c-0.6-0.3-1.3-0.4-2-0.4h-8V379.5z"/>
		<path id="XMLID_69_" class="st0" d="M728,392.8v-28.1h3.6v25h15.7v3.2H728z"/>
	</g>
</g>
<g id="Warstwa_1">
	<g id="XMLID_1_">
		<path id="XMLID_15_" class="st1" d="M460.8,336l-94.7,0.2c0,0,0-13.4-5.9-17.8c-5.9-4.3-14.7-7-22.4,0c-7.7,7-5,17.8-5,17.8
			s-2.6,1.4-7.7-1.5c0,0,0.1-5.2-1.4-10.6c0,0-0.5-0.7,0.6-2.2c1.1-1.5,1.9-3.7,1.9-3.7s-0.7-4.8,1.9-6.8c0,0,2.9-2.2,10.1-3.6
			c7.2-1.4,14.5-3.6,23.9-4.3c9.4-0.6,13.7-1.1,13.7-1.1s2.8-0.3,5.8-1.6c3-1.3,19.1-10,20.5-10.4s7.4-3.5,17.7-4
			c10.3-0.5,22.8-0.5,25.7-0.2c3.1,0.2,11.6-0.1,21.9,3.4c0,0,10,3.9,12,5.1c2.1,1.2,7.6,3.3,8.9,3.9c0.9,0.4,16.5,3,18.7,3.1
			c2.2,0,2.5,2.6,3.3,3.4c1.2,1.3,4.8,7.8,5.7,10.2s1.3,2.7,1.5,5.2c0.1,2.5,0,7.1,0,7.1s0.8,0.3,0.5,1.4s-2.1,1.5-2.1,1.7
			c0,0.1-15.9,3.8-15.9,3.8l-6.8,1.1c0,0,2.7-4.6,0.8-9.9s-6-10.1-12.7-11.4c-6.7-1.3-10.6,0.5-14.3,2.8c-4.3,2.7-5.3,6.6-6.4,12.6
			C460.7,329.9,460.6,333.8,460.8,336z"/>
		<path id="XMLID_12_" class="st2" d="M424.5,332.3c0,0-0.5-2.3-1.1-6.6s0.1-11,0.4-13.1c0.3-2.2,1.4-8.2,1.4-8.2l0.5-2.2l3.2-14.4
			c0,0-15.7,1.1-20.9,2.8c-5.2,1.7-12.8,5.6-12.8,5.6s-8.6,4.8-10.5,6.2c-1,0.8-1.8,1.4-2.3,1.9c-0.2,0.2-0.1,0.6,0.3,0.6l27.2-1.3
			l15.5-0.6"/>
		<path id="XMLID_9_" class="st2" d="M428.8,287.9c0,0,9.8-0.7,19.8,0.9s14.9,4.4,14.9,4.4s7.9,4,10.1,6.6c2.2,2.6,2.2,3.4,2.2,3.4
			s-47.3-0.3-50.6,0"/>
		<path id="XMLID_7_" class="st3" d="M475.8,317.9H353.9c-1.8,0,6.8,16.6,6.8,14.8L344.9,318c-6.7-6.3,7-6.1,16.3-6.2
			c2.2,0,2.9,0.1,3,0.1l112.5-0.1c11.2,1.8,9.2,0.7,13.2,3.3c2.3,1.5-3.7,6-6.4,6.3l-17.4,1.7C466,324.9,477.6,317.9,475.8,317.9z"
			/>
		<circle id="XMLID_6_" class="st3" cx="479.1" cy="330.8" r="19"/>
		<circle id="XMLID_5_" class="st3" cx="351.2" cy="330.9" r="19"/>
		<circle id="XMLID_4_" class="st1" cx="478.7" cy="331" r="13.9"/>
		<circle id="XMLID_3_" class="st1" cx="351.2" cy="331.8" r="13.9"/>
		<circle id="XMLID_8_" class="st3" cx="351.4" cy="331.4" r="9.8"/>
		<circle id="XMLID_10_" class="st3" cx="479.1" cy="330.8" r="9.8"/>
	</g>
</g>
</svg>
