<?xml version="1.0" encoding="utf-8"?>
<!-- Generator: Adobe Illustrator 19.0.0, SVG Export Plug-In . SVG Version: 6.00 Build 0)  -->
<svg version="1.1" xmlns="http://www.w3.org/2000/svg" xmlns:xlink="http://www.w3.org/1999/xlink" x="0px" y="0px"
	 viewBox="0 0 841.9 595.3" style="enable-background:new 0 0 841.9 595.3;" xml:space="preserve">
<style type="text/css">
	.st0{fill:#DF6725;stroke:#FFFFFF;stroke-miterlimit:10;}
	.st1{fill:#DF6725;}
	.st2{fill:none;stroke:#FFFFFF;stroke-width:0.5;stroke-miterlimit:10;}
	.st3{fill:#FFFFFF;}
</style>
<g id="Warstwa_2">
	<g id="XMLID_11_">
		<path id="XMLID_13_" class="st0" d="M262,291.1c-0.2-0.3-0.6-0.5-1-0.8c-0.4-0.3-0.9-0.6-1.5-0.8c-0.6-0.3-1.2-0.5-1.9-0.6
			c-0.7-0.2-1.4-0.2-2.1-0.2c-1.6,0-2.8,0.3-3.6,0.9c-0.8,0.6-1.1,1.4-1.1,2.5c0,0.6,0.1,1.1,0.4,1.5c0.2,0.4,0.6,0.7,1.1,1
			c0.5,0.3,1.1,0.5,1.9,0.8c0.8,0.2,1.6,0.5,2.6,0.7c1.2,0.3,2.3,0.6,3.3,1c1,0.4,1.8,0.8,2.5,1.3c0.7,0.5,1.2,1.2,1.6,1.9
			c0.4,0.8,0.6,1.7,0.6,2.8c0,1.2-0.2,2.3-0.7,3.2c-0.5,0.9-1.1,1.6-1.9,2.2c-0.8,0.6-1.8,1-2.8,1.2c-1.1,0.3-2.2,0.4-3.5,0.4
			c-1.8,0-3.6-0.3-5.4-0.8c-1.7-0.6-3.3-1.4-4.7-2.4l1.7-3.3c0.3,0.3,0.7,0.6,1.3,1c0.6,0.4,1.2,0.7,1.9,1c0.7,0.3,1.5,0.6,2.4,0.8
			c0.9,0.2,1.8,0.3,2.7,0.3c1.5,0,2.7-0.3,3.5-0.8c0.8-0.5,1.2-1.3,1.2-2.3c0-0.6-0.2-1.1-0.5-1.5c-0.3-0.4-0.7-0.8-1.3-1.1
			c-0.6-0.3-1.3-0.6-2.1-0.8c-0.8-0.3-1.8-0.5-2.8-0.8c-1.2-0.3-2.3-0.7-3.2-1c-0.9-0.4-1.6-0.8-2.2-1.3c-0.6-0.5-1-1.1-1.4-1.8
			c-0.3-0.7-0.5-1.5-0.5-2.4c0-1.2,0.2-2.2,0.7-3.2c0.5-0.9,1.1-1.7,1.9-2.3c0.8-0.6,1.7-1.1,2.8-1.4c1.1-0.3,2.2-0.5,3.5-0.5
			c1.6,0,3.2,0.3,4.5,0.8c1.4,0.5,2.6,1.2,3.7,1.9L262,291.1z"/>
		<path id="XMLID_16_" class="st0" d="M270.2,309.7v-24.3h10.2c1.1,0,2.1,0.2,3,0.7c0.9,0.5,1.7,1.1,2.4,1.8
			c0.7,0.7,1.2,1.6,1.6,2.5c0.4,0.9,0.6,1.9,0.6,2.9c0,1-0.2,2-0.5,3c-0.4,0.9-0.9,1.8-1.5,2.5c-0.6,0.7-1.4,1.3-2.3,1.8
			c-0.9,0.4-1.9,0.7-3,0.7h-6.6v8.4H270.2z M274.1,297.8h6.3c0.5,0,1-0.1,1.5-0.3c0.4-0.2,0.8-0.5,1.1-1c0.3-0.4,0.6-0.9,0.8-1.4
			c0.2-0.5,0.3-1.2,0.3-1.8c0-0.7-0.1-1.3-0.3-1.8c-0.2-0.5-0.5-1-0.9-1.4c-0.4-0.4-0.8-0.7-1.2-0.9c-0.5-0.2-1-0.3-1.5-0.3h-6.1
			V297.8z"/>
		<path id="XMLID_19_" class="st0" d="M293.2,309.7v-24.3h10.6c1.1,0,2.1,0.2,3,0.7c0.9,0.5,1.7,1.1,2.4,1.8
			c0.7,0.7,1.2,1.6,1.6,2.5c0.4,0.9,0.6,1.9,0.6,2.9c0,0.8-0.1,1.6-0.3,2.4c-0.2,0.8-0.5,1.4-1,2.1c-0.4,0.6-0.9,1.2-1.5,1.7
			c-0.6,0.5-1.2,0.8-1.9,1l5.7,9.2h-4.3l-5.3-8.4h-5.6v8.4H293.2z M297.1,297.8h6.7c0.5,0,1-0.1,1.5-0.4c0.4-0.2,0.8-0.6,1.1-1
			c0.3-0.4,0.6-0.9,0.8-1.5c0.2-0.5,0.3-1.1,0.3-1.7s-0.1-1.2-0.3-1.7c-0.2-0.5-0.5-1-0.9-1.4c-0.4-0.4-0.8-0.7-1.2-1
			c-0.5-0.2-1-0.4-1.5-0.4h-6.5V297.8z"/>
		<path id="XMLID_22_" class="st0" d="M315.9,306.7l14.7-18h-14.4v-3.4h18.9v2.9l-14.4,18h14.4v3.4h-19.3V306.7z"/>
		<path id="XMLID_24_" class="st0" d="M357.4,306.3v3.4h-16.7v-24.3h16.4v3.4h-12.5v6.9h10.8v3.2h-10.8v7.4H357.4z"/>
		<path id="XMLID_26_" class="st0" d="M363.1,309.7v-24.3h8.6c2,0,3.7,0.3,5.1,1c1.5,0.6,2.7,1.5,3.7,2.6c1,1.1,1.7,2.4,2.2,3.8
			c0.5,1.5,0.8,3,0.8,4.7c0,1.8-0.3,3.5-0.8,5c-0.6,1.5-1.4,2.8-2.4,3.8c-1,1.1-2.3,1.9-3.7,2.5c-1.5,0.6-3.1,0.9-4.9,0.9H363.1z
			 M379.6,297.5c0-1.3-0.2-2.5-0.5-3.5c-0.4-1.1-0.9-2-1.6-2.8c-0.7-0.8-1.5-1.4-2.5-1.8c-1-0.4-2.1-0.7-3.4-0.7h-4.8v17.5h4.8
			c1.3,0,2.4-0.2,3.4-0.7c1-0.4,1.8-1.1,2.5-1.8c0.7-0.8,1.2-1.7,1.5-2.8C379.4,299.9,379.6,298.8,379.6,297.5z"/>
		<path id="XMLID_29_" class="st0" d="M395.5,285.4h3.4l9.6,24.3h-4l-2.6-6.6h-9.4l-2.5,6.6h-4.1L395.5,285.4z M401.1,300.2
			l-3.9-10.4l-4,10.4H401.1z"/>
		<path id="XMLID_32_" class="st0" d="M433.6,309.7v-17.5l-7.2,13.2h-2.1l-7.3-13.2v17.5h-3.8v-24.3h4.1l8,14.8l8-14.8h4.1v24.3
			H433.6z"/>
		<path id="XMLID_34_" class="st1" d="M462.6,289.5h-7.8v20.1h-4.7v-20.1h-7.8v-4.1h20.2V289.5z"/>
		<path id="XMLID_36_" class="st1" d="M475.6,285.5h4.3l2.7,8l2.7-8h4.4l-4.1,11l3.1,7.8l6.9-18.9h5.1l-9.9,24.3h-4l-4.2-10.2
			l-4.2,10.2h-4l-9.8-24.3h5.1l6.9,18.9l3-7.8L475.6,285.5z"/>
		<path id="XMLID_38_" class="st1" d="M514.4,309.9c-1.8,0-3.4-0.3-4.8-1c-1.4-0.7-2.7-1.6-3.7-2.8c-1-1.2-1.8-2.5-2.4-4
			c-0.6-1.5-0.9-3-0.9-4.5c0-1.6,0.3-3.2,0.9-4.7c0.6-1.5,1.4-2.8,2.5-3.9c1.1-1.1,2.3-2,3.8-2.7c1.5-0.7,3-1,4.8-1
			c1.8,0,3.4,0.4,4.8,1.1s2.7,1.7,3.7,2.8c1,1.2,1.8,2.5,2.4,4c0.6,1.5,0.9,3,0.9,4.5c0,1.6-0.3,3.2-0.9,4.6
			c-0.6,1.5-1.4,2.8-2.5,3.9c-1,1.1-2.3,2-3.8,2.7C517.7,309.5,516.1,309.9,514.4,309.9z M507.3,297.5c0,1,0.2,2.1,0.5,3
			c0.3,1,0.8,1.8,1.4,2.6c0.6,0.8,1.3,1.4,2.2,1.8c0.9,0.5,1.9,0.7,3,0.7c1.1,0,2.1-0.2,3-0.7c0.9-0.5,1.6-1.1,2.2-1.9
			c0.6-0.8,1.1-1.6,1.4-2.6c0.3-1,0.5-2,0.5-3c0-1-0.2-2.1-0.5-3c-0.3-1-0.8-1.8-1.4-2.6c-0.6-0.8-1.3-1.4-2.2-1.8
			c-0.9-0.4-1.9-0.7-3-0.7c-1.1,0-2.2,0.2-3,0.7c-0.9,0.5-1.6,1.1-2.2,1.8c-0.6,0.8-1,1.6-1.4,2.6
			C507.5,295.5,507.3,296.5,507.3,297.5z"/>
		<path id="XMLID_41_" class="st1" d="M529.1,304.7c0.3,0.2,0.9,0.5,1.6,0.8c0.8,0.3,1.6,0.4,2.6,0.4c1,0,1.7-0.2,2.3-0.5
			c0.6-0.3,1-0.8,1.3-1.5s0.5-1.5,0.6-2.5c0.1-1,0.1-2.2,0.1-3.6v-12.3h4.7v12.3c0,1.8-0.1,3.5-0.3,5s-0.6,2.8-1.2,3.9
			c-0.6,1.1-1.5,1.9-2.7,2.5c-1.2,0.6-2.8,0.9-4.8,0.9c-2.1,0-3.8-0.5-5.3-1.5L529.1,304.7z"/>
		<path id="XMLID_43_" class="st0" d="M563.4,290.5c-0.3-0.3-0.6-0.6-1.1-0.9c-0.5-0.3-1-0.6-1.5-0.8c-0.6-0.2-1.2-0.4-1.9-0.6
			c-0.7-0.1-1.4-0.2-2.1-0.2c-1.9,0-3.3,0.4-4.2,1.1c-0.9,0.7-1.3,1.7-1.3,2.9c0,0.7,0.1,1.2,0.4,1.6c0.3,0.4,0.6,0.8,1.2,1.1
			c0.5,0.3,1.2,0.6,2,0.8c0.8,0.2,1.7,0.5,2.8,0.7c1.3,0.3,2.4,0.6,3.4,0.9c1,0.4,1.9,0.8,2.6,1.3c0.7,0.5,1.3,1.2,1.6,1.9
			c0.4,0.8,0.6,1.7,0.6,2.8c0,1.2-0.2,2.2-0.7,3c-0.5,0.9-1.1,1.6-1.9,2.1c-0.8,0.6-1.7,1-2.8,1.2c-1.1,0.3-2.2,0.4-3.5,0.4
			c-1.9,0-3.6-0.3-5.3-0.9c-1.7-0.6-3.2-1.4-4.6-2.5l1.5-2.6c0.4,0.4,0.8,0.8,1.4,1.2c0.6,0.4,1.2,0.7,2,1c0.7,0.3,1.5,0.6,2.4,0.8
			c0.9,0.2,1.7,0.3,2.7,0.3c1.7,0,3.1-0.3,4-0.9c1-0.6,1.4-1.5,1.4-2.8c0-0.7-0.2-1.3-0.5-1.7c-0.3-0.5-0.8-0.9-1.4-1.2
			c-0.6-0.3-1.3-0.6-2.2-0.9c-0.9-0.3-1.9-0.5-3-0.8c-1.2-0.3-2.3-0.6-3.2-1s-1.7-0.8-2.3-1.2c-0.6-0.5-1.1-1.1-1.4-1.7
			c-0.3-0.7-0.5-1.5-0.5-2.5c0-1.2,0.2-2.2,0.7-3.1c0.4-0.9,1-1.6,1.8-2.3c0.8-0.6,1.7-1.1,2.8-1.4c1.1-0.3,2.2-0.5,3.5-0.5
			c1.6,0,3.1,0.3,4.4,0.8c1.3,0.5,2.5,1.2,3.5,2L563.4,290.5z"/>
		<path id="XMLID_45_" class="st0" d="M578.6,285.4h2.6l9.9,24.3h-3.3l-2.9-7.1h-10.2l-2.8,7.1h-3.3L578.6,285.4z M584.3,300.2
			l-4.4-11.2l-4.5,11.2H584.3z"/>
		<path id="XMLID_48_" class="st0" d="M617.1,309.7v-18.8l-8.1,14.4h-1.7l-8.1-14.4v18.8h-3.1v-24.3h3.2l8.8,15.8l8.8-15.8h3.2v24.3
			H617.1z"/>
		<path id="XMLID_50_" class="st0" d="M637.6,309.9c-1.7,0-3.3-0.3-4.7-1s-2.6-1.6-3.6-2.8c-1-1.2-1.8-2.5-2.3-4
			c-0.5-1.5-0.8-3-0.8-4.5c0-1.6,0.3-3.2,0.9-4.7c0.6-1.5,1.4-2.8,2.4-3.9c1-1.1,2.2-2,3.6-2.7c1.4-0.7,2.9-1,4.6-1
			c1.7,0,3.3,0.4,4.7,1.1c1.4,0.7,2.6,1.7,3.6,2.8c1,1.2,1.8,2.5,2.3,4c0.5,1.5,0.8,3,0.8,4.5c0,1.6-0.3,3.2-0.9,4.7
			c-0.6,1.5-1.4,2.8-2.4,3.9c-1,1.1-2.2,2-3.6,2.7C640.7,309.5,639.2,309.9,637.6,309.9z M629.2,297.5c0,1.2,0.2,2.4,0.6,3.6
			c0.4,1.2,1,2.2,1.7,3.1c0.7,0.9,1.6,1.6,2.6,2.1c1,0.5,2.2,0.8,3.4,0.8c1.3,0,2.5-0.3,3.5-0.8c1-0.6,1.9-1.3,2.6-2.2
			c0.7-0.9,1.3-1.9,1.6-3.1c0.4-1.1,0.6-2.3,0.6-3.5c0-1.2-0.2-2.4-0.6-3.6s-1-2.2-1.7-3c-0.7-0.9-1.6-1.6-2.6-2.1
			c-1-0.5-2.1-0.8-3.4-0.8c-1.3,0-2.5,0.3-3.5,0.8c-1,0.5-1.9,1.3-2.6,2.2c-0.7,0.9-1.3,1.9-1.7,3
			C629.4,295.2,629.2,296.4,629.2,297.5z"/>
		<path id="XMLID_53_" class="st0" d="M653.5,297.4c0-1.5,0.3-2.9,0.8-4.4c0.5-1.4,1.3-2.7,2.3-3.9s2.2-2.1,3.6-2.8
			c1.4-0.7,3.1-1.1,4.9-1.1c2.2,0,4,0.5,5.6,1.5c1.6,1,2.7,2.3,3.5,3.8l-2.4,1.6c-0.4-0.8-0.8-1.4-1.3-1.9c-0.5-0.5-1.1-0.9-1.7-1.3
			c-0.6-0.3-1.2-0.5-1.9-0.7c-0.6-0.1-1.3-0.2-1.9-0.2c-1.3,0-2.5,0.3-3.6,0.8c-1,0.6-1.9,1.3-2.6,2.2c-0.7,0.9-1.2,1.9-1.6,3
			s-0.5,2.3-0.5,3.4c0,1.3,0.2,2.5,0.6,3.6c0.4,1.2,1,2.2,1.8,3.1c0.8,0.9,1.6,1.6,2.7,2.1c1,0.5,2.1,0.8,3.4,0.8
			c0.6,0,1.3-0.1,2-0.2c0.7-0.2,1.3-0.4,1.9-0.8c0.6-0.4,1.2-0.8,1.7-1.3c0.5-0.5,1-1.2,1.3-1.9l2.6,1.4c-0.4,0.9-0.9,1.7-1.6,2.4
			s-1.5,1.3-2.4,1.8c-0.9,0.5-1.8,0.8-2.8,1.1c-1,0.3-1.9,0.4-2.9,0.4c-1.7,0-3.2-0.4-4.6-1.1c-1.4-0.7-2.6-1.7-3.6-2.9
			c-1-1.2-1.8-2.5-2.4-4C653.7,300.4,653.5,298.9,653.5,297.4z"/>
		<path id="XMLID_55_" class="st0" d="M699.6,285.4v24.3h-3.1v-11h-13.4v11h-3.1v-24.3h3.1v10.5h13.4v-10.5H699.6z"/>
		<path id="XMLID_57_" class="st0" d="M717,309.9c-1.7,0-3.3-0.3-4.7-1c-1.4-0.7-2.6-1.6-3.6-2.8c-1-1.2-1.8-2.5-2.3-4
			c-0.5-1.5-0.8-3-0.8-4.5c0-1.6,0.3-3.2,0.9-4.7c0.6-1.5,1.4-2.8,2.4-3.9c1-1.1,2.2-2,3.6-2.7c1.4-0.7,2.9-1,4.6-1
			c1.7,0,3.3,0.4,4.7,1.1c1.4,0.7,2.6,1.7,3.6,2.8c1,1.2,1.8,2.5,2.3,4s0.8,3,0.8,4.5c0,1.6-0.3,3.2-0.9,4.7
			c-0.6,1.5-1.4,2.8-2.4,3.9c-1,1.1-2.2,2-3.6,2.7C720.2,309.5,718.7,309.9,717,309.9z M708.7,297.5c0,1.2,0.2,2.4,0.6,3.6
			c0.4,1.2,1,2.2,1.7,3.1c0.7,0.9,1.6,1.6,2.6,2.1s2.2,0.8,3.4,0.8c1.3,0,2.5-0.3,3.5-0.8c1-0.6,1.9-1.3,2.6-2.2
			c0.7-0.9,1.3-1.9,1.6-3.1c0.4-1.1,0.6-2.3,0.6-3.5c0-1.2-0.2-2.4-0.6-3.6s-1-2.2-1.7-3c-0.7-0.9-1.6-1.6-2.6-2.1
			c-1-0.5-2.1-0.8-3.4-0.8c-1.3,0-2.5,0.3-3.5,0.8c-1,0.5-1.9,1.3-2.6,2.2c-0.7,0.9-1.3,1.9-1.7,3
			C708.9,295.2,708.7,296.4,708.7,297.5z"/>
		<path id="XMLID_60_" class="st0" d="M734.5,309.7v-24.3h8.4c1.9,0,3.6,0.3,5.1,1c1.5,0.6,2.7,1.5,3.7,2.6c1,1.1,1.7,2.4,2.2,3.8
			c0.5,1.5,0.7,3,0.7,4.7c0,1.8-0.3,3.5-0.8,5c-0.5,1.5-1.3,2.8-2.4,3.8c-1,1.1-2.3,1.9-3.7,2.5c-1.4,0.6-3.1,0.9-4.8,0.9H734.5z
			 M751.5,297.5c0-1.4-0.2-2.6-0.6-3.8c-0.4-1.2-0.9-2.1-1.7-3c-0.7-0.8-1.6-1.5-2.7-1.9c-1.1-0.5-2.3-0.7-3.7-0.7h-5.3v18.8h5.3
			c1.4,0,2.6-0.2,3.7-0.7c1.1-0.5,2-1.1,2.7-2c0.7-0.8,1.3-1.8,1.6-3S751.5,298.8,751.5,297.5z"/>
		<path id="XMLID_63_" class="st0" d="M759.6,309.7v-3.8h2.5v3.8H759.6z"/>
		<path id="XMLID_66_" class="st0" d="M768.9,309.7v-24.3h10.1c1.1,0,2.1,0.2,3,0.7c0.9,0.4,1.7,1,2.3,1.8c0.6,0.7,1.2,1.6,1.5,2.5
			c0.4,0.9,0.5,1.9,0.5,2.8c0,1-0.2,2-0.5,2.9c-0.3,0.9-0.8,1.8-1.5,2.5c-0.6,0.7-1.4,1.3-2.3,1.7c-0.9,0.4-1.9,0.7-2.9,0.7H772v8.7
			H768.9z M772,298.2h7.1c0.6,0,1.2-0.1,1.7-0.4c0.5-0.3,1-0.6,1.3-1.1c0.4-0.5,0.6-1,0.9-1.6c0.2-0.6,0.3-1.3,0.3-1.9
			c0-0.7-0.1-1.4-0.4-2c-0.2-0.6-0.6-1.2-1-1.6c-0.4-0.5-0.9-0.8-1.4-1.1c-0.5-0.3-1.1-0.4-1.7-0.4H772V298.2z"/>
		<path id="XMLID_69_" class="st0" d="M792,309.7v-24.3h3.1v21.5h13.5v2.7H792z"/>
	</g>
</g>
<g id="Warstwa_1">
	<g id="XMLID_2_">
		<path id="XMLID_64_" class="st1" d="M172.1,315.7l-94.7,0.2c0,0,0-13.4-5.9-17.8c-5.9-4.3-14.7-7-22.4,0s-5,17.8-5,17.8
			s-2.6,1.4-7.7-1.5c0,0,0.1-5.2-1.4-10.6c0,0-0.5-0.7,0.6-2.2c1.1-1.5,1.9-3.7,1.9-3.7s-0.7-4.8,1.9-6.8c0,0,2.9-2.2,10.1-3.6
			c7.2-1.4,14.5-3.6,23.9-4.3c9.4-0.6,13.7-1.1,13.7-1.1s2.8-0.3,5.8-1.6c3-1.3,19.1-10,20.5-10.4s7.4-3.5,17.7-4
			c10.3-0.5,22.8-0.5,25.7-0.2c3.1,0.2,11.6-0.1,21.9,3.4c0,0,10,3.9,12,5.1c2.1,1.2,7.6,3.3,8.9,3.9c0.9,0.4,16.5,3,18.7,3.1
			c2.2,0,2.5,2.6,3.3,3.4c1.2,1.3,4.8,7.8,5.7,10.2c0.9,2.3,1.3,2.7,1.5,5.2c0.1,2.5,0,7.1,0,7.1s0.8,0.3,0.5,1.4
			c-0.2,1.1-2.1,1.5-2.1,1.7c0,0.1-15.9,3.8-15.9,3.8l-6.8,1.1c0,0,2.7-4.6,0.8-9.9s-6-10.1-12.7-11.4c-6.7-1.3-10.6,0.5-14.3,2.8
			c-4.3,2.7-5.3,6.6-6.4,12.6C172,309.6,171.9,313.4,172.1,315.7z"/>
		<path id="XMLID_15_" class="st2" d="M135.8,312c0,0-0.5-2.3-1.1-6.6c-0.5-4.3,0.1-11,0.4-13.1s1.4-8.2,1.4-8.2l0.5-2.2l3.2-14.4
			c0,0-15.7,1.1-20.9,2.8c-5.2,1.7-12.8,5.6-12.8,5.6s-8.6,4.8-10.5,6.2c-1,0.8-1.8,1.4-2.3,1.9c-0.2,0.2-0.1,0.6,0.3,0.6l27.2-1.3
			l15.5-0.6"/>
		<path id="XMLID_12_" class="st2" d="M140.1,267.5c0,0,9.8-0.7,19.8,0.9s14.9,4.4,14.9,4.4s7.9,4,10.1,6.6c2.2,2.6,2.2,3.4,2.2,3.4
			s-47.3-0.3-50.6,0"/>
		<path id="XMLID_9_" class="st3" d="M187.1,297.6H65.2c-1.8,0,6.8,16.6,6.8,14.8l-15.9-14.8c-6.7-6.3,7-6.1,16.3-6.2
			c2.2,0,2.9,0.1,3,0.1l112.5-0.1c11.2,1.8,9.2,0.7,13.2,3.3c2.3,1.5-3.7,6-6.4,6.3l-17.4,1.7C177.3,304.6,188.9,297.6,187.1,297.6z
			"/>
		<circle id="XMLID_8_" class="st3" cx="190.4" cy="310.5" r="19"/>
		<circle id="XMLID_7_" class="st3" cx="62.5" cy="310.6" r="19"/>
		<circle id="XMLID_6_" class="st1" cx="190" cy="310.6" r="13.9"/>
		<circle id="XMLID_5_" class="st1" cx="62.5" cy="311.5" r="13.9"/>
		<circle id="XMLID_4_" class="st3" cx="62.7" cy="311.1" r="9.8"/>
		<circle id="XMLID_3_" class="st3" cx="190.4" cy="310.5" r="9.8"/>
	</g>
</g>
</svg>
