<?xml version="1.0" encoding="utf-8"?>
<!-- Generator: Adobe Illustrator 19.0.0, SVG Export Plug-In . SVG Version: 6.00 Build 0)  -->
<svg version="1.1" xmlns="http://www.w3.org/2000/svg" xmlns:xlink="http://www.w3.org/1999/xlink" x="0px" y="0px"
	 viewBox="0 0 841.9 595.3" style="enable-background:new 0 0 841.9 595.3;" xml:space="preserve">
<style type="text/css">
	.st0{fill:#DF6725;}
	.st1{fill:#FFFFFF;}
	.st2{fill:#DF6725;stroke:#FFFFFF;stroke-miterlimit:10;}
</style>
<g id="Warstwa_1">
	<g id="XMLID_4_">
		<path id="XMLID_5_" class="st0" d="M429.3,484.5c-22.7,0-45.4-3.7-67.9-11.1c-22.6-7.4-41.9-17.9-58.2-31.7l23.8-37.9
			c17,12.3,33.7,21.6,50.3,27.9c16.6,6.3,33.6,9.5,50.9,9.5c17.7,0,31.7-3.4,41.9-10.3c10.3-6.8,15.4-16.6,15.4-29.2
			c0-11.9-5.8-20.6-17.3-26c-11.5-5.4-29.6-11.4-54.1-17.9c-17.7-4.7-32.8-9.2-45.5-13.5c-12.6-4.3-22.9-9.4-30.8-15.2
			c-7.9-5.8-13.7-12.4-17.3-20c-3.6-7.6-5.4-16.8-5.4-27.6c0-14.4,2.8-27.2,8.4-38.4c5.6-11.2,13.3-20.6,23.3-28.4
			c9.9-7.8,21.6-13.6,34.9-17.6c13.3-4,27.8-6,43.3-6c21.3,0,41.1,3.2,59.5,9.7c18.4,6.5,34.8,15.9,49.2,28.1l-25.4,35.7
			c-26.3-20.9-54.3-31.4-83.9-31.4c-15.2,0-27.9,3.2-38.2,9.5c-10.3,6.3-15.4,16.3-15.4,30c0,5.8,1.1,10.6,3.2,14.6
			c2.2,4,5.7,7.4,10.6,10.3c4.9,2.9,11.2,5.5,18.9,7.8c7.8,2.4,17.4,5,29,7.8c19.1,4.7,35.6,9.4,49.5,14.1
			c13.9,4.7,25.3,10.2,34.4,16.5c9,6.3,15.7,13.7,20,22.2c4.3,8.5,6.5,18.7,6.5,30.6c0,27.1-10.2,48.4-30.6,64.1
			C492,476.6,464.3,484.5,429.3,484.5z"/>
	</g>
</g>
<g id="Warstwa_2">
	<g id="XMLID_3_">
		<rect id="XMLID_2_" x="77.4" y="297.6" class="st1" width="687" height="83.4"/>
	</g>
	<g id="XMLID_11_">
		<path id="XMLID_13_" class="st2" d="M113.9,331.3c-0.3-0.3-0.6-0.6-1.1-0.9c-0.5-0.3-1.1-0.6-1.8-0.9c-0.7-0.3-1.4-0.5-2.2-0.7
			c-0.8-0.2-1.6-0.3-2.5-0.3c-1.9,0-3.3,0.3-4.1,1c-0.9,0.7-1.3,1.6-1.3,2.9c0,0.7,0.1,1.2,0.4,1.7c0.3,0.4,0.7,0.8,1.3,1.1
			c0.6,0.3,1.3,0.6,2.2,0.9c0.9,0.3,1.9,0.5,3,0.8c1.4,0.3,2.7,0.7,3.9,1.1c1.1,0.4,2.1,0.9,2.9,1.5c0.8,0.6,1.4,1.4,1.8,2.2
			c0.4,0.9,0.7,2,0.7,3.2c0,1.4-0.3,2.7-0.8,3.7c-0.5,1-1.3,1.9-2.2,2.5c-0.9,0.6-2,1.1-3.3,1.4c-1.2,0.3-2.6,0.5-4,0.5
			c-2.1,0-4.2-0.3-6.2-1c-2-0.6-3.8-1.6-5.4-2.8l2-3.8c0.3,0.3,0.8,0.7,1.5,1.1c0.6,0.4,1.4,0.8,2.3,1.2c0.9,0.4,1.8,0.7,2.8,0.9
			c1,0.3,2,0.4,3.1,0.4c1.7,0,3.1-0.3,4-0.9s1.4-1.5,1.4-2.7c0-0.7-0.2-1.3-0.5-1.8c-0.4-0.5-0.9-0.9-1.5-1.2
			c-0.7-0.4-1.5-0.7-2.4-1c-1-0.3-2-0.6-3.2-0.9c-1.4-0.4-2.6-0.8-3.7-1.2c-1-0.4-1.9-0.9-2.6-1.5c-0.7-0.6-1.2-1.3-1.6-2
			c-0.4-0.8-0.5-1.7-0.5-2.8c0-1.4,0.3-2.6,0.8-3.7s1.2-2,2.2-2.7c0.9-0.7,2-1.3,3.2-1.6c1.2-0.4,2.6-0.6,4-0.6
			c1.9,0,3.7,0.3,5.3,0.9c1.6,0.6,3,1.4,4.2,2.3L113.9,331.3z"/>
		<path id="XMLID_16_" class="st2" d="M123.4,352.8v-28.1h11.8c1.3,0,2.4,0.3,3.5,0.8c1.1,0.5,2,1.2,2.8,2.1
			c0.8,0.9,1.4,1.8,1.8,2.9c0.4,1.1,0.7,2.2,0.7,3.3c0,1.2-0.2,2.3-0.6,3.4c-0.4,1.1-1,2.1-1.7,2.9c-0.7,0.9-1.6,1.5-2.7,2.1
			c-1,0.5-2.2,0.8-3.5,0.8h-7.6v9.8H123.4z M127.8,339.1h7.3c0.6,0,1.2-0.1,1.7-0.4c0.5-0.3,1-0.6,1.3-1.1c0.4-0.5,0.7-1,0.9-1.7
			c0.2-0.6,0.3-1.3,0.3-2.1c0-0.8-0.1-1.5-0.4-2.1c-0.2-0.6-0.6-1.2-1-1.6c-0.4-0.5-0.9-0.8-1.4-1.1c-0.5-0.3-1.1-0.4-1.7-0.4h-7.1
			V339.1z"/>
		<path id="XMLID_19_" class="st2" d="M150,352.8v-28.1h12.2c1.3,0,2.4,0.3,3.5,0.8c1.1,0.5,2,1.2,2.8,2.1c0.8,0.9,1.4,1.8,1.8,2.9
			s0.7,2.2,0.7,3.3c0,1-0.1,1.9-0.4,2.7c-0.3,0.9-0.6,1.7-1.1,2.4c-0.5,0.7-1.1,1.4-1.7,1.9c-0.7,0.5-1.4,0.9-2.3,1.2l6.6,10.7h-5
			L161,343h-6.5v9.8H150z M154.5,339.1h7.8c0.6,0,1.2-0.1,1.7-0.4c0.5-0.3,1-0.7,1.3-1.1c0.4-0.5,0.7-1,0.9-1.7
			c0.2-0.6,0.3-1.3,0.3-2s-0.1-1.4-0.4-2c-0.3-0.6-0.6-1.2-1-1.7c-0.4-0.5-0.9-0.9-1.4-1.1c-0.5-0.3-1.1-0.4-1.7-0.4h-7.5V339.1z"/>
		<path id="XMLID_22_" class="st2" d="M176.2,349.4l17.1-20.8h-16.7v-3.9h21.9v3.4l-16.7,20.8h16.7v3.9h-22.3V349.4z"/>
		<path id="XMLID_24_" class="st2" d="M224.3,348.9v3.9H205v-28.1H224v3.9h-14.5v8H222v3.7h-12.6v8.6H224.3z"/>
		<path id="XMLID_26_" class="st2" d="M230.9,352.8v-28.1h10c2.3,0,4.3,0.4,6,1.1s3.1,1.7,4.3,3c1.1,1.3,2,2.8,2.6,4.5
			c0.6,1.7,0.9,3.5,0.9,5.4c0,2.1-0.3,4.1-1,5.8c-0.6,1.7-1.6,3.2-2.8,4.4c-1.2,1.2-2.6,2.2-4.3,2.9c-1.7,0.7-3.6,1-5.7,1H230.9z
			 M250.1,338.7c0-1.5-0.2-2.8-0.6-4.1c-0.4-1.2-1-2.3-1.8-3.2c-0.8-0.9-1.8-1.6-2.9-2.1c-1.1-0.5-2.4-0.8-3.9-0.8h-5.5v20.3h5.5
			c1.5,0,2.8-0.3,3.9-0.8c1.1-0.5,2.1-1.2,2.9-2.1c0.8-0.9,1.4-2,1.8-3.2C249.9,341.5,250.1,340.1,250.1,338.7z"/>
		<path id="XMLID_29_" class="st2" d="M268.5,324.7h3.9l11.1,28.1h-4.7l-3-7.6H265l-2.9,7.6h-4.7L268.5,324.7z M274.9,341.9
			l-4.5-12.1l-4.7,12.1H274.9z"/>
		<path id="XMLID_32_" class="st2" d="M312.5,352.8v-20.2l-8.4,15.3h-2.5l-8.4-15.3v20.2h-4.4v-28.1h4.8l9.3,17.2l9.3-17.2h4.8v28.1
			H312.5z"/>
		<path id="XMLID_34_" class="st0" d="M346.1,329.5h-9v23.3h-5.4v-23.3h-9v-4.8h23.4V329.5z"/>
		<path id="XMLID_36_" class="st0" d="M361.2,324.7h5l3.2,9.3l3.2-9.3h5.1l-4.8,12.8l3.6,9l8-21.9h5.9l-11.4,28.1h-4.6l-4.9-11.8
			l-4.9,11.8h-4.6l-11.4-28.1h5.9l8,21.9l3.5-9L361.2,324.7z"/>
		<path id="XMLID_38_" class="st0" d="M406.1,353c-2.1,0-3.9-0.4-5.6-1.2c-1.7-0.8-3.1-1.9-4.3-3.2c-1.2-1.3-2.1-2.9-2.8-4.6
			c-0.7-1.7-1-3.5-1-5.3c0-1.9,0.3-3.7,1-5.4c0.7-1.7,1.7-3.2,2.9-4.6c1.2-1.3,2.7-2.4,4.4-3.1c1.7-0.8,3.5-1.2,5.5-1.2
			c2,0,3.9,0.4,5.6,1.2s3.1,1.9,4.3,3.3c1.2,1.3,2.1,2.9,2.8,4.6c0.7,1.7,1,3.5,1,5.2c0,1.9-0.3,3.7-1,5.4c-0.7,1.7-1.6,3.2-2.9,4.5
			c-1.2,1.3-2.7,2.4-4.4,3.1C409.9,352.6,408.1,353,406.1,353z M397.9,338.7c0,1.2,0.2,2.4,0.6,3.5c0.4,1.1,0.9,2.1,1.6,3
			s1.6,1.6,2.6,2.1c1,0.5,2.2,0.8,3.5,0.8c1.3,0,2.5-0.3,3.5-0.8c1-0.5,1.9-1.3,2.6-2.2c0.7-0.9,1.2-1.9,1.6-3
			c0.4-1.1,0.5-2.3,0.5-3.4c0-1.2-0.2-2.4-0.6-3.5c-0.4-1.1-0.9-2.1-1.6-3c-0.7-0.9-1.6-1.6-2.6-2.1c-1-0.5-2.2-0.8-3.4-0.8
			c-1.3,0-2.5,0.3-3.5,0.8c-1,0.5-1.9,1.3-2.6,2.1c-0.7,0.9-1.2,1.9-1.6,3S397.9,337.6,397.9,338.7z"/>
		<path id="XMLID_41_" class="st0" d="M423.1,347c0.4,0.3,1,0.6,1.9,0.9c0.9,0.3,1.9,0.5,3,0.5c1.1,0,2-0.2,2.7-0.6s1.2-1,1.5-1.8
			s0.6-1.8,0.7-3c0.1-1.2,0.2-2.6,0.2-4.1v-14.3h5.5V339c0,2.1-0.1,4.1-0.3,5.8s-0.7,3.3-1.4,4.5s-1.8,2.2-3.1,2.9
			c-1.4,0.7-3.2,1-5.5,1c-2.4,0-4.4-0.6-6.1-1.7L423.1,347z"/>
		<path id="XMLID_43_" class="st2" d="M462.8,330.6c-0.3-0.4-0.7-0.7-1.3-1.1c-0.5-0.3-1.1-0.7-1.8-0.9s-1.4-0.5-2.2-0.7
			c-0.8-0.2-1.6-0.3-2.4-0.3c-2.2,0-3.8,0.4-4.8,1.2c-1,0.8-1.5,1.9-1.5,3.4c0,0.8,0.1,1.4,0.4,1.9c0.3,0.5,0.7,0.9,1.4,1.3
			s1.4,0.7,2.3,0.9c0.9,0.3,2,0.5,3.3,0.8c1.5,0.3,2.8,0.7,3.9,1.1c1.2,0.4,2.2,0.9,3,1.5c0.8,0.6,1.5,1.3,1.9,2.2
			c0.4,0.9,0.7,1.9,0.7,3.2c0,1.3-0.3,2.5-0.8,3.5s-1.2,1.8-2.2,2.5c-0.9,0.6-2,1.1-3.2,1.4c-1.2,0.3-2.6,0.5-4,0.5
			c-2.2,0-4.2-0.3-6.2-1c-1.9-0.7-3.7-1.7-5.3-3l1.7-3c0.4,0.4,1,0.9,1.6,1.3c0.7,0.4,1.4,0.9,2.3,1.2c0.9,0.4,1.8,0.6,2.8,0.9
			c1,0.2,2,0.3,3.1,0.3c2,0,3.6-0.4,4.7-1.1c1.1-0.7,1.7-1.8,1.7-3.2c0-0.8-0.2-1.5-0.5-2c-0.4-0.5-0.9-1-1.6-1.4
			c-0.7-0.4-1.5-0.7-2.6-1s-2.2-0.6-3.5-0.9c-1.4-0.3-2.7-0.7-3.8-1.1s-2-0.9-2.7-1.4s-1.3-1.2-1.6-2c-0.4-0.8-0.6-1.7-0.6-2.9
			c0-1.3,0.3-2.5,0.8-3.6c0.5-1,1.2-1.9,2.1-2.6s2-1.2,3.2-1.6c1.2-0.4,2.6-0.5,4-0.5c1.9,0,3.6,0.3,5.1,0.9
			c1.5,0.6,2.9,1.4,4.1,2.3L462.8,330.6z"/>
		<path id="XMLID_45_" class="st2" d="M480.4,324.7h3l11.5,28.1h-3.8l-3.3-8.2H476l-3.3,8.2h-3.8L480.4,324.7z M487,341.8l-5.1-13
			l-5.2,13H487z"/>
		<path id="XMLID_48_" class="st2" d="M525,352.8V331l-9.3,16.7h-2l-9.4-16.7v21.7h-3.6v-28.1h3.8l10.2,18.3l10.2-18.3h3.7v28.1H525
			z"/>
		<path id="XMLID_50_" class="st2" d="M548.7,353c-2,0-3.8-0.4-5.4-1.2s-3-1.9-4.2-3.2s-2.1-2.9-2.7-4.6c-0.6-1.7-1-3.5-1-5.3
			c0-1.9,0.3-3.7,1-5.4c0.7-1.7,1.6-3.2,2.8-4.6c1.2-1.3,2.6-2.4,4.2-3.1c1.6-0.8,3.4-1.2,5.3-1.2c2,0,3.8,0.4,5.4,1.2
			c1.6,0.8,3,1.9,4.2,3.3c1.2,1.3,2.1,2.9,2.7,4.6s1,3.4,1,5.2c0,1.9-0.3,3.7-1,5.4c-0.7,1.7-1.6,3.2-2.8,4.5
			c-1.2,1.3-2.6,2.4-4.2,3.1C552.4,352.6,550.6,353,548.7,353z M539.1,338.7c0,1.4,0.2,2.8,0.7,4.1c0.5,1.3,1.1,2.5,2,3.5
			c0.8,1,1.9,1.8,3,2.5s2.5,0.9,4,0.9c1.5,0,2.9-0.3,4-1c1.2-0.6,2.2-1.5,3-2.5c0.8-1,1.5-2.2,1.9-3.5c0.4-1.3,0.7-2.7,0.7-4
			c0-1.4-0.2-2.8-0.7-4.1s-1.1-2.5-2-3.5c-0.9-1-1.9-1.8-3-2.4s-2.5-0.9-3.9-0.9c-1.5,0-2.9,0.3-4,1c-1.2,0.6-2.2,1.5-3,2.5
			c-0.8,1-1.5,2.2-1.9,3.5C539.3,336,539.1,337.4,539.1,338.7z"/>
		<path id="XMLID_53_" class="st2" d="M567.1,338.5c0-1.7,0.3-3.4,0.9-5c0.6-1.7,1.5-3.2,2.6-4.5s2.6-2.4,4.2-3.2
			c1.7-0.8,3.6-1.2,5.7-1.2c2.5,0,4.7,0.6,6.5,1.7c1.8,1.1,3.1,2.6,4,4.4l-2.8,1.8c-0.4-0.9-0.9-1.7-1.5-2.3
			c-0.6-0.6-1.2-1.1-1.9-1.5c-0.7-0.4-1.4-0.6-2.2-0.8c-0.7-0.2-1.5-0.2-2.2-0.2c-1.6,0-2.9,0.3-4.1,1c-1.2,0.6-2.2,1.5-3,2.5
			c-0.8,1-1.4,2.2-1.8,3.5s-0.6,2.6-0.6,3.9c0,1.5,0.2,2.9,0.7,4.2c0.5,1.3,1.2,2.5,2,3.5c0.9,1,1.9,1.8,3.1,2.5
			c1.2,0.6,2.5,0.9,3.9,0.9c0.7,0,1.5-0.1,2.3-0.3c0.8-0.2,1.5-0.5,2.2-0.9s1.4-0.9,2-1.5c0.6-0.6,1.1-1.4,1.5-2.2l3,1.6
			c-0.4,1.1-1.1,2-1.9,2.8s-1.7,1.5-2.7,2c-1,0.6-2.1,1-3.2,1.3s-2.2,0.4-3.3,0.4c-1.9,0-3.7-0.4-5.3-1.3c-1.6-0.8-3-1.9-4.2-3.3
			c-1.2-1.4-2.1-2.9-2.7-4.6C567.5,342.1,567.1,340.3,567.1,338.5z"/>
		<path id="XMLID_55_" class="st2" d="M620.6,324.7v28.1H617V340h-15.5v12.8H598v-28.1h3.6v12.2H617v-12.2H620.6z"/>
		<path id="XMLID_57_" class="st2" d="M640.7,353c-2,0-3.8-0.4-5.4-1.2s-3-1.9-4.2-3.2s-2.1-2.9-2.7-4.6c-0.6-1.7-1-3.5-1-5.3
			c0-1.9,0.3-3.7,1-5.4c0.7-1.7,1.6-3.2,2.8-4.6c1.2-1.3,2.6-2.4,4.2-3.1c1.6-0.8,3.4-1.2,5.3-1.2c2,0,3.8,0.4,5.4,1.2
			c1.6,0.8,3,1.9,4.2,3.3c1.2,1.3,2.1,2.9,2.7,4.6s1,3.4,1,5.2c0,1.9-0.3,3.7-1,5.4c-0.7,1.7-1.6,3.2-2.8,4.5
			c-1.2,1.3-2.6,2.4-4.2,3.1C644.4,352.6,642.6,353,640.7,353z M631.1,338.7c0,1.4,0.2,2.8,0.7,4.1c0.5,1.3,1.1,2.5,2,3.5
			c0.8,1,1.9,1.8,3,2.5s2.5,0.9,4,0.9c1.5,0,2.9-0.3,4-1c1.2-0.6,2.2-1.5,3-2.5c0.8-1,1.5-2.2,1.9-3.5c0.4-1.3,0.7-2.7,0.7-4
			c0-1.4-0.2-2.8-0.7-4.1s-1.1-2.5-2-3.5c-0.9-1-1.9-1.8-3-2.4s-2.5-0.9-3.9-0.9c-1.5,0-2.9,0.3-4,1c-1.2,0.6-2.2,1.5-3,2.5
			c-0.8,1-1.5,2.2-1.9,3.5C631.3,336,631.1,337.4,631.1,338.7z"/>
		<path id="XMLID_60_" class="st2" d="M661,352.8v-28.1h9.7c2.2,0,4.2,0.4,5.9,1.1s3.1,1.7,4.3,3c1.1,1.3,2,2.8,2.6,4.5
			c0.6,1.7,0.9,3.5,0.9,5.4c0,2.1-0.3,4.1-1,5.8c-0.6,1.7-1.5,3.2-2.7,4.4c-1.2,1.2-2.6,2.2-4.3,2.9c-1.7,0.7-3.5,1-5.6,1H661z
			 M680.7,338.7c0-1.6-0.2-3-0.7-4.4c-0.4-1.3-1.1-2.5-1.9-3.4c-0.9-1-1.9-1.7-3.1-2.2c-1.2-0.5-2.7-0.8-4.2-0.8h-6.2v21.8h6.2
			c1.6,0,3-0.3,4.3-0.8c1.3-0.6,2.3-1.3,3.1-2.3c0.8-1,1.5-2.1,1.9-3.5S680.7,340.2,680.7,338.7z"/>
		<path id="XMLID_63_" class="st2" d="M690,352.8v-4.4h2.9v4.4H690z"/>
		<path id="XMLID_66_" class="st2" d="M700.8,352.8v-28.1h11.7c1.2,0,2.4,0.3,3.4,0.8c1,0.5,1.9,1.2,2.7,2.1
			c0.8,0.9,1.3,1.8,1.8,2.9c0.4,1.1,0.6,2.2,0.6,3.3c0,1.2-0.2,2.3-0.6,3.4c-0.4,1.1-1,2-1.7,2.9s-1.6,1.5-2.6,2
			c-1,0.5-2.1,0.8-3.4,0.8h-8.4v10.1H700.8z M704.4,339.5h8.2c0.7,0,1.4-0.2,2-0.5c0.6-0.3,1.1-0.7,1.5-1.3c0.4-0.5,0.8-1.2,1-1.9
			c0.2-0.7,0.4-1.5,0.4-2.3c0-0.8-0.1-1.6-0.4-2.3s-0.6-1.3-1.1-1.9c-0.5-0.5-1-0.9-1.6-1.2c-0.6-0.3-1.3-0.4-2-0.4h-8V339.5z"/>
		<path id="XMLID_69_" class="st2" d="M727.5,352.8v-28.1h3.6v25h15.7v3.2H727.5z"/>
	</g>
</g>
</svg>
